<?xml version="1.0" encoding="UTF-8" standalone="no"?>
<!DOCTYPE svg PUBLIC "-//W3C//DTD SVG 1.1//EN" "http://www.w3.org/Graphics/SVG/1.1/DTD/svg11.dtd">
<svg width="100%" height="100%" viewBox="0 0 112 49" version="1.1" xmlns="http://www.w3.org/2000/svg" xmlns:xlink="http://www.w3.org/1999/xlink" xml:space="preserve" xmlns:serif="http://www.serif.com/" style="fill-rule:evenodd;clip-rule:evenodd;stroke-linejoin:round;stroke-miterlimit:2;">
    <g transform="matrix(1,0,0,1,80.447,134.405)">
        <g transform="matrix(1.04836,0,0,1.10058,-80.4596,-212.183)">
            <g transform="matrix(0.5944,0,0,0.566194,45.8549,76.9526)">
                <path d="M7.5,7.5L7.5,6.108C7.5,4.582 8.645,3.295 10.165,3.168C10.389,3.151 10.613,3.134 10.837,3.118C11.347,2.139 12.369,1.5 13.5,1.5L15,1.5C16.159,1.5 17.163,2.157 17.663,3.118C17.887,3.134 18.111,3.151 18.335,3.168C19.855,3.295 21,4.582 21,6.108L21,16.5C21,18.146 19.646,19.5 18,19.5L16.5,19.5L16.5,20.625C16.5,21.66 15.66,22.5 14.625,22.5L4.875,22.5C3.84,22.5 3,21.66 3,20.625L3,9.375C3,8.34 3.84,7.5 4.875,7.5L7.5,7.5ZM15,9.375C15,9.168 14.832,9 14.625,9L4.875,9C4.668,9 4.5,9.168 4.5,9.375L4.5,20.625C4.5,20.832 4.668,21 4.875,21L14.625,21C14.832,21 15,20.832 15,20.625L15,9.375ZM17.985,4.646L17.969,4.802L17.881,5.085C17.805,5.263 17.695,5.424 17.56,5.56C17.424,5.695 17.263,5.805 17.085,5.881L16.802,5.969L16.5,6L12,6C11.221,6 10.581,5.406 10.507,4.646C10.434,4.652 10.361,4.658 10.288,4.663C9.546,4.725 9,5.364 9,6.108L9,7.5L14.625,7.5C15.66,7.5 16.5,8.34 16.5,9.375L16.5,18L18,18C18.823,18 19.5,17.323 19.5,16.5L19.5,6.108C19.5,5.364 18.954,4.725 18.212,4.663C18.137,4.657 18.061,4.651 17.985,4.646ZM12.067,4.057C12.023,4.198 12,4.346 12,4.5L16.5,4.5C16.5,4.35 16.478,4.2 16.433,4.057C16.245,3.445 15.675,3 15,3L13.5,3C12.844,3 12.261,3.43 12.067,4.057ZM16.5,4.5C16.089,4.5 16.5,4.089 16.5,4.5ZM6.97,16.28C6.677,15.988 6.677,15.512 6.97,15.22C7.262,14.927 7.738,14.927 8.03,15.22C8.03,15.22 8.938,16.127 8.938,16.127L11.414,13.031C11.673,12.708 12.145,12.656 12.469,12.914C12.792,13.173 12.844,13.645 12.586,13.969L9.586,17.719C9.452,17.885 9.254,17.987 9.041,17.999C8.828,18.011 8.621,17.931 8.47,17.78L6.97,16.28Z" style="fill:rgb(237,255,0);"/>
            </g>
            <g transform="matrix(0.448355,0,0,0.42708,-0.80394,80.6308)">
                <path d="M66.915,41.504L66.915,33.104L68.114,33.104L68.114,41.504L66.915,41.504ZM61.572,41.504L61.572,33.104L62.772,33.104L62.772,41.504L61.572,41.504ZM62.572,37.712L62.572,36.732L67.173,36.732L67.173,37.712L62.572,37.712Z" style="fill:white;fill-rule:nonzero;"/>
                <path d="M72.565,41.648C71.997,41.648 71.487,41.516 71.035,41.253C70.582,40.991 70.226,40.621 69.966,40.145C69.706,39.669 69.576,39.116 69.576,38.486C69.576,37.848 69.708,37.291 69.971,36.816C70.234,36.341 70.594,35.973 71.049,35.711C71.505,35.449 72.016,35.318 72.584,35.318C73.159,35.318 73.673,35.449 74.124,35.711C74.576,35.973 74.931,36.341 75.191,36.815C75.451,37.288 75.581,37.845 75.581,38.485C75.581,39.118 75.45,39.671 75.187,40.147C74.923,40.622 74.564,40.991 74.11,41.253C73.655,41.516 73.14,41.648 72.565,41.648ZM72.569,40.616C72.892,40.616 73.189,40.537 73.459,40.378C73.728,40.219 73.945,39.981 74.109,39.662C74.273,39.344 74.355,38.951 74.355,38.482C74.355,38.007 74.275,37.612 74.114,37.297C73.953,36.982 73.739,36.745 73.47,36.587C73.201,36.428 72.906,36.349 72.586,36.349C72.272,36.349 71.979,36.428 71.706,36.587C71.433,36.745 71.215,36.982 71.05,37.298C70.885,37.613 70.802,38.008 70.802,38.483C70.802,38.951 70.885,39.345 71.049,39.663C71.213,39.981 71.428,40.219 71.695,40.378C71.962,40.537 72.253,40.616 72.569,40.616Z" style="fill:white;fill-rule:nonzero;"/>
                <path d="M76.992,41.504L76.992,35.462L78.069,35.462L78.172,36.601C78.31,36.329 78.487,36.098 78.702,35.908C78.917,35.718 79.172,35.572 79.467,35.47C79.762,35.368 80.093,35.318 80.462,35.318L80.462,36.579L80.039,36.579C79.787,36.579 79.548,36.61 79.324,36.673C79.1,36.736 78.903,36.839 78.732,36.982C78.561,37.124 78.429,37.319 78.334,37.565C78.239,37.812 78.192,38.119 78.192,38.487L78.192,41.504L76.992,41.504Z" style="fill:white;fill-rule:nonzero;"/>
                <path d="M81.662,41.504L81.662,35.462L82.861,35.462L82.861,41.504L81.662,41.504ZM82.262,34.315C82.033,34.315 81.844,34.242 81.695,34.097C81.546,33.952 81.472,33.77 81.472,33.551C81.472,33.33 81.546,33.15 81.695,33.012C81.844,32.873 82.033,32.804 82.262,32.804C82.487,32.804 82.675,32.873 82.827,33.012C82.979,33.15 83.056,33.33 83.056,33.551C83.056,33.77 82.979,33.952 82.827,34.097C82.675,34.242 82.487,34.315 82.262,34.315Z" style="fill:white;fill-rule:nonzero;"/>
                <path d="M84.175,41.504L84.175,40.528L87.432,36.458L84.229,36.458L84.229,35.462L88.803,35.462L88.803,36.437L85.535,40.507L88.863,40.507L88.863,41.504L84.175,41.504Z" style="fill:white;fill-rule:nonzero;"/>
                <path d="M92.954,41.648C92.386,41.648 91.876,41.516 91.424,41.253C90.971,40.991 90.615,40.621 90.355,40.145C90.095,39.669 89.965,39.116 89.965,38.486C89.965,37.848 90.097,37.291 90.36,36.816C90.623,36.341 90.983,35.973 91.438,35.711C91.894,35.449 92.405,35.318 92.973,35.318C93.548,35.318 94.062,35.449 94.513,35.711C94.965,35.973 95.32,36.341 95.58,36.815C95.84,37.288 95.97,37.845 95.97,38.485C95.97,39.118 95.839,39.671 95.576,40.147C95.312,40.622 94.954,40.991 94.499,41.253C94.045,41.516 93.53,41.648 92.954,41.648ZM92.958,40.616C93.281,40.616 93.578,40.537 93.848,40.378C94.117,40.219 94.334,39.981 94.498,39.662C94.662,39.344 94.744,38.951 94.744,38.482C94.744,38.007 94.664,37.612 94.503,37.297C94.343,36.982 94.128,36.745 93.859,36.587C93.59,36.428 93.296,36.349 92.975,36.349C92.661,36.349 92.368,36.428 92.095,36.587C91.822,36.745 91.604,36.982 91.439,37.298C91.274,37.613 91.192,38.008 91.192,38.483C91.192,38.951 91.274,39.345 91.438,39.663C91.602,39.981 91.817,40.219 92.084,40.378C92.351,40.537 92.642,40.616 92.958,40.616Z" style="fill:white;fill-rule:nonzero;"/>
                <path d="M97.381,41.504L97.381,35.462L98.454,35.462L98.531,36.49C98.719,36.128 98.989,35.842 99.341,35.632C99.693,35.422 100.1,35.318 100.562,35.318C101.041,35.318 101.452,35.414 101.796,35.606C102.14,35.798 102.406,36.087 102.595,36.474C102.784,36.861 102.879,37.345 102.879,37.927L102.879,41.504L101.681,41.504L101.681,38.048C101.681,37.487 101.558,37.061 101.31,36.772C101.063,36.483 100.705,36.338 100.237,36.338C99.923,36.338 99.641,36.414 99.391,36.566C99.141,36.717 98.943,36.936 98.798,37.222C98.653,37.508 98.581,37.86 98.581,38.276L98.581,41.504L97.381,41.504Z" style="fill:white;fill-rule:nonzero;"/>
                <path d="M106.91,41.504C106.531,41.504 106.201,41.444 105.92,41.326C105.639,41.207 105.423,41.007 105.272,40.727C105.121,40.446 105.046,40.066 105.046,39.587L105.046,36.47L104,36.47L104,35.462L105.046,35.462L105.193,33.938L106.245,33.938L106.245,35.462L107.954,35.462L107.954,36.47L106.246,36.47L106.246,39.591C106.246,39.935 106.317,40.169 106.458,40.293C106.6,40.417 106.848,40.478 107.203,40.478L107.896,40.478L107.896,41.504L106.91,41.504Z" style="fill:white;fill-rule:nonzero;"/>
                <path d="M111.277,41.648C110.782,41.648 110.372,41.563 110.045,41.394C109.718,41.226 109.475,41 109.315,40.717C109.155,40.434 109.075,40.127 109.075,39.795C109.075,39.398 109.178,39.058 109.383,38.776C109.587,38.494 109.883,38.277 110.268,38.125C110.654,37.973 111.117,37.897 111.657,37.897L113.222,37.897C113.222,37.544 113.17,37.25 113.068,37.017C112.966,36.784 112.812,36.609 112.607,36.491C112.401,36.374 112.144,36.315 111.834,36.315C111.475,36.315 111.167,36.402 110.908,36.575C110.649,36.749 110.49,37.004 110.43,37.342L109.228,37.342C109.275,36.913 109.42,36.548 109.664,36.249C109.907,35.949 110.22,35.719 110.603,35.558C110.986,35.398 111.397,35.318 111.836,35.318C112.397,35.318 112.87,35.417 113.254,35.617C113.639,35.816 113.929,36.098 114.126,36.461C114.323,36.824 114.421,37.256 114.421,37.756L114.421,41.504L113.376,41.504L113.278,40.479C113.197,40.643 113.095,40.796 112.971,40.939C112.848,41.081 112.704,41.204 112.541,41.309C112.378,41.414 112.191,41.497 111.982,41.557C111.772,41.617 111.537,41.648 111.277,41.648ZM111.503,40.67C111.762,40.67 111.995,40.618 112.202,40.514C112.409,40.41 112.586,40.269 112.734,40.089C112.882,39.91 112.995,39.707 113.073,39.481C113.152,39.256 113.194,39.02 113.202,38.775L113.202,38.743L111.773,38.743C111.43,38.743 111.152,38.785 110.939,38.868C110.726,38.952 110.572,39.067 110.478,39.213C110.384,39.36 110.337,39.528 110.337,39.718C110.337,39.913 110.382,40.082 110.473,40.225C110.564,40.368 110.697,40.478 110.872,40.555C111.047,40.631 111.257,40.67 111.503,40.67Z" style="fill:white;fill-rule:nonzero;"/>
                <rect x="115.968" y="32.864" width="1.2" height="8.64" style="fill:white;fill-rule:nonzero;"/>
                <path d="M124.685,41.648C124.072,41.648 123.534,41.538 123.072,41.318C122.609,41.099 122.25,40.789 121.994,40.389C121.738,39.989 121.607,39.519 121.603,38.979L122.866,38.979C122.869,39.284 122.942,39.562 123.083,39.813C123.225,40.065 123.43,40.265 123.698,40.414C123.965,40.562 124.294,40.637 124.683,40.637C125.021,40.637 125.311,40.581 125.554,40.471C125.797,40.36 125.983,40.206 126.112,40.01C126.241,39.814 126.306,39.589 126.306,39.337C126.306,39.037 126.239,38.792 126.105,38.602C125.972,38.411 125.791,38.254 125.561,38.13C125.331,38.006 125.067,37.896 124.769,37.8C124.471,37.703 124.156,37.599 123.826,37.488C123.163,37.266 122.669,36.984 122.346,36.642C122.022,36.3 121.86,35.852 121.86,35.297C121.86,34.826 121.971,34.416 122.192,34.068C122.414,33.72 122.728,33.448 123.135,33.252C123.542,33.057 124.019,32.96 124.566,32.96C125.113,32.96 125.589,33.059 125.995,33.258C126.402,33.458 126.721,33.734 126.953,34.087C127.185,34.44 127.303,34.852 127.307,35.323L126.038,35.323C126.036,35.104 125.979,34.892 125.865,34.687C125.752,34.482 125.584,34.313 125.361,34.18C125.138,34.047 124.863,33.98 124.535,33.98C124.26,33.972 124.015,34.017 123.8,34.114C123.584,34.211 123.416,34.35 123.294,34.53C123.172,34.711 123.111,34.933 123.111,35.196C123.111,35.446 123.166,35.65 123.277,35.809C123.387,35.967 123.545,36.102 123.752,36.212C123.959,36.322 124.201,36.423 124.479,36.515C124.756,36.608 125.062,36.709 125.397,36.821C125.81,36.958 126.179,37.125 126.506,37.321C126.832,37.517 127.089,37.768 127.278,38.075C127.467,38.382 127.562,38.777 127.562,39.261C127.562,39.674 127.453,40.062 127.236,40.425C127.019,40.788 126.698,41.082 126.275,41.308C125.852,41.534 125.322,41.648 124.685,41.648Z" style="fill:white;fill-rule:nonzero;"/>
                <path d="M131.671,41.648C131.092,41.648 130.579,41.516 130.132,41.254C129.686,40.991 129.336,40.624 129.082,40.151C128.828,39.678 128.701,39.128 128.701,38.5C128.701,37.863 128.827,37.307 129.077,36.831C129.328,36.356 129.678,35.985 130.127,35.718C130.576,35.451 131.097,35.318 131.689,35.318C132.282,35.318 132.791,35.449 133.216,35.711C133.64,35.974 133.967,36.322 134.196,36.758C134.426,37.193 134.54,37.675 134.54,38.202C134.54,38.282 134.54,38.368 134.539,38.46C134.538,38.552 134.533,38.653 134.524,38.763L129.583,38.763L129.583,37.917L133.345,37.917C133.323,37.415 133.156,37.022 132.844,36.738C132.531,36.455 132.141,36.313 131.673,36.313C131.352,36.313 131.055,36.386 130.782,36.532C130.509,36.679 130.29,36.894 130.125,37.179C129.96,37.464 129.877,37.822 129.877,38.253L129.877,38.593C129.877,39.038 129.959,39.414 130.123,39.72C130.287,40.026 130.505,40.257 130.777,40.414C131.048,40.57 131.345,40.648 131.667,40.648C132.053,40.648 132.37,40.564 132.618,40.396C132.867,40.229 133.051,40.001 133.169,39.713L134.37,39.713C134.265,40.081 134.089,40.41 133.842,40.702C133.595,40.993 133.29,41.224 132.925,41.393C132.561,41.563 132.143,41.648 131.671,41.648Z" style="fill:white;fill-rule:nonzero;"/>
                <rect x="135.881" y="32.864" width="1.2" height="8.64" style="fill:white;fill-rule:nonzero;"/>
                <path d="M141.458,41.648C140.879,41.648 140.366,41.516 139.919,41.254C139.473,40.991 139.122,40.624 138.869,40.151C138.615,39.678 138.488,39.128 138.488,38.5C138.488,37.863 138.613,37.307 138.864,36.831C139.114,36.356 139.464,35.985 139.913,35.718C140.363,35.451 140.883,35.318 141.475,35.318C142.069,35.318 142.578,35.449 143.002,35.711C143.427,35.974 143.754,36.322 143.983,36.758C144.212,37.193 144.327,37.675 144.327,38.202C144.327,38.282 144.327,38.368 144.326,38.46C144.325,38.552 144.32,38.653 144.311,38.763L139.37,38.763L139.37,37.917L143.132,37.917C143.11,37.415 142.943,37.022 142.631,36.738C142.318,36.455 141.928,36.313 141.46,36.313C141.139,36.313 140.842,36.386 140.568,36.532C140.295,36.679 140.076,36.894 139.911,37.179C139.747,37.464 139.664,37.822 139.664,38.253L139.664,38.593C139.664,39.038 139.746,39.414 139.91,39.72C140.074,40.026 140.292,40.257 140.563,40.414C140.835,40.57 141.132,40.648 141.454,40.648C141.839,40.648 142.157,40.564 142.405,40.396C142.654,40.229 142.837,40.001 142.956,39.713L144.157,39.713C144.052,40.081 143.876,40.41 143.629,40.702C143.382,40.993 143.076,41.224 142.712,41.393C142.348,41.563 141.93,41.648 141.458,41.648Z" style="fill:white;fill-rule:nonzero;"/>
                <path d="M148.462,41.648C147.88,41.648 147.36,41.514 146.902,41.248C146.444,40.982 146.085,40.611 145.825,40.137C145.564,39.662 145.434,39.114 145.434,38.491C145.434,37.858 145.564,37.305 145.825,36.831C146.085,36.357 146.444,35.986 146.902,35.719C147.36,35.451 147.88,35.318 148.464,35.318C149.197,35.318 149.81,35.509 150.305,35.891C150.8,36.273 151.114,36.79 151.249,37.442L150.003,37.442C149.924,37.096 149.742,36.827 149.457,36.634C149.172,36.441 148.836,36.345 148.45,36.345C148.126,36.345 147.828,36.426 147.556,36.588C147.285,36.751 147.067,36.991 146.905,37.308C146.742,37.626 146.66,38.017 146.66,38.483C146.66,38.828 146.708,39.134 146.802,39.402C146.897,39.67 147.026,39.895 147.189,40.078C147.352,40.26 147.543,40.398 147.76,40.491C147.978,40.584 148.208,40.63 148.45,40.63C148.711,40.63 148.947,40.587 149.159,40.5C149.371,40.414 149.552,40.288 149.7,40.121C149.849,39.955 149.95,39.756 150.003,39.523L151.249,39.523C151.116,40.16 150.801,40.673 150.304,41.063C149.806,41.453 149.193,41.648 148.462,41.648Z" style="fill:white;fill-rule:nonzero;"/>
                <path d="M154.977,41.504C154.598,41.504 154.268,41.444 153.987,41.326C153.706,41.207 153.49,41.007 153.339,40.727C153.188,40.446 153.112,40.066 153.112,39.587L153.112,36.47L152.067,36.47L152.067,35.462L153.112,35.462L153.26,33.938L154.312,33.938L154.312,35.462L156.021,35.462L156.021,36.47L154.312,36.47L154.312,39.591C154.312,39.935 154.383,40.169 154.525,40.293C154.667,40.417 154.915,40.478 155.269,40.478L155.962,40.478L155.962,41.504L154.977,41.504Z" style="fill:white;fill-rule:nonzero;"/>
                <path d="M159.915,41.648C159.336,41.648 158.823,41.516 158.376,41.254C157.93,40.991 157.579,40.624 157.326,40.151C157.072,39.678 156.945,39.128 156.945,38.5C156.945,37.863 157.07,37.307 157.321,36.831C157.571,36.356 157.921,35.985 158.37,35.718C158.82,35.451 159.34,35.318 159.932,35.318C160.526,35.318 161.035,35.449 161.459,35.711C161.884,35.974 162.211,36.322 162.44,36.758C162.669,37.193 162.784,37.675 162.784,38.202C162.784,38.282 162.784,38.368 162.783,38.46C162.782,38.552 162.777,38.653 162.768,38.763L157.827,38.763L157.827,37.917L161.589,37.917C161.567,37.415 161.4,37.022 161.088,36.738C160.775,36.455 160.385,36.313 159.917,36.313C159.596,36.313 159.299,36.386 159.026,36.532C158.752,36.679 158.533,36.894 158.369,37.179C158.204,37.464 158.121,37.822 158.121,38.253L158.121,38.593C158.121,39.038 158.203,39.414 158.367,39.72C158.531,40.026 158.749,40.257 159.02,40.414C159.292,40.57 159.589,40.648 159.911,40.648C160.296,40.648 160.614,40.564 160.862,40.396C161.111,40.229 161.295,40.001 161.413,39.713L162.614,39.713C162.509,40.081 162.333,40.41 162.086,40.702C161.839,40.993 161.533,41.224 161.169,41.393C160.805,41.563 160.387,41.648 159.915,41.648Z" style="fill:white;fill-rule:nonzero;"/>
                <path d="M166.804,41.648C166.231,41.648 165.725,41.51 165.285,41.235C164.846,40.96 164.504,40.583 164.259,40.104C164.014,39.626 163.891,39.083 163.891,38.476C163.891,37.865 164.014,37.322 164.26,36.847C164.506,36.372 164.85,35.998 165.294,35.726C165.737,35.454 166.248,35.318 166.825,35.318C167.297,35.318 167.713,35.411 168.072,35.599C168.431,35.786 168.711,36.049 168.911,36.388L168.911,32.864L170.111,32.864L170.111,41.504L169.034,41.504L168.914,40.563C168.789,40.751 168.63,40.928 168.438,41.093C168.245,41.258 168.015,41.392 167.745,41.494C167.476,41.596 167.162,41.648 166.804,41.648ZM167.004,40.604C167.379,40.604 167.709,40.515 167.995,40.338C168.28,40.161 168.503,39.913 168.662,39.594C168.82,39.276 168.9,38.905 168.9,38.482C168.9,38.057 168.82,37.686 168.662,37.368C168.503,37.05 168.28,36.803 167.994,36.626C167.709,36.449 167.378,36.361 167.003,36.361C166.64,36.361 166.315,36.45 166.029,36.626C165.742,36.803 165.518,37.05 165.358,37.368C165.197,37.686 165.117,38.057 165.117,38.48C165.117,38.904 165.197,39.275 165.358,39.594C165.518,39.912 165.742,40.16 166.028,40.338C166.315,40.515 166.64,40.604 167.004,40.604Z" style="fill:white;fill-rule:nonzero;"/>
            </g>
            <g transform="matrix(0.338022,0,0,0.321982,19.5753,92.4181)">
                <path d="M61.519,41.504L61.519,32.864L62.719,32.864L62.719,36.442C62.919,36.092 63.197,35.817 63.551,35.617C63.905,35.417 64.3,35.318 64.735,35.318C65.211,35.318 65.621,35.414 65.964,35.607C66.307,35.8 66.571,36.091 66.754,36.481C66.938,36.87 67.029,37.358 67.029,37.944L67.029,41.504L65.841,41.504L65.841,38.066C65.841,37.499 65.721,37.069 65.482,36.777C65.242,36.484 64.887,36.338 64.419,36.338C64.101,36.338 63.813,36.415 63.554,36.569C63.295,36.723 63.091,36.945 62.942,37.235C62.793,37.525 62.719,37.88 62.719,38.301L62.719,41.504L61.519,41.504Z" style="fill:white;fill-rule:nonzero;"/>
                <path d="M71.331,41.648C70.763,41.648 70.253,41.516 69.801,41.253C69.348,40.991 68.992,40.621 68.732,40.145C68.472,39.669 68.342,39.116 68.342,38.486C68.342,37.848 68.474,37.291 68.737,36.816C69,36.341 69.36,35.973 69.815,35.711C70.271,35.449 70.782,35.318 71.35,35.318C71.925,35.318 72.439,35.449 72.89,35.711C73.342,35.973 73.697,36.341 73.957,36.815C74.217,37.288 74.347,37.845 74.347,38.485C74.347,39.118 74.216,39.671 73.953,40.147C73.689,40.622 73.331,40.991 72.876,41.253C72.422,41.516 71.907,41.648 71.331,41.648ZM71.335,40.616C71.658,40.616 71.955,40.537 72.225,40.378C72.494,40.219 72.711,39.981 72.875,39.662C73.039,39.344 73.121,38.951 73.121,38.482C73.121,38.007 73.041,37.612 72.88,37.297C72.72,36.982 72.505,36.745 72.236,36.587C71.967,36.428 71.673,36.349 71.352,36.349C71.038,36.349 70.745,36.428 70.472,36.587C70.199,36.745 69.981,36.982 69.816,37.298C69.651,37.613 69.569,38.008 69.569,38.483C69.569,38.951 69.651,39.345 69.815,39.663C69.979,39.981 70.194,40.219 70.461,40.378C70.728,40.537 71.019,40.616 71.335,40.616Z" style="fill:white;fill-rule:nonzero;"/>
                <path d="M75.758,41.504L75.758,35.462L76.836,35.462L76.938,36.601C77.076,36.329 77.253,36.098 77.468,35.908C77.683,35.718 77.938,35.572 78.233,35.47C78.528,35.368 78.859,35.318 79.228,35.318L79.228,36.579L78.805,36.579C78.553,36.579 78.315,36.61 78.09,36.673C77.866,36.736 77.669,36.839 77.498,36.982C77.328,37.124 77.195,37.319 77.1,37.565C77.005,37.812 76.958,38.119 76.958,38.487L76.958,41.504L75.758,41.504Z" style="fill:white;fill-rule:nonzero;"/>
                <path d="M80.428,41.504L80.428,35.462L81.627,35.462L81.627,41.504L80.428,41.504ZM81.029,34.315C80.799,34.315 80.61,34.242 80.461,34.097C80.312,33.952 80.238,33.77 80.238,33.551C80.238,33.33 80.312,33.15 80.461,33.012C80.61,32.873 80.799,32.804 81.029,32.804C81.253,32.804 81.441,32.873 81.593,33.012C81.746,33.15 81.822,33.33 81.822,33.551C81.822,33.77 81.746,33.952 81.593,34.097C81.441,34.242 81.253,34.315 81.029,34.315Z" style="fill:white;fill-rule:nonzero;"/>
                <path d="M82.941,41.504L82.941,40.528L86.198,36.458L82.995,36.458L82.995,35.462L87.569,35.462L87.569,36.437L84.301,40.507L87.629,40.507L87.629,41.504L82.941,41.504Z" style="fill:white;fill-rule:nonzero;"/>
                <path d="M91.72,41.648C91.152,41.648 90.642,41.516 90.19,41.253C89.737,40.991 89.381,40.621 89.121,40.145C88.861,39.669 88.731,39.116 88.731,38.486C88.731,37.848 88.863,37.291 89.126,36.816C89.389,36.341 89.749,35.973 90.204,35.711C90.66,35.449 91.171,35.318 91.739,35.318C92.315,35.318 92.828,35.449 93.279,35.711C93.731,35.973 94.087,36.341 94.346,36.815C94.606,37.288 94.736,37.845 94.736,38.485C94.736,39.118 94.605,39.671 94.342,40.147C94.078,40.622 93.72,40.991 93.265,41.253C92.811,41.516 92.296,41.648 91.72,41.648ZM91.724,40.616C92.048,40.616 92.344,40.537 92.614,40.378C92.883,40.219 93.1,39.981 93.264,39.662C93.428,39.344 93.51,38.951 93.51,38.482C93.51,38.007 93.43,37.612 93.269,37.297C93.109,36.982 92.894,36.745 92.625,36.587C92.356,36.428 92.062,36.349 91.741,36.349C91.427,36.349 91.134,36.428 90.861,36.587C90.588,36.745 90.37,36.982 90.205,37.298C90.04,37.613 89.958,38.008 89.958,38.483C89.958,38.951 90.04,39.345 90.204,39.663C90.368,39.981 90.583,40.219 90.85,40.378C91.117,40.537 91.408,40.616 91.724,40.616Z" style="fill:white;fill-rule:nonzero;"/>
                <path d="M96.147,41.504L96.147,35.462L97.22,35.462L97.297,36.49C97.485,36.128 97.755,35.842 98.107,35.632C98.459,35.422 98.866,35.318 99.328,35.318C99.807,35.318 100.218,35.414 100.562,35.606C100.906,35.798 101.172,36.087 101.361,36.474C101.551,36.861 101.645,37.345 101.645,37.927L101.645,41.504L100.447,41.504L100.447,38.048C100.447,37.487 100.324,37.061 100.076,36.772C99.829,36.483 99.471,36.338 99.003,36.338C98.689,36.338 98.407,36.414 98.157,36.566C97.907,36.717 97.71,36.936 97.565,37.222C97.42,37.508 97.347,37.86 97.347,38.276L97.347,41.504L96.147,41.504Z" style="fill:white;fill-rule:nonzero;"/>
                <path d="M105.676,41.504C105.297,41.504 104.967,41.444 104.686,41.326C104.405,41.207 104.189,41.007 104.038,40.727C103.887,40.446 103.812,40.066 103.812,39.587L103.812,36.47L102.766,36.47L102.766,35.462L103.812,35.462L103.959,33.938L105.011,33.938L105.011,35.462L106.72,35.462L106.72,36.47L105.012,36.47L105.012,39.591C105.012,39.935 105.083,40.169 105.224,40.293C105.366,40.417 105.614,40.478 105.969,40.478L106.662,40.478L106.662,41.504L105.676,41.504Z" style="fill:white;fill-rule:nonzero;"/>
                <path d="M110.043,41.648C109.548,41.648 109.138,41.563 108.811,41.394C108.484,41.226 108.241,41 108.081,40.717C107.921,40.434 107.842,40.127 107.842,39.795C107.842,39.398 107.944,39.058 108.149,38.776C108.353,38.494 108.649,38.277 109.034,38.125C109.42,37.973 109.883,37.897 110.423,37.897L111.988,37.897C111.988,37.544 111.937,37.25 111.834,37.017C111.732,36.784 111.578,36.609 111.373,36.491C111.167,36.374 110.91,36.315 110.6,36.315C110.241,36.315 109.933,36.402 109.674,36.575C109.415,36.749 109.256,37.004 109.196,37.342L107.994,37.342C108.041,36.913 108.186,36.548 108.43,36.249C108.673,35.949 108.986,35.719 109.369,35.558C109.752,35.398 110.163,35.318 110.602,35.318C111.163,35.318 111.636,35.417 112.02,35.617C112.405,35.816 112.695,36.098 112.892,36.461C113.089,36.824 113.188,37.256 113.188,37.756L113.188,41.504L112.142,41.504L112.045,40.479C111.963,40.643 111.861,40.796 111.737,40.939C111.614,41.081 111.47,41.204 111.307,41.309C111.144,41.414 110.957,41.497 110.748,41.557C110.538,41.617 110.303,41.648 110.043,41.648ZM110.269,40.67C110.528,40.67 110.761,40.618 110.968,40.514C111.175,40.41 111.352,40.269 111.5,40.089C111.648,39.91 111.761,39.707 111.839,39.481C111.918,39.256 111.96,39.02 111.968,38.775L111.968,38.743L110.539,38.743C110.196,38.743 109.918,38.785 109.705,38.868C109.492,38.952 109.338,39.067 109.244,39.213C109.15,39.36 109.103,39.528 109.103,39.718C109.103,39.913 109.148,40.082 109.239,40.225C109.33,40.368 109.463,40.478 109.638,40.555C109.813,40.631 110.024,40.67 110.269,40.67Z" style="fill:white;fill-rule:nonzero;"/>
                <rect x="114.734" y="32.864" width="1.2" height="8.64" style="fill:white;fill-rule:nonzero;"/>
                <path d="M118.05,41.564C117.821,41.564 117.632,41.49 117.483,41.342C117.334,41.195 117.259,41.015 117.259,40.802C117.259,40.587 117.334,40.405 117.483,40.258C117.632,40.11 117.821,40.037 118.05,40.037C118.281,40.037 118.469,40.11 118.614,40.258C118.759,40.405 118.831,40.587 118.831,40.802C118.831,41.015 118.759,41.195 118.614,41.342C118.469,41.49 118.281,41.564 118.05,41.564Z" style="fill:white;fill-rule:nonzero;"/>
                <path d="M122.496,41.648C121.983,41.648 121.534,41.563 121.149,41.393C120.764,41.224 120.461,40.987 120.238,40.683C120.015,40.379 119.88,40.024 119.832,39.62L121.047,39.62C121.088,39.811 121.168,39.987 121.286,40.147C121.405,40.308 121.565,40.435 121.767,40.531C121.97,40.626 122.213,40.674 122.497,40.674C122.76,40.674 122.976,40.636 123.145,40.559C123.314,40.483 123.441,40.379 123.524,40.25C123.608,40.12 123.65,39.979 123.65,39.826C123.65,39.604 123.595,39.434 123.485,39.317C123.375,39.199 123.214,39.106 123.002,39.038C122.791,38.97 122.536,38.908 122.237,38.852C121.963,38.8 121.696,38.733 121.435,38.65C121.175,38.568 120.942,38.463 120.736,38.334C120.53,38.205 120.367,38.042 120.247,37.845C120.126,37.648 120.066,37.408 120.066,37.124C120.066,36.777 120.157,36.466 120.341,36.193C120.524,35.92 120.785,35.706 121.126,35.551C121.466,35.395 121.87,35.318 122.338,35.318C123.009,35.318 123.549,35.476 123.958,35.793C124.368,36.11 124.607,36.56 124.676,37.144L123.515,37.144C123.478,36.877 123.357,36.669 123.151,36.518C122.946,36.368 122.671,36.293 122.327,36.293C121.978,36.293 121.713,36.362 121.531,36.498C121.349,36.635 121.258,36.814 121.258,37.036C121.258,37.181 121.31,37.31 121.414,37.422C121.517,37.535 121.672,37.63 121.877,37.708C122.083,37.786 122.334,37.855 122.63,37.914C123.051,37.994 123.429,38.094 123.764,38.213C124.098,38.332 124.367,38.508 124.568,38.741C124.769,38.975 124.869,39.308 124.867,39.74C124.873,40.119 124.778,40.452 124.582,40.739C124.386,41.026 124.112,41.249 123.758,41.409C123.404,41.568 122.983,41.648 122.496,41.648Z" style="fill:white;fill-rule:nonzero;"/>
                <path d="M127.677,41.504L125.41,35.462L126.671,35.462L128.391,40.357L130.12,35.462L131.357,35.462L129.092,41.504L127.677,41.504Z" style="fill:white;fill-rule:nonzero;"/>
                <path d="M134.642,44.288C134.088,44.288 133.599,44.218 133.176,44.078C132.754,43.938 132.425,43.724 132.192,43.438C131.958,43.151 131.841,42.797 131.841,42.374C131.841,42.161 131.89,41.945 131.987,41.725C132.084,41.505 132.241,41.294 132.457,41.093C132.673,40.892 132.963,40.714 133.328,40.559L134,41.09C133.596,41.248 133.324,41.433 133.183,41.645C133.043,41.857 132.973,42.061 132.973,42.257C132.973,42.496 133.045,42.696 133.189,42.856C133.333,43.016 133.531,43.136 133.783,43.216C134.035,43.296 134.32,43.336 134.639,43.336C134.954,43.336 135.226,43.292 135.456,43.205C135.686,43.117 135.865,42.994 135.993,42.836C136.12,42.677 136.184,42.489 136.184,42.273C136.184,42.014 136.089,41.799 135.899,41.628C135.71,41.457 135.344,41.356 134.801,41.324C134.346,41.292 133.959,41.247 133.64,41.189C133.322,41.132 133.054,41.064 132.836,40.986C132.618,40.908 132.435,40.82 132.287,40.721C132.139,40.623 132.01,40.522 131.901,40.418L131.901,40.142L133.108,38.913L134.072,39.243L132.77,40.457L133.023,39.918C133.109,39.979 133.193,40.035 133.275,40.085C133.357,40.135 133.465,40.179 133.599,40.218C133.734,40.257 133.917,40.293 134.148,40.326C134.379,40.359 134.684,40.391 135.062,40.422C135.603,40.464 136.04,40.561 136.374,40.712C136.708,40.863 136.951,41.067 137.104,41.323C137.256,41.578 137.332,41.883 137.332,42.237C137.332,42.583 137.237,42.912 137.047,43.224C136.856,43.536 136.563,43.791 136.167,43.99C135.771,44.188 135.262,44.288 134.642,44.288ZM134.636,39.643C134.13,39.643 133.699,39.547 133.342,39.355C132.986,39.162 132.714,38.903 132.526,38.575C132.338,38.248 132.244,37.883 132.244,37.48C132.244,37.077 132.339,36.714 132.527,36.39C132.716,36.066 132.988,35.806 133.345,35.611C133.702,35.415 134.132,35.318 134.636,35.318C135.145,35.318 135.577,35.415 135.933,35.611C136.288,35.806 136.559,36.066 136.746,36.39C136.933,36.714 137.026,37.077 137.026,37.48C137.026,37.883 136.933,38.248 136.746,38.575C136.559,38.903 136.288,39.162 135.933,39.355C135.577,39.547 135.145,39.643 134.636,39.643ZM134.636,38.687C135.029,38.687 135.341,38.584 135.573,38.38C135.806,38.175 135.922,37.876 135.922,37.482C135.922,37.094 135.806,36.797 135.573,36.593C135.341,36.39 135.029,36.288 134.636,36.288C134.248,36.288 133.935,36.39 133.696,36.593C133.456,36.797 133.337,37.094 133.337,37.482C133.337,37.876 133.455,38.175 133.693,38.38C133.931,38.584 134.245,38.687 134.636,38.687ZM135.625,36.404L135.336,35.462L137.815,35.462L137.815,36.281L135.625,36.404Z" style="fill:white;fill-rule:nonzero;"/>
            </g>
            <g transform="matrix(0.23635,0,0,0.225134,76.9721,93.9666)">
                <path d="M12,10.939L17.47,5.47C17.762,5.177 18.238,5.177 18.53,5.47C18.823,5.762 18.823,6.238 18.53,6.53L13.061,12L18.53,17.47C18.823,17.762 18.823,18.238 18.53,18.53C18.238,18.823 17.762,18.823 17.47,18.53L12,13.061L6.53,18.53C6.238,18.823 5.762,18.823 5.47,18.53C5.177,18.238 5.177,17.762 5.47,17.47L10.939,12L5.47,6.53C5.177,6.238 5.177,5.762 5.47,5.47C5.762,5.177 6.238,5.177 6.53,5.47L12,10.939Z" style="fill:white;"/>
            </g>
            <g transform="matrix(0.829204,0,0,0.916223,-1290.57,-2026.67)">
                <rect x="1556.41" y="2289.12" width="127.775" height="47.881" style="fill:none;"/>
            </g>
        </g>
    </g>
</svg>
