<?xml version="1.0" encoding="UTF-8" standalone="no"?>
<!DOCTYPE svg PUBLIC "-//W3C//DTD SVG 1.1//EN" "http://www.w3.org/Graphics/SVG/1.1/DTD/svg11.dtd">
<svg width="100%" height="100%" viewBox="0 0 112 49" version="1.1" xmlns="http://www.w3.org/2000/svg" xmlns:xlink="http://www.w3.org/1999/xlink" xml:space="preserve" xmlns:serif="http://www.serif.com/" style="fill-rule:evenodd;clip-rule:evenodd;stroke-linecap:round;stroke-miterlimit:1.5;">
    <g transform="matrix(1,0,0,1,144.172,-199.19)">
        <g transform="matrix(1.04836,0,0,1.10058,-144.185,121.412)">
            <g transform="matrix(0.448355,0,0,0.42708,12.9182,67.8752)">
                <path d="M66.915,41.504L66.915,33.104L68.114,33.104L68.114,41.504L66.915,41.504ZM61.572,41.504L61.572,33.104L62.772,33.104L62.772,41.504L61.572,41.504ZM62.572,37.712L62.572,36.732L67.173,36.732L67.173,37.712L62.572,37.712Z" style="fill:rgb(162,162,155);fill-rule:nonzero;"/>
                <path d="M72.565,41.648C71.997,41.648 71.487,41.516 71.035,41.253C70.582,40.991 70.226,40.621 69.966,40.145C69.706,39.669 69.576,39.116 69.576,38.486C69.576,37.848 69.708,37.291 69.971,36.816C70.234,36.341 70.594,35.973 71.049,35.711C71.505,35.449 72.016,35.318 72.584,35.318C73.159,35.318 73.673,35.449 74.124,35.711C74.576,35.973 74.931,36.341 75.191,36.815C75.451,37.288 75.581,37.845 75.581,38.485C75.581,39.118 75.45,39.671 75.187,40.147C74.923,40.622 74.564,40.991 74.11,41.253C73.655,41.516 73.14,41.648 72.565,41.648ZM72.569,40.616C72.892,40.616 73.189,40.537 73.459,40.378C73.728,40.219 73.945,39.981 74.109,39.662C74.273,39.344 74.355,38.951 74.355,38.482C74.355,38.007 74.275,37.612 74.114,37.297C73.953,36.982 73.739,36.745 73.47,36.587C73.201,36.428 72.906,36.349 72.586,36.349C72.272,36.349 71.979,36.428 71.706,36.587C71.433,36.745 71.215,36.982 71.05,37.298C70.885,37.613 70.802,38.008 70.802,38.483C70.802,38.951 70.885,39.345 71.049,39.663C71.213,39.981 71.428,40.219 71.695,40.378C71.962,40.537 72.253,40.616 72.569,40.616Z" style="fill:rgb(162,162,155);fill-rule:nonzero;"/>
                <path d="M76.992,41.504L76.992,35.462L78.069,35.462L78.172,36.601C78.31,36.329 78.487,36.098 78.702,35.908C78.917,35.718 79.172,35.572 79.467,35.47C79.762,35.368 80.093,35.318 80.462,35.318L80.462,36.579L80.039,36.579C79.787,36.579 79.548,36.61 79.324,36.673C79.1,36.736 78.903,36.839 78.732,36.982C78.561,37.124 78.429,37.319 78.334,37.565C78.239,37.812 78.192,38.119 78.192,38.487L78.192,41.504L76.992,41.504Z" style="fill:rgb(162,162,155);fill-rule:nonzero;"/>
                <path d="M81.662,41.504L81.662,35.462L82.861,35.462L82.861,41.504L81.662,41.504ZM82.262,34.315C82.033,34.315 81.844,34.242 81.695,34.097C81.546,33.952 81.472,33.77 81.472,33.551C81.472,33.33 81.546,33.15 81.695,33.012C81.844,32.873 82.033,32.804 82.262,32.804C82.487,32.804 82.675,32.873 82.827,33.012C82.979,33.15 83.056,33.33 83.056,33.551C83.056,33.77 82.979,33.952 82.827,34.097C82.675,34.242 82.487,34.315 82.262,34.315Z" style="fill:rgb(162,162,155);fill-rule:nonzero;"/>
                <path d="M84.175,41.504L84.175,40.528L87.432,36.458L84.229,36.458L84.229,35.462L88.803,35.462L88.803,36.437L85.535,40.507L88.863,40.507L88.863,41.504L84.175,41.504Z" style="fill:rgb(162,162,155);fill-rule:nonzero;"/>
                <path d="M92.954,41.648C92.386,41.648 91.876,41.516 91.424,41.253C90.971,40.991 90.615,40.621 90.355,40.145C90.095,39.669 89.965,39.116 89.965,38.486C89.965,37.848 90.097,37.291 90.36,36.816C90.623,36.341 90.983,35.973 91.438,35.711C91.894,35.449 92.405,35.318 92.973,35.318C93.548,35.318 94.062,35.449 94.513,35.711C94.965,35.973 95.32,36.341 95.58,36.815C95.84,37.288 95.97,37.845 95.97,38.485C95.97,39.118 95.839,39.671 95.576,40.147C95.312,40.622 94.954,40.991 94.499,41.253C94.045,41.516 93.53,41.648 92.954,41.648ZM92.958,40.616C93.281,40.616 93.578,40.537 93.848,40.378C94.117,40.219 94.334,39.981 94.498,39.662C94.662,39.344 94.744,38.951 94.744,38.482C94.744,38.007 94.664,37.612 94.503,37.297C94.343,36.982 94.128,36.745 93.859,36.587C93.59,36.428 93.296,36.349 92.975,36.349C92.661,36.349 92.368,36.428 92.095,36.587C91.822,36.745 91.604,36.982 91.439,37.298C91.274,37.613 91.192,38.008 91.192,38.483C91.192,38.951 91.274,39.345 91.438,39.663C91.602,39.981 91.817,40.219 92.084,40.378C92.351,40.537 92.642,40.616 92.958,40.616Z" style="fill:rgb(162,162,155);fill-rule:nonzero;"/>
                <path d="M97.381,41.504L97.381,35.462L98.454,35.462L98.531,36.49C98.719,36.128 98.989,35.842 99.341,35.632C99.693,35.422 100.1,35.318 100.562,35.318C101.041,35.318 101.452,35.414 101.796,35.606C102.14,35.798 102.406,36.087 102.595,36.474C102.784,36.861 102.879,37.345 102.879,37.927L102.879,41.504L101.681,41.504L101.681,38.048C101.681,37.487 101.558,37.061 101.31,36.772C101.063,36.483 100.705,36.338 100.237,36.338C99.923,36.338 99.641,36.414 99.391,36.566C99.141,36.717 98.943,36.936 98.798,37.222C98.653,37.508 98.581,37.86 98.581,38.276L98.581,41.504L97.381,41.504Z" style="fill:rgb(162,162,155);fill-rule:nonzero;"/>
                <path d="M106.91,41.504C106.531,41.504 106.201,41.444 105.92,41.326C105.639,41.207 105.423,41.007 105.272,40.727C105.121,40.446 105.046,40.066 105.046,39.587L105.046,36.47L104,36.47L104,35.462L105.046,35.462L105.193,33.938L106.245,33.938L106.245,35.462L107.954,35.462L107.954,36.47L106.246,36.47L106.246,39.591C106.246,39.935 106.317,40.169 106.458,40.293C106.6,40.417 106.848,40.478 107.203,40.478L107.896,40.478L107.896,41.504L106.91,41.504Z" style="fill:rgb(162,162,155);fill-rule:nonzero;"/>
                <path d="M111.277,41.648C110.782,41.648 110.372,41.563 110.045,41.394C109.718,41.226 109.475,41 109.315,40.717C109.155,40.434 109.075,40.127 109.075,39.795C109.075,39.398 109.178,39.058 109.383,38.776C109.587,38.494 109.883,38.277 110.268,38.125C110.654,37.973 111.117,37.897 111.657,37.897L113.222,37.897C113.222,37.544 113.17,37.25 113.068,37.017C112.966,36.784 112.812,36.609 112.607,36.491C112.401,36.374 112.144,36.315 111.834,36.315C111.475,36.315 111.167,36.402 110.908,36.575C110.649,36.749 110.49,37.004 110.43,37.342L109.228,37.342C109.275,36.913 109.42,36.548 109.664,36.249C109.907,35.949 110.22,35.719 110.603,35.558C110.986,35.398 111.397,35.318 111.836,35.318C112.397,35.318 112.87,35.417 113.254,35.617C113.639,35.816 113.929,36.098 114.126,36.461C114.323,36.824 114.421,37.256 114.421,37.756L114.421,41.504L113.376,41.504L113.278,40.479C113.197,40.643 113.095,40.796 112.971,40.939C112.848,41.081 112.704,41.204 112.541,41.309C112.378,41.414 112.191,41.497 111.982,41.557C111.772,41.617 111.537,41.648 111.277,41.648ZM111.503,40.67C111.762,40.67 111.995,40.618 112.202,40.514C112.409,40.41 112.586,40.269 112.734,40.089C112.882,39.91 112.995,39.707 113.073,39.481C113.152,39.256 113.194,39.02 113.202,38.775L113.202,38.743L111.773,38.743C111.43,38.743 111.152,38.785 110.939,38.868C110.726,38.952 110.572,39.067 110.478,39.213C110.384,39.36 110.337,39.528 110.337,39.718C110.337,39.913 110.382,40.082 110.473,40.225C110.564,40.368 110.697,40.478 110.872,40.555C111.047,40.631 111.257,40.67 111.503,40.67Z" style="fill:rgb(162,162,155);fill-rule:nonzero;"/>
                <rect x="115.968" y="32.864" width="1.2" height="8.64" style="fill:rgb(162,162,155);fill-rule:nonzero;"/>
            </g>
            <g transform="matrix(0.829204,0,0,0.916223,-1290.56,-2026.67)">
                <rect x="1556.41" y="2289.12" width="127.775" height="47.881" style="fill:none;"/>
            </g>
            <g transform="matrix(1,0,0,1,0.953875,0.908611)">
                <g transform="matrix(0.934382,0,0,0.885156,1.84325,18.8121)">
                    <path d="M81.244,82.34C82.012,82.34 82.748,82.647 83.29,83.192C83.833,83.738 84.138,84.478 84.138,85.25C84.138,88.789 84.138,94.298 84.138,94.298L58.456,94.298C57.689,94.298 56.953,93.992 56.41,93.446C55.867,92.9 55.563,92.16 55.563,91.388C55.563,87.849 55.563,82.34 55.563,82.34L81.244,82.34Z" style="fill:none;stroke:rgb(66,73,8);stroke-width:0.31px;"/>
                </g>
                <g transform="matrix(-0.934382,0,0,0.885156,102.224,18.8121)">
                    <path d="M81.244,82.34C82.012,82.34 82.748,82.647 83.29,83.192C83.833,83.738 84.138,84.478 84.138,85.25C84.138,88.789 84.138,94.298 84.138,94.298L58.456,94.298C57.689,94.298 56.953,93.992 56.41,93.446C55.867,92.9 55.563,92.16 55.563,91.388C55.563,87.849 55.563,82.34 55.563,82.34L81.244,82.34Z" style="fill:none;stroke:rgb(66,73,8);stroke-width:0.31px;"/>
                </g>
                <g transform="matrix(1,0,0,1,-4.91652,-0.916734)">
                    <g transform="matrix(0.203346,0,0,0.193697,62.8049,95.5806)">
                        <path d="M11.35,3.836C11.285,4.046 11.25,4.269 11.25,4.5C11.25,4.914 11.586,5.25 12,5.25L16.5,5.25C16.911,5.25 17.25,4.911 17.25,4.5C17.25,4.275 17.216,4.051 17.15,3.836M11.35,3.836C11.641,2.896 12.516,2.25 13.5,2.25L15,2.25C16.012,2.25 16.867,2.918 17.15,3.836M11.35,3.836C10.974,3.859 10.6,3.886 10.226,3.916C9.095,4.01 8.25,4.973 8.25,6.108L8.25,8.25M17.15,3.836C17.526,3.859 17.9,3.886 18.274,3.916C19.405,4.01 20.25,4.973 20.25,6.108L20.25,16.5C20.25,17.734 19.234,18.75 18,18.75L15.75,18.75M8.25,8.25L4.875,8.25C4.254,8.25 3.75,8.754 3.75,9.375L3.75,20.625C3.75,21.246 4.254,21.75 4.875,21.75L14.625,21.75C15.246,21.75 15.75,21.246 15.75,20.625L15.75,18.75M8.25,8.25L14.625,8.25C15.246,8.25 15.75,8.754 15.75,9.375L15.75,18.75M7.5,15.75L9,17.25L12,13.5" style="fill:none;fill-rule:nonzero;stroke:rgb(235,253,1);stroke-width:1.5px;stroke-linejoin:round;stroke-miterlimit:4;"/>
                    </g>
                    <g transform="matrix(0.706585,0,0,0.673055,-16.2689,76.1243)">
                        <g transform="matrix(6.16414,0,0,6.16414,121.271,34.5023)">
                            <path d="M0.073,-0L0.073,-0.7L0.312,-0.7C0.368,-0.7 0.414,-0.691 0.45,-0.672C0.486,-0.654 0.512,-0.629 0.53,-0.597C0.547,-0.566 0.556,-0.53 0.556,-0.49C0.556,-0.452 0.547,-0.417 0.53,-0.385C0.513,-0.354 0.487,-0.328 0.451,-0.309C0.415,-0.29 0.369,-0.281 0.312,-0.281L0.173,-0.281L0.173,-0L0.073,-0ZM0.173,-0.364L0.308,-0.364C0.36,-0.364 0.398,-0.375 0.42,-0.398C0.442,-0.421 0.454,-0.452 0.454,-0.49C0.454,-0.53 0.442,-0.562 0.42,-0.584C0.398,-0.606 0.36,-0.618 0.308,-0.618L0.173,-0.618L0.173,-0.364Z" style="fill:white;fill-rule:nonzero;"/>
                        </g>
                        <g transform="matrix(6.16414,0,0,6.16414,124.772,34.5023)">
                            <path d="M0.235,0.012C0.194,0.012 0.159,0.005 0.132,-0.009C0.105,-0.023 0.085,-0.042 0.071,-0.066C0.058,-0.089 0.051,-0.115 0.051,-0.142C0.051,-0.175 0.06,-0.204 0.077,-0.227C0.094,-0.251 0.119,-0.269 0.151,-0.282C0.183,-0.294 0.221,-0.301 0.267,-0.301L0.397,-0.301C0.397,-0.33 0.393,-0.354 0.384,-0.374C0.376,-0.393 0.363,-0.408 0.346,-0.418C0.328,-0.427 0.307,-0.432 0.281,-0.432C0.251,-0.432 0.226,-0.425 0.204,-0.411C0.182,-0.396 0.169,-0.375 0.164,-0.347L0.064,-0.347C0.068,-0.383 0.08,-0.413 0.1,-0.438C0.121,-0.463 0.147,-0.482 0.179,-0.495C0.211,-0.509 0.245,-0.516 0.281,-0.516C0.328,-0.516 0.368,-0.507 0.4,-0.491C0.432,-0.474 0.456,-0.45 0.472,-0.42C0.489,-0.39 0.497,-0.354 0.497,-0.312L0.497,-0L0.41,-0L0.402,-0.085C0.395,-0.072 0.386,-0.059 0.376,-0.047C0.366,-0.035 0.354,-0.025 0.34,-0.016C0.327,-0.007 0.311,-0.001 0.294,0.004C0.276,0.009 0.256,0.012 0.235,0.012ZM0.254,-0.069C0.275,-0.069 0.295,-0.074 0.312,-0.082C0.329,-0.091 0.344,-0.103 0.356,-0.118C0.369,-0.133 0.378,-0.15 0.384,-0.169C0.391,-0.187 0.395,-0.207 0.395,-0.227L0.395,-0.23L0.276,-0.23C0.248,-0.23 0.224,-0.227 0.207,-0.22C0.189,-0.213 0.176,-0.203 0.168,-0.191C0.16,-0.179 0.156,-0.165 0.156,-0.149C0.156,-0.133 0.16,-0.118 0.168,-0.107C0.175,-0.095 0.186,-0.085 0.201,-0.079C0.216,-0.073 0.233,-0.069 0.254,-0.069Z" style="fill:white;fill-rule:nonzero;"/>
                        </g>
                        <g transform="matrix(6.16414,0,0,6.16414,128.207,34.5023)">
                            <path d="M0.263,0.012C0.221,0.012 0.183,0.005 0.151,-0.009C0.119,-0.023 0.094,-0.043 0.075,-0.068C0.057,-0.094 0.045,-0.123 0.041,-0.157L0.143,-0.157C0.146,-0.141 0.153,-0.126 0.162,-0.113C0.172,-0.1 0.186,-0.089 0.203,-0.081C0.219,-0.073 0.24,-0.069 0.263,-0.069C0.285,-0.069 0.303,-0.072 0.317,-0.079C0.331,-0.085 0.342,-0.094 0.349,-0.104C0.356,-0.115 0.359,-0.127 0.359,-0.14C0.359,-0.158 0.355,-0.172 0.346,-0.182C0.337,-0.192 0.323,-0.2 0.305,-0.205C0.288,-0.211 0.267,-0.216 0.242,-0.221C0.219,-0.225 0.197,-0.231 0.175,-0.238C0.153,-0.245 0.134,-0.253 0.117,-0.264C0.099,-0.275 0.086,-0.288 0.076,-0.305C0.066,-0.321 0.061,-0.341 0.061,-0.365C0.061,-0.394 0.068,-0.42 0.084,-0.443C0.099,-0.465 0.121,-0.483 0.149,-0.496C0.177,-0.509 0.211,-0.516 0.25,-0.516C0.306,-0.516 0.351,-0.502 0.385,-0.476C0.419,-0.449 0.439,-0.412 0.445,-0.363L0.348,-0.363C0.345,-0.386 0.335,-0.403 0.318,-0.415C0.301,-0.428 0.278,-0.434 0.249,-0.434C0.22,-0.434 0.198,-0.429 0.183,-0.417C0.168,-0.406 0.16,-0.391 0.16,-0.372C0.16,-0.36 0.164,-0.349 0.173,-0.34C0.182,-0.331 0.195,-0.323 0.212,-0.316C0.229,-0.31 0.25,-0.304 0.274,-0.299C0.31,-0.292 0.341,-0.284 0.369,-0.274C0.397,-0.264 0.419,-0.25 0.436,-0.23C0.453,-0.211 0.461,-0.183 0.461,-0.147C0.461,-0.115 0.453,-0.088 0.437,-0.064C0.421,-0.04 0.398,-0.021 0.368,-0.008C0.339,0.005 0.304,0.012 0.263,0.012Z" style="fill:white;fill-rule:nonzero;"/>
                        </g>
                        <g transform="matrix(6.16414,0,0,6.16414,131.224,34.5023)">
                            <path d="M0.276,-0C0.244,-0 0.216,-0.005 0.193,-0.015C0.17,-0.025 0.152,-0.041 0.139,-0.065C0.126,-0.088 0.12,-0.12 0.12,-0.16L0.12,-0.419L0.033,-0.419L0.033,-0.504L0.12,-0.504L0.132,-0.63L0.22,-0.63L0.22,-0.504L0.363,-0.504L0.363,-0.419L0.22,-0.419L0.22,-0.159C0.22,-0.131 0.226,-0.111 0.238,-0.101C0.25,-0.091 0.27,-0.085 0.3,-0.085L0.358,-0.085L0.358,-0L0.276,-0Z" style="fill:white;fill-rule:nonzero;"/>
                        </g>
                        <g transform="matrix(6.16414,0,0,6.16414,133.632,34.5023)">
                            <path d="M0.296,0.012C0.248,0.012 0.205,0.001 0.168,-0.021C0.131,-0.043 0.102,-0.073 0.081,-0.113C0.06,-0.152 0.049,-0.198 0.049,-0.25C0.049,-0.303 0.059,-0.35 0.08,-0.389C0.101,-0.429 0.13,-0.46 0.168,-0.482C0.205,-0.504 0.249,-0.516 0.298,-0.516C0.347,-0.516 0.39,-0.505 0.425,-0.483C0.461,-0.461 0.488,-0.432 0.507,-0.395C0.526,-0.359 0.536,-0.319 0.536,-0.275C0.536,-0.268 0.535,-0.261 0.535,-0.254C0.535,-0.246 0.535,-0.238 0.534,-0.228L0.122,-0.228L0.122,-0.299L0.436,-0.299C0.434,-0.341 0.42,-0.373 0.394,-0.397C0.368,-0.421 0.336,-0.433 0.297,-0.433C0.27,-0.433 0.245,-0.426 0.222,-0.414C0.2,-0.402 0.181,-0.384 0.168,-0.36C0.154,-0.337 0.147,-0.307 0.147,-0.271L0.147,-0.243C0.147,-0.205 0.154,-0.174 0.167,-0.149C0.181,-0.123 0.199,-0.104 0.222,-0.091C0.245,-0.078 0.269,-0.071 0.296,-0.071C0.328,-0.071 0.355,-0.078 0.375,-0.092C0.396,-0.106 0.411,-0.125 0.421,-0.149L0.521,-0.149C0.513,-0.119 0.498,-0.091 0.477,-0.067C0.457,-0.043 0.431,-0.023 0.401,-0.009C0.371,0.005 0.336,0.012 0.296,0.012Z" style="fill:white;fill-rule:nonzero;"/>
                        </g>
                        <g transform="matrix(6.16414,0,0,6.16414,137.2,34.5023)">
                        </g>
                    </g>
                </g>
                <g transform="matrix(1,0,0,1,1.28961,-0.978127)">
                    <g transform="matrix(0.17884,0,0,0.170354,25.4551,95.5053)">
                        <path d="M3,16.5L3,18.75C3,19.984 4.016,21 5.25,21L18.75,21C19.984,21 21,19.984 21,18.75L21,16.5M7.5,7.5L12,3M12,3L16.5,7.5M12,3L12,16.5" style="fill:none;fill-rule:nonzero;stroke:rgb(235,253,1);stroke-width:1.5px;stroke-linejoin:round;stroke-miterlimit:4;"/>
                    </g>
                    <g transform="matrix(0.706585,0,0,0.673055,-54.5417,75.7816)">
                        <g transform="matrix(6.16414,0,0,6.16414,121.271,34.5023)">
                            <path d="M0.331,0.012C0.282,0.012 0.237,0.002 0.197,-0.018C0.157,-0.037 0.126,-0.067 0.102,-0.108C0.078,-0.148 0.066,-0.199 0.066,-0.262L0.066,-0.7L0.166,-0.7L0.166,-0.261C0.166,-0.219 0.173,-0.184 0.187,-0.157C0.201,-0.13 0.22,-0.11 0.246,-0.097C0.271,-0.085 0.3,-0.078 0.333,-0.078C0.367,-0.078 0.396,-0.085 0.421,-0.097C0.445,-0.11 0.464,-0.13 0.478,-0.157C0.492,-0.184 0.499,-0.219 0.499,-0.261L0.499,-0.7L0.599,-0.7L0.599,-0.262C0.599,-0.199 0.587,-0.148 0.563,-0.108C0.539,-0.067 0.506,-0.037 0.466,-0.018C0.426,0.002 0.38,0.012 0.331,0.012Z" style="fill:white;fill-rule:nonzero;"/>
                        </g>
                        <g transform="matrix(6.16414,0,0,6.16414,125.368,34.5023)">
                            <path d="M0.068,0.22L0.068,-0.504L0.158,-0.504L0.168,-0.426C0.179,-0.441 0.192,-0.456 0.208,-0.47C0.224,-0.484 0.243,-0.495 0.266,-0.503C0.288,-0.511 0.314,-0.516 0.344,-0.516C0.392,-0.516 0.434,-0.504 0.47,-0.481C0.507,-0.458 0.535,-0.427 0.555,-0.387C0.576,-0.347 0.586,-0.302 0.586,-0.251C0.586,-0.2 0.576,-0.155 0.555,-0.115C0.535,-0.076 0.506,-0.045 0.47,-0.022C0.433,0.001 0.391,0.012 0.343,0.012C0.303,0.012 0.269,0.004 0.239,-0.012C0.209,-0.027 0.185,-0.049 0.168,-0.077L0.168,0.22L0.068,0.22ZM0.327,-0.075C0.357,-0.075 0.385,-0.082 0.408,-0.097C0.432,-0.112 0.451,-0.132 0.464,-0.159C0.478,-0.185 0.485,-0.216 0.485,-0.252C0.485,-0.287 0.478,-0.318 0.464,-0.344C0.451,-0.371 0.432,-0.392 0.408,-0.406C0.385,-0.421 0.357,-0.429 0.327,-0.429C0.296,-0.429 0.268,-0.421 0.244,-0.406C0.22,-0.392 0.202,-0.371 0.189,-0.344C0.175,-0.318 0.169,-0.287 0.169,-0.252C0.169,-0.216 0.175,-0.185 0.189,-0.159C0.202,-0.132 0.22,-0.112 0.244,-0.097C0.268,-0.082 0.296,-0.075 0.327,-0.075Z" style="fill:white;fill-rule:nonzero;"/>
                        </g>
                        <g transform="matrix(6.16414,0,0,6.16414,129.284,34.5023)">
                            <rect x="0.068" y="-0.72" width="0.1" height="0.72" style="fill:white;fill-rule:nonzero;"/>
                        </g>
                        <g transform="matrix(6.16414,0,0,6.16414,130.743,34.5023)">
                            <path d="M0.298,0.012C0.251,0.012 0.208,0.001 0.17,-0.021C0.133,-0.043 0.103,-0.074 0.081,-0.113C0.06,-0.153 0.049,-0.199 0.049,-0.251C0.049,-0.305 0.06,-0.351 0.082,-0.391C0.104,-0.43 0.134,-0.461 0.172,-0.483C0.21,-0.505 0.252,-0.516 0.3,-0.516C0.348,-0.516 0.39,-0.505 0.428,-0.483C0.466,-0.461 0.495,-0.43 0.517,-0.391C0.539,-0.351 0.549,-0.305 0.549,-0.252C0.549,-0.199 0.538,-0.153 0.516,-0.113C0.495,-0.073 0.465,-0.043 0.427,-0.021C0.389,0.001 0.346,0.012 0.298,0.012ZM0.298,-0.074C0.325,-0.074 0.35,-0.081 0.372,-0.094C0.395,-0.107 0.413,-0.127 0.427,-0.153C0.44,-0.18 0.447,-0.213 0.447,-0.252C0.447,-0.291 0.44,-0.324 0.427,-0.351C0.414,-0.377 0.396,-0.397 0.373,-0.41C0.351,-0.423 0.326,-0.43 0.3,-0.43C0.274,-0.43 0.249,-0.423 0.226,-0.41C0.204,-0.397 0.185,-0.377 0.172,-0.35C0.158,-0.324 0.151,-0.291 0.151,-0.252C0.151,-0.213 0.158,-0.18 0.172,-0.153C0.185,-0.127 0.203,-0.107 0.226,-0.094C0.248,-0.081 0.272,-0.074 0.298,-0.074Z" style="fill:white;fill-rule:nonzero;"/>
                        </g>
                        <g transform="matrix(6.16414,0,0,6.16414,134.433,34.5023)">
                            <path d="M0.235,0.012C0.194,0.012 0.159,0.005 0.132,-0.009C0.105,-0.023 0.085,-0.042 0.071,-0.066C0.058,-0.089 0.051,-0.115 0.051,-0.142C0.051,-0.175 0.06,-0.204 0.077,-0.227C0.094,-0.251 0.119,-0.269 0.151,-0.282C0.183,-0.294 0.221,-0.301 0.267,-0.301L0.397,-0.301C0.397,-0.33 0.393,-0.354 0.384,-0.374C0.376,-0.393 0.363,-0.408 0.346,-0.418C0.328,-0.427 0.307,-0.432 0.281,-0.432C0.251,-0.432 0.226,-0.425 0.204,-0.411C0.182,-0.396 0.169,-0.375 0.164,-0.347L0.064,-0.347C0.068,-0.383 0.08,-0.413 0.1,-0.438C0.121,-0.463 0.147,-0.482 0.179,-0.495C0.211,-0.509 0.245,-0.516 0.281,-0.516C0.328,-0.516 0.368,-0.507 0.4,-0.491C0.432,-0.474 0.456,-0.45 0.472,-0.42C0.489,-0.39 0.497,-0.354 0.497,-0.312L0.497,-0L0.41,-0L0.402,-0.085C0.395,-0.072 0.386,-0.059 0.376,-0.047C0.366,-0.035 0.354,-0.025 0.34,-0.016C0.327,-0.007 0.311,-0.001 0.294,0.004C0.276,0.009 0.256,0.012 0.235,0.012ZM0.254,-0.069C0.275,-0.069 0.295,-0.074 0.312,-0.082C0.329,-0.091 0.344,-0.103 0.356,-0.118C0.369,-0.133 0.378,-0.15 0.384,-0.169C0.391,-0.187 0.395,-0.207 0.395,-0.227L0.395,-0.23L0.276,-0.23C0.248,-0.23 0.224,-0.227 0.207,-0.22C0.189,-0.213 0.176,-0.203 0.168,-0.191C0.16,-0.179 0.156,-0.165 0.156,-0.149C0.156,-0.133 0.16,-0.118 0.168,-0.107C0.175,-0.095 0.186,-0.085 0.201,-0.079C0.216,-0.073 0.233,-0.069 0.254,-0.069Z" style="fill:white;fill-rule:nonzero;"/>
                        </g>
                        <g transform="matrix(6.16414,0,0,6.16414,137.868,34.5023)">
                            <path d="M0.292,0.012C0.244,0.012 0.202,0.001 0.165,-0.022C0.129,-0.045 0.1,-0.077 0.08,-0.117C0.059,-0.156 0.049,-0.202 0.049,-0.252C0.049,-0.303 0.059,-0.348 0.08,-0.388C0.1,-0.428 0.129,-0.459 0.166,-0.481C0.203,-0.504 0.245,-0.516 0.293,-0.516C0.333,-0.516 0.367,-0.508 0.397,-0.492C0.427,-0.476 0.451,-0.455 0.467,-0.426L0.467,-0.72L0.567,-0.72L0.567,-0L0.478,-0L0.468,-0.078C0.457,-0.063 0.444,-0.048 0.428,-0.034C0.412,-0.02 0.393,-0.009 0.37,-0.001C0.348,0.008 0.322,0.012 0.292,0.012ZM0.308,-0.075C0.34,-0.075 0.367,-0.082 0.391,-0.097C0.415,-0.112 0.433,-0.133 0.447,-0.159C0.46,-0.186 0.466,-0.217 0.466,-0.252C0.466,-0.287 0.46,-0.318 0.447,-0.345C0.433,-0.371 0.415,-0.392 0.391,-0.406C0.367,-0.421 0.34,-0.429 0.308,-0.429C0.278,-0.429 0.251,-0.421 0.227,-0.406C0.203,-0.392 0.185,-0.371 0.171,-0.345C0.158,-0.318 0.151,-0.287 0.151,-0.252C0.151,-0.217 0.158,-0.186 0.171,-0.159C0.185,-0.133 0.203,-0.112 0.227,-0.097C0.251,-0.082 0.278,-0.075 0.308,-0.075Z" style="fill:white;fill-rule:nonzero;"/>
                        </g>
                        <g transform="matrix(6.16414,0,0,6.16414,141.786,34.5023)">
                        </g>
                    </g>
                </g>
            </g>
            <g transform="matrix(0.829204,0,0,0.916223,-1290.57,-2026.67)">
                <rect x="1556.41" y="2289.12" width="127.775" height="47.881" style="fill:none;"/>
            </g>
        </g>
    </g>
</svg>
