<?xml version="1.0" encoding="UTF-8" standalone="no"?>
<!DOCTYPE svg PUBLIC "-//W3C//DTD SVG 1.1//EN" "http://www.w3.org/Graphics/SVG/1.1/DTD/svg11.dtd">
<svg width="100%" height="100%" viewBox="0 0 347 66" version="1.1" xmlns="http://www.w3.org/2000/svg" xmlns:xlink="http://www.w3.org/1999/xlink" xml:space="preserve" xmlns:serif="http://www.serif.com/" style="fill-rule:evenodd;clip-rule:evenodd;stroke-linejoin:round;stroke-miterlimit:2;">
    <g transform="matrix(1,0,0,1,-4660.45,-1815.25)">
        <g transform="matrix(0.685292,0,0,0.685292,2687.87,2103.6)">
            <g transform="matrix(1.0322,0,0,1.0322,777.084,-1766.47)">
                <g transform="matrix(1,0,0,1,-2.94706,0)">
                    <path d="M2144.15,1376.8L2144.15,1317.29L2158.61,1317.29L2158.61,1364.05L2185.12,1364.05L2185.12,1376.8L2144.15,1376.8Z" style="fill:white;fill-rule:nonzero;"/>
                </g>
                <g transform="matrix(1,0,0,1,-1.47353,0)">
                    <path d="M2213.63,1377.65C2208.94,1377.65 2204.76,1376.63 2201.09,1374.6C2197.41,1372.58 2194.52,1369.8 2192.41,1366.29C2190.29,1362.77 2189.24,1358.74 2189.24,1354.19C2189.24,1349.65 2190.29,1345.62 2192.41,1342.11C2194.52,1338.59 2197.41,1335.82 2201.09,1333.79C2204.76,1331.76 2208.94,1330.75 2213.63,1330.75C2218.29,1330.75 2222.45,1331.76 2226.11,1333.79C2229.77,1335.82 2232.64,1338.59 2234.74,1342.11C2236.84,1345.62 2237.89,1349.65 2237.89,1354.19C2237.89,1358.74 2236.84,1362.77 2234.74,1366.29C2232.64,1369.8 2229.77,1372.58 2226.11,1374.6C2222.45,1376.63 2218.29,1377.65 2213.63,1377.65ZM2213.63,1365.95C2215.64,1365.95 2217.44,1365.44 2219.04,1364.41C2220.63,1363.39 2221.87,1361.99 2222.77,1360.22C2223.67,1358.44 2224.11,1356.43 2224.08,1354.19C2224.11,1351.9 2223.67,1349.86 2222.77,1348.09C2221.87,1346.32 2220.63,1344.92 2219.04,1343.91C2217.44,1342.9 2215.64,1342.4 2213.63,1342.4C2211.58,1342.4 2209.76,1342.91 2208.15,1343.93C2206.55,1344.95 2205.29,1346.35 2204.38,1348.12C2203.46,1349.9 2203.02,1351.92 2203.04,1354.19C2203.02,1356.43 2203.46,1358.44 2204.38,1360.22C2205.29,1361.99 2206.55,1363.39 2208.15,1364.41C2209.76,1365.44 2211.58,1365.95 2213.63,1365.95Z" style="fill:white;fill-rule:nonzero;"/>
                </g>
                <g transform="matrix(1,0,0,1,-1.47353,0)">
                    <path d="M2267.05,1396.35C2263.36,1396.35 2259.7,1395.81 2256.07,1394.74C2252.43,1393.66 2249.47,1392.27 2247.19,1390.55L2251.93,1381.02C2253.13,1381.84 2254.45,1382.55 2255.88,1383.15C2257.31,1383.75 2258.82,1384.21 2260.41,1384.53C2261.99,1384.85 2263.62,1385.01 2265.3,1385.01C2268.16,1385.01 2270.5,1384.59 2272.34,1383.75C2274.17,1382.91 2275.54,1381.63 2276.44,1379.9C2277.34,1378.18 2277.79,1376.01 2277.79,1373.39L2277.79,1365.83L2280.38,1366.28C2280,1368.13 2279.04,1369.83 2277.5,1371.36C2275.95,1372.89 2274.04,1374.12 2271.75,1375.04C2269.45,1375.96 2267.06,1376.42 2264.56,1376.42C2260.44,1376.42 2256.78,1375.48 2253.6,1373.58C2250.41,1371.68 2247.9,1369.06 2246.05,1365.7C2244.21,1362.35 2243.29,1358.44 2243.29,1354C2243.29,1349.46 2244.19,1345.44 2246.01,1341.96C2247.83,1338.48 2250.31,1335.73 2253.47,1333.74C2256.62,1331.74 2260.2,1330.75 2264.2,1330.75C2265.9,1330.75 2267.53,1330.93 2269.09,1331.31C2270.64,1331.69 2272.08,1332.21 2273.41,1332.88C2274.74,1333.54 2275.92,1334.31 2276.97,1335.19C2278.01,1336.06 2278.86,1337.01 2279.53,1338.03C2280.19,1339.05 2280.62,1340.09 2280.83,1341.16L2278.03,1341.89L2278.57,1331.68L2291.47,1331.68L2291.47,1373.1C2291.47,1376.8 2290.91,1380.09 2289.8,1382.97C2288.69,1385.85 2287.07,1388.28 2284.96,1390.28C2282.85,1392.28 2280.28,1393.79 2277.27,1394.81C2274.26,1395.84 2270.85,1396.35 2267.05,1396.35ZM2267.45,1365.91C2269.64,1365.91 2271.54,1365.42 2273.16,1364.44C2274.77,1363.46 2276.01,1362.1 2276.88,1360.33C2277.74,1358.57 2278.18,1356.49 2278.18,1354.1C2278.18,1351.7 2277.74,1349.61 2276.86,1347.82C2275.98,1346.03 2274.74,1344.64 2273.14,1343.67C2271.53,1342.69 2269.64,1342.2 2267.45,1342.2C2265.28,1342.2 2263.4,1342.7 2261.81,1343.69C2260.22,1344.68 2258.99,1346.07 2258.11,1347.86C2257.24,1349.65 2256.8,1351.73 2256.8,1354.1C2256.8,1356.47 2257.24,1358.54 2258.11,1360.31C2258.99,1362.09 2260.22,1363.46 2261.81,1364.44C2263.4,1365.42 2265.28,1365.91 2267.45,1365.91Z" style="fill:white;fill-rule:nonzero;"/>
                </g>
                <g transform="matrix(1,0,0,1,-1.47353,0)">
                    <path d="M2324.13,1377.65C2319.44,1377.65 2315.26,1376.63 2311.59,1374.6C2307.91,1372.58 2305.02,1369.8 2302.91,1366.29C2300.79,1362.77 2299.74,1358.74 2299.74,1354.19C2299.74,1349.65 2300.79,1345.62 2302.91,1342.11C2305.02,1338.59 2307.91,1335.82 2311.59,1333.79C2315.26,1331.76 2319.44,1330.75 2324.13,1330.75C2328.79,1330.75 2332.95,1331.76 2336.61,1333.79C2340.27,1335.82 2343.14,1338.59 2345.24,1342.11C2347.34,1345.62 2348.39,1349.65 2348.39,1354.19C2348.39,1358.74 2347.34,1362.77 2345.24,1366.29C2343.14,1369.8 2340.27,1372.58 2336.61,1374.6C2332.95,1376.63 2328.79,1377.65 2324.13,1377.65ZM2324.13,1365.95C2326.14,1365.95 2327.94,1365.44 2329.54,1364.41C2331.13,1363.39 2332.37,1361.99 2333.27,1360.22C2334.17,1358.44 2334.61,1356.43 2334.58,1354.19C2334.61,1351.9 2334.17,1349.86 2333.27,1348.09C2332.37,1346.32 2331.13,1344.92 2329.54,1343.91C2327.94,1342.9 2326.14,1342.4 2324.13,1342.4C2322.08,1342.4 2320.26,1342.91 2318.65,1343.93C2317.05,1344.95 2315.79,1346.35 2314.88,1348.12C2313.96,1349.9 2313.52,1351.92 2313.54,1354.19C2313.52,1356.43 2313.96,1358.44 2314.88,1360.22C2315.79,1361.99 2317.05,1363.39 2318.65,1364.41C2320.26,1365.44 2322.08,1365.95 2324.13,1365.95Z" style="fill:white;fill-rule:nonzero;"/>
                </g>
                <g transform="matrix(1,0,0,1,-1.47353,0)">
                    <path d="M2358.04,1376.8L2358.04,1329.45C2358.04,1326.51 2358.68,1323.85 2359.96,1321.48C2361.24,1319.1 2363.03,1317.21 2365.32,1315.8C2367.61,1314.39 2370.29,1313.68 2373.35,1313.68C2375.46,1313.68 2377.42,1314.01 2379.23,1314.66C2381.05,1315.3 2382.66,1316.18 2384.08,1317.28L2380.23,1327.21C2379.49,1326.83 2378.77,1326.52 2378.07,1326.29C2377.38,1326.06 2376.74,1325.94 2376.18,1325.94C2375.15,1325.94 2374.3,1326.12 2373.65,1326.47C2372.99,1326.82 2372.5,1327.35 2372.19,1328.05C2371.87,1328.75 2371.71,1329.61 2371.71,1330.62L2371.71,1376.8L2358.04,1376.8ZM2351.44,1344.18L2351.44,1332.93L2380.98,1332.93L2380.98,1344.18L2351.44,1344.18Z" style="fill:white;fill-rule:nonzero;"/>
                </g>
                <g transform="matrix(1,0,0,1,1.47353,0)">
                    <path d="M2407.76,1377.65C2403.07,1377.65 2398.89,1376.63 2395.22,1374.6C2391.55,1372.58 2388.65,1369.8 2386.54,1366.29C2384.43,1362.77 2383.37,1358.74 2383.37,1354.19C2383.37,1349.65 2384.43,1345.62 2386.54,1342.11C2388.65,1338.59 2391.55,1335.82 2395.22,1333.79C2398.89,1331.76 2403.07,1330.75 2407.76,1330.75C2412.42,1330.75 2416.58,1331.76 2420.24,1333.79C2423.9,1335.82 2426.77,1338.59 2428.87,1342.11C2430.97,1345.62 2432.02,1349.65 2432.02,1354.19C2432.02,1358.74 2430.97,1362.77 2428.87,1366.29C2426.77,1369.8 2423.9,1372.58 2420.24,1374.6C2416.58,1376.63 2412.42,1377.65 2407.76,1377.65ZM2407.76,1365.95C2409.77,1365.95 2411.57,1365.44 2413.17,1364.41C2414.76,1363.39 2416,1361.99 2416.9,1360.22C2417.8,1358.44 2418.24,1356.43 2418.21,1354.19C2418.24,1351.9 2417.8,1349.86 2416.9,1348.09C2416,1346.32 2414.76,1344.92 2413.17,1343.91C2411.57,1342.9 2409.77,1342.4 2407.76,1342.4C2405.71,1342.4 2403.89,1342.91 2402.28,1343.93C2400.68,1344.95 2399.42,1346.35 2398.51,1348.12C2397.59,1349.9 2397.15,1351.92 2397.17,1354.19C2397.15,1356.43 2397.59,1358.44 2398.51,1360.22C2399.42,1361.99 2400.68,1363.39 2402.28,1364.41C2403.89,1365.44 2405.71,1365.95 2407.76,1365.95Z" style="fill:white;fill-rule:nonzero;"/>
                </g>
                <path d="M2440.53,1376.8L2440.53,1331.68L2453.47,1331.68L2454.05,1346.34L2451.49,1343.53C2452.18,1341.11 2453.3,1338.94 2454.85,1337C2456.4,1335.07 2458.24,1333.54 2460.36,1332.42C2462.47,1331.31 2464.71,1330.75 2467.07,1330.75C2468.06,1330.75 2469.01,1330.82 2469.9,1330.98C2470.8,1331.13 2471.6,1331.32 2472.3,1331.55L2468.59,1346.58C2467.98,1346.23 2467.15,1345.92 2466.1,1345.64C2465.05,1345.36 2463.95,1345.22 2462.8,1345.22C2461.56,1345.22 2460.41,1345.44 2459.35,1345.87C2458.28,1346.3 2457.37,1346.92 2456.62,1347.72C2455.86,1348.53 2455.27,1349.47 2454.84,1350.55C2454.41,1351.63 2454.2,1352.84 2454.2,1354.19L2454.2,1376.8L2440.53,1376.8Z" style="fill:white;fill-rule:nonzero;"/>
                <path d="M2491.87,1363.54L2486.8,1353.34L2507.95,1331.68L2525.86,1331.68L2491.87,1363.54ZM2478.75,1376.8L2478.75,1313.89L2492.39,1313.89L2492.39,1376.8L2478.75,1376.8ZM2509.33,1376.8L2493.48,1356.18L2503.05,1348.78L2525.43,1376.8L2509.33,1376.8Z" style="fill:white;fill-rule:nonzero;"/>
            </g>
            <g id="a" transform="matrix(0.571435,0,0,0.829633,2738.57,-560.794)">
                <g>
                    <g id="a1" serif:id="a" transform="matrix(1,0,0,1,1.45184,0)">
                        <g transform="matrix(0.714216,0,0,0.491938,-2407.12,-3911.67)">
                            <path d="M3757.54,8391.71L3710.99,8391.71L3710.99,8312.47C3710.99,8302.63 3718.97,8294.65 3728.81,8294.65L3808.05,8294.65L3808.05,8341.2C3808.05,8354.6 3802.73,8367.45 3793.25,8376.92C3783.78,8386.39 3770.93,8391.71 3757.54,8391.71Z" style="fill:white;"/>
                        </g>
                        <g transform="matrix(0.714216,0,0,0.491938,-2407.12,-3913.44)">
                            <path d="M3757.55,8417.19C3770.95,8417.19 3783.8,8422.52 3793.27,8431.99C3802.74,8441.46 3808.07,8454.31 3808.07,8467.71L3808.07,8514.26L3728.83,8514.26C3718.99,8514.26 3711.01,8506.28 3711.01,8496.43L3711.01,8417.19L3757.55,8417.19Z" style="fill:white;"/>
                        </g>
                    </g>
                    <g id="a2" serif:id="a">
                        <g transform="matrix(0.585052,0,0,0.402972,-1914.37,-3163.96)">
                            <path d="M3883.9,8391.93C3870.51,8391.93 3857.66,8386.61 3848.18,8377.14C3838.71,8367.67 3833.39,8354.82 3833.39,8341.42L3833.39,8294.87L3912.63,8294.87C3922.47,8294.87 3930.45,8302.85 3930.45,8312.69L3930.45,8391.93L3883.9,8391.93Z" style="fill:white;"/>
                        </g>
                        <g transform="matrix(0.585052,0,0,0.402972,-1914.37,-3165.68)">
                            <path d="M3883.92,8417.42L3930.47,8417.42L3930.47,8496.66C3930.47,8506.5 3922.49,8514.48 3912.65,8514.48L3833.41,8514.48L3833.41,8467.93C3833.41,8454.53 3838.73,8441.68 3848.2,8432.21C3857.68,8422.74 3870.52,8417.42 3883.92,8417.42Z" style="fill:white;"/>
                        </g>
                    </g>
                </g>
            </g>
        </g>
    </g>
</svg>
