<?xml version="1.0" encoding="UTF-8" standalone="no"?>
<!DOCTYPE svg PUBLIC "-//W3C//DTD SVG 1.1//EN" "http://www.w3.org/Graphics/SVG/1.1/DTD/svg11.dtd">
<svg width="100%" height="100%" viewBox="0 0 263 54" version="1.1" xmlns="http://www.w3.org/2000/svg" xmlns:xlink="http://www.w3.org/1999/xlink" xml:space="preserve" xmlns:serif="http://www.serif.com/" style="fill-rule:evenodd;clip-rule:evenodd;stroke-linejoin:round;stroke-miterlimit:2;">
    <g transform="matrix(1,0,0,1,-3239.24,-1843.37)">
        <g transform="matrix(1.00891,0,0,1.00891,363.867,-297.285)">
            <g transform="matrix(2.09367,1.14644e-16,1.07401e-16,2.09367,-648.762,-1980.51)">
                <path d="M1673.8,1966.93L1681.38,1959.36L1688.96,1966.93C1690.69,1968.67 1691.66,1971.01 1691.66,1973.46C1691.66,1975.9 1690.69,1978.25 1688.96,1979.98L1681.38,1972.4L1673.8,1979.98C1672.07,1978.25 1671.1,1975.9 1671.1,1973.46C1671.1,1971.01 1672.07,1968.67 1673.8,1966.93Z" style="fill:white;"/>
            </g>
            <g transform="matrix(1.22213,0,0,1.22213,-185.166,-257.689)">
                <rect x="2531.39" y="1949.96" width="5.685" height="30.32" style="fill:white;fill-rule:nonzero;"/>
                <path d="M2552.66,1980.78C2550.64,1980.78 2548.81,1980.31 2547.19,1979.37C2545.57,1978.42 2544.29,1977.12 2543.36,1975.44C2542.42,1973.77 2541.95,1971.85 2541.95,1969.69C2541.95,1967.49 2542.42,1965.56 2543.36,1963.89C2544.3,1962.22 2545.59,1960.91 2547.21,1959.98C2548.84,1959.04 2550.66,1958.57 2552.69,1958.57C2554.75,1958.57 2556.58,1959.04 2558.2,1959.98C2559.82,1960.91 2561.1,1962.22 2562.03,1963.88C2562.97,1965.55 2563.43,1967.49 2563.43,1969.69C2563.43,1971.86 2562.96,1973.78 2562.02,1975.45C2561.08,1977.12 2559.8,1978.42 2558.18,1979.37C2556.56,1980.31 2554.72,1980.78 2552.66,1980.78ZM2552.67,1975.88C2553.61,1975.88 2554.44,1975.64 2555.19,1975.18C2555.93,1974.72 2556.52,1974.03 2556.97,1973.1C2557.42,1972.18 2557.64,1971.04 2557.64,1969.68C2557.64,1968.3 2557.42,1967.15 2556.98,1966.24C2556.54,1965.32 2555.95,1964.63 2555.21,1964.17C2554.47,1963.71 2553.64,1963.48 2552.71,1963.48C2551.8,1963.48 2550.97,1963.71 2550.22,1964.17C2549.47,1964.63 2548.87,1965.32 2548.42,1966.24C2547.97,1967.16 2547.75,1968.31 2547.75,1969.68C2547.75,1971.04 2547.97,1972.18 2548.41,1973.1C2548.86,1974.03 2549.46,1974.72 2550.2,1975.18C2550.94,1975.64 2551.76,1975.88 2552.67,1975.88Z" style="fill:white;fill-rule:nonzero;"/>
                <path d="M2576.56,1990.05C2574.53,1990.05 2572.77,1989.8 2571.26,1989.31C2569.74,1988.82 2568.58,1988.08 2567.75,1987.08C2566.92,1986.09 2566.51,1984.86 2566.51,1983.38C2566.51,1982.4 2566.76,1981.47 2567.27,1980.6C2567.78,1979.73 2568.51,1978.93 2569.49,1978.22C2570.46,1977.51 2571.66,1976.9 2573.1,1976.39L2575.27,1979.2C2573.98,1979.62 2573.05,1980.15 2572.47,1980.78C2571.9,1981.41 2571.62,1982.09 2571.62,1982.81C2571.62,1983.46 2571.84,1984.01 2572.27,1984.45C2572.7,1984.89 2573.29,1985.21 2574.03,1985.43C2574.77,1985.65 2575.61,1985.76 2576.53,1985.76C2577.43,1985.76 2578.21,1985.65 2578.88,1985.42C2579.54,1985.19 2580.07,1984.87 2580.44,1984.43C2580.82,1984 2581.01,1983.49 2581.01,1982.9C2581.01,1982.12 2580.74,1981.5 2580.21,1981.03C2579.67,1980.56 2578.61,1980.27 2577.01,1980.15C2575.57,1980.04 2574.29,1979.88 2573.18,1979.67C2572.07,1979.45 2571.09,1979.2 2570.26,1978.91C2569.43,1978.62 2568.72,1978.29 2568.14,1977.93C2567.55,1977.57 2567.08,1977.21 2566.72,1976.84L2566.72,1975.87L2571.24,1971.02L2575.3,1972.31L2569.99,1977.56L2571.62,1974.75C2571.92,1974.94 2572.21,1975.11 2572.51,1975.27C2572.81,1975.42 2573.19,1975.56 2573.64,1975.68C2574.09,1975.8 2574.68,1975.91 2575.4,1976.02C2576.12,1976.13 2577.05,1976.24 2578.18,1976.34C2580.03,1976.5 2581.55,1976.84 2582.74,1977.37C2583.93,1977.89 2584.8,1978.6 2585.36,1979.5C2585.92,1980.39 2586.2,1981.49 2586.2,1982.77C2586.2,1984.02 2585.86,1985.2 2585.18,1986.31C2584.49,1987.41 2583.43,1988.31 2582.01,1989.01C2580.59,1989.7 2578.77,1990.05 2576.56,1990.05ZM2576.59,1974.02C2574.82,1974.02 2573.29,1973.67 2572.01,1972.98C2570.73,1972.29 2569.74,1971.36 2569.06,1970.2C2568.37,1969.03 2568.03,1967.73 2568.03,1966.3C2568.03,1964.86 2568.37,1963.56 2569.06,1962.4C2569.75,1961.24 2570.73,1960.31 2572.01,1959.62C2573.29,1958.92 2574.82,1958.57 2576.59,1958.57C2578.38,1958.57 2579.91,1958.92 2581.19,1959.62C2582.46,1960.31 2583.44,1961.24 2584.12,1962.4C2584.79,1963.56 2585.13,1964.86 2585.13,1966.3C2585.13,1967.73 2584.79,1969.03 2584.12,1970.2C2583.44,1971.36 2582.46,1972.29 2581.19,1972.98C2579.91,1973.67 2578.38,1974.02 2576.59,1974.02ZM2576.59,1969.68C2577.68,1969.68 2578.56,1969.4 2579.23,1968.82C2579.9,1968.25 2580.24,1967.42 2580.24,1966.32C2580.24,1965.23 2579.9,1964.4 2579.23,1963.83C2578.56,1963.26 2577.68,1962.97 2576.59,1962.97C2575.51,1962.97 2574.62,1963.26 2573.93,1963.83C2573.24,1964.4 2572.9,1965.23 2572.9,1966.32C2572.9,1967.42 2573.24,1968.25 2573.93,1968.82C2574.61,1969.4 2575.5,1969.68 2576.59,1969.68ZM2580.1,1963.08L2579.16,1959.08L2587.91,1959.08L2587.91,1962.44L2580.1,1963.08Z" style="fill:white;fill-rule:nonzero;"/>
                <path d="M2601.73,1980.78C2599.7,1980.78 2597.87,1980.31 2596.25,1979.37C2594.63,1978.42 2593.35,1977.12 2592.42,1975.44C2591.48,1973.77 2591.02,1971.85 2591.02,1969.69C2591.02,1967.49 2591.49,1965.56 2592.43,1963.89C2593.37,1962.22 2594.65,1960.91 2596.28,1959.98C2597.9,1959.04 2599.73,1958.57 2601.76,1958.57C2603.81,1958.57 2605.65,1959.04 2607.26,1959.98C2608.88,1960.91 2610.16,1962.22 2611.09,1963.88C2612.03,1965.55 2612.49,1967.49 2612.49,1969.69C2612.49,1971.86 2612.03,1973.78 2611.09,1975.45C2610.14,1977.12 2608.86,1978.42 2607.24,1979.37C2605.62,1980.31 2603.78,1980.78 2601.73,1980.78ZM2601.73,1975.88C2602.67,1975.88 2603.51,1975.64 2604.25,1975.18C2604.99,1974.72 2605.59,1974.03 2606.03,1973.1C2606.48,1972.18 2606.7,1971.04 2606.7,1969.68C2606.7,1968.3 2606.48,1967.15 2606.05,1966.24C2605.61,1965.32 2605.02,1964.63 2604.28,1964.17C2603.53,1963.71 2602.7,1963.48 2601.77,1963.48C2600.86,1963.48 2600.03,1963.71 2599.28,1964.17C2598.53,1964.63 2597.93,1965.32 2597.48,1966.24C2597.03,1967.16 2596.81,1968.31 2596.81,1969.68C2596.81,1971.04 2597.03,1972.18 2597.48,1973.1C2597.93,1974.03 2598.52,1974.72 2599.26,1975.18C2600.01,1975.64 2600.83,1975.88 2601.73,1975.88Z" style="fill:white;fill-rule:nonzero;"/>
                <path d="M2618.35,1980.28L2618.35,1957.15C2618.35,1955.39 2618.65,1953.99 2619.24,1952.95C2619.84,1951.9 2620.69,1951.14 2621.79,1950.67C2622.89,1950.19 2624.18,1949.96 2625.66,1949.96L2628.29,1949.96L2628.29,1954.79L2626.54,1954.79C2625.64,1954.79 2625,1954.97 2624.61,1955.33C2624.23,1955.68 2624.03,1956.29 2624.03,1957.14L2624.03,1980.28L2618.35,1980.28ZM2615.44,1963.82L2615.44,1959.08L2628.62,1959.08L2628.62,1963.82L2615.44,1963.82Z" style="fill:white;fill-rule:nonzero;"/>
                <path d="M2642.2,1980.78C2640.17,1980.78 2638.35,1980.31 2636.73,1979.37C2635.11,1978.42 2633.83,1977.12 2632.89,1975.44C2631.96,1973.77 2631.49,1971.85 2631.49,1969.69C2631.49,1967.49 2631.96,1965.56 2632.9,1963.89C2633.84,1962.22 2635.13,1960.91 2636.75,1959.98C2638.38,1959.04 2640.2,1958.57 2642.23,1958.57C2644.29,1958.57 2646.12,1959.04 2647.74,1959.98C2649.36,1960.91 2650.63,1962.22 2651.57,1963.88C2652.5,1965.55 2652.97,1967.49 2652.97,1969.69C2652.97,1971.86 2652.5,1973.78 2651.56,1975.45C2650.62,1977.12 2649.34,1978.42 2647.72,1979.37C2646.1,1980.31 2644.26,1980.78 2642.2,1980.78ZM2642.21,1975.88C2643.14,1975.88 2643.98,1975.64 2644.73,1975.18C2645.47,1974.72 2646.06,1974.03 2646.51,1973.1C2646.95,1972.18 2647.18,1971.04 2647.18,1969.68C2647.18,1968.3 2646.96,1967.15 2646.52,1966.24C2646.08,1965.32 2645.49,1964.63 2644.75,1964.17C2644.01,1963.71 2643.18,1963.48 2642.25,1963.48C2641.34,1963.48 2640.51,1963.71 2639.76,1964.17C2639,1964.63 2638.4,1965.32 2637.96,1966.24C2637.51,1967.16 2637.29,1968.31 2637.29,1969.68C2637.29,1971.04 2637.51,1972.18 2637.95,1973.1C2638.4,1974.03 2638.99,1974.72 2639.74,1975.18C2640.48,1975.64 2641.3,1975.88 2642.21,1975.88Z" style="fill:white;fill-rule:nonzero;"/>
                <path d="M2657.86,1980.28L2657.86,1959.08L2662.91,1959.08L2663.44,1962.98C2663.97,1962.06 2664.62,1961.27 2665.38,1960.62C2666.14,1959.96 2667.02,1959.46 2668.03,1959.1C2669.03,1958.75 2670.13,1958.57 2671.34,1958.57L2671.34,1964.57L2669.4,1964.57C2668.55,1964.57 2667.77,1964.67 2667.05,1964.86C2666.34,1965.05 2665.71,1965.37 2665.19,1965.81C2664.66,1966.25 2664.26,1966.85 2663.97,1967.62C2663.69,1968.38 2663.54,1969.33 2663.54,1970.47L2663.54,1980.28L2657.86,1980.28Z" style="fill:white;fill-rule:nonzero;"/>
                <path d="M2688.99,1980.28L2679.93,1968.67L2688.03,1959.08L2694.76,1959.08L2684.27,1971.04L2684.26,1966.54L2696.06,1980.28L2688.99,1980.28ZM2675.08,1980.28L2675.08,1949.96L2680.76,1949.96L2680.76,1980.28L2675.08,1980.28Z" style="fill:white;fill-rule:nonzero;"/>
            </g>
        </g>
    </g>
</svg>
