<?xml version="1.0" encoding="UTF-8" standalone="no"?>
<!DOCTYPE svg PUBLIC "-//W3C//DTD SVG 1.1//EN" "http://www.w3.org/Graphics/SVG/1.1/DTD/svg11.dtd">
<svg width="100%" height="100%" viewBox="0 0 114 23" version="1.1" xmlns="http://www.w3.org/2000/svg" xmlns:xlink="http://www.w3.org/1999/xlink" xml:space="preserve" xmlns:serif="http://www.serif.com/" style="fill-rule:evenodd;clip-rule:evenodd;stroke-linejoin:round;stroke-miterlimit:2;">
    <g transform="matrix(1,0,0,1,-1671.1,-1959.36)">
        <g transform="matrix(1.25521,0,0,2.90037,-337.349,-4702.75)">
            <g transform="matrix(0.79668,0,0,0.344784,268.759,1621.43)">
                <path d="M1698.29,1981.94L1698.29,1964.19L1701.13,1964.19L1701.47,1966.13C1701.75,1965.73 1702.09,1965.36 1702.5,1965.01C1702.9,1964.67 1703.39,1964.39 1703.95,1964.18C1704.52,1963.98 1705.18,1963.87 1705.93,1963.87C1707.19,1963.87 1708.3,1964.18 1709.26,1964.79C1710.22,1965.4 1710.98,1966.24 1711.53,1967.29C1712.08,1968.35 1712.36,1969.55 1712.36,1970.91C1712.36,1972.25 1712.08,1973.44 1711.52,1974.5C1710.96,1975.55 1710.2,1976.38 1709.24,1976.98C1708.28,1977.58 1707.17,1977.88 1705.93,1977.88C1704.92,1977.88 1704.03,1977.69 1703.28,1977.31C1702.53,1976.92 1701.93,1976.38 1701.47,1975.69L1701.47,1981.94L1698.29,1981.94ZM1705.27,1975.11C1706.01,1975.11 1706.68,1974.93 1707.26,1974.58C1707.84,1974.23 1708.29,1973.73 1708.62,1973.1C1708.95,1972.46 1709.11,1971.73 1709.11,1970.89C1709.11,1970.05 1708.95,1969.31 1708.62,1968.68C1708.29,1968.04 1707.84,1967.54 1707.26,1967.18C1706.68,1966.83 1706.01,1966.65 1705.27,1966.65C1704.51,1966.65 1703.84,1966.83 1703.26,1967.18C1702.68,1967.54 1702.23,1968.04 1701.91,1968.67C1701.58,1969.31 1701.42,1970.04 1701.42,1970.88C1701.42,1971.72 1701.58,1972.45 1701.91,1973.09C1702.23,1973.73 1702.68,1974.22 1703.26,1974.58C1703.84,1974.93 1704.51,1975.11 1705.27,1975.11Z" style="fill:white;"/>
            </g>
            <g transform="matrix(0.79668,0,0,0.344784,268.759,1621.43)">
                <path d="M1719.93,1977.88C1718.83,1977.88 1717.91,1977.7 1717.19,1977.33C1716.46,1976.96 1715.92,1976.47 1715.57,1975.85C1715.22,1975.23 1715.04,1974.55 1715.04,1973.82C1715.04,1972.98 1715.26,1972.24 1715.69,1971.62C1716.12,1971 1716.77,1970.52 1717.62,1970.17C1718.47,1969.83 1719.51,1969.66 1720.75,1969.66L1724.12,1969.66C1724.12,1968.94 1724.02,1968.35 1723.83,1967.89C1723.63,1967.42 1723.33,1967.07 1722.92,1966.84C1722.52,1966.6 1721.99,1966.49 1721.34,1966.49C1720.62,1966.49 1720,1966.65 1719.49,1966.98C1718.97,1967.32 1718.65,1967.81 1718.54,1968.47L1715.4,1968.47C1715.5,1967.52 1715.82,1966.7 1716.36,1966.02C1716.9,1965.33 1717.6,1964.81 1718.48,1964.43C1719.35,1964.06 1720.31,1963.87 1721.35,1963.87C1722.61,1963.87 1723.68,1964.09 1724.57,1964.52C1725.46,1964.95 1726.13,1965.56 1726.6,1966.37C1727.07,1967.17 1727.31,1968.13 1727.31,1969.27L1727.31,1977.56L1724.59,1977.56L1724.27,1975.42C1724.09,1975.78 1723.86,1976.1 1723.59,1976.4C1723.31,1976.7 1723,1976.96 1722.64,1977.18C1722.29,1977.4 1721.88,1977.58 1721.43,1977.7C1720.98,1977.82 1720.48,1977.88 1719.93,1977.88ZM1720.63,1975.37C1721.14,1975.37 1721.6,1975.27 1722,1975.08C1722.4,1974.89 1722.75,1974.62 1723.04,1974.29C1723.33,1973.95 1723.56,1973.56 1723.72,1973.13C1723.88,1972.7 1723.98,1972.24 1724.02,1971.76L1724.02,1971.71L1721.1,1971.71C1720.46,1971.71 1719.94,1971.79 1719.55,1971.95C1719.14,1972.11 1718.86,1972.33 1718.67,1972.61C1718.49,1972.88 1718.4,1973.21 1718.4,1973.57C1718.4,1973.95 1718.49,1974.27 1718.67,1974.54C1718.85,1974.81 1719.11,1975.02 1719.44,1975.16C1719.78,1975.3 1720.17,1975.37 1720.63,1975.37Z" style="fill:white;"/>
            </g>
            <g transform="matrix(0.79668,0,0,0.344784,268.759,1621.43)">
                <path d="M1737.05,1977.88C1735.72,1977.88 1734.55,1977.59 1733.52,1976.99C1732.49,1976.4 1731.68,1975.58 1731.1,1974.53C1730.52,1973.48 1730.23,1972.27 1730.23,1970.91C1730.23,1969.52 1730.52,1968.3 1731.1,1967.25C1731.68,1966.19 1732.49,1965.37 1733.52,1964.77C1734.55,1964.17 1735.72,1963.87 1737.05,1963.87C1738.72,1963.87 1740.13,1964.31 1741.26,1965.19C1742.4,1966.06 1743.12,1967.26 1743.43,1968.78L1740.08,1968.78C1739.91,1968.09 1739.55,1967.56 1739,1967.18C1738.44,1966.79 1737.78,1966.6 1737.02,1966.6C1736.36,1966.6 1735.76,1966.77 1735.22,1967.1C1734.68,1967.43 1734.26,1967.92 1733.95,1968.56C1733.63,1969.19 1733.48,1969.97 1733.48,1970.88C1733.48,1971.56 1733.57,1972.16 1733.75,1972.69C1733.93,1973.23 1734.18,1973.68 1734.5,1974.05C1734.82,1974.41 1735.19,1974.69 1735.63,1974.89C1736.06,1975.08 1736.52,1975.17 1737.02,1975.17C1737.53,1975.17 1738,1975.09 1738.41,1974.92C1738.83,1974.75 1739.18,1974.5 1739.47,1974.17C1739.77,1973.84 1739.97,1973.44 1740.08,1972.98L1743.43,1972.98C1743.12,1974.46 1742.4,1975.65 1741.26,1976.54C1740.12,1977.44 1738.71,1977.88 1737.05,1977.88Z" style="fill:white;"/>
            </g>
            <g transform="matrix(0.79668,0,0,0.344784,268.759,1621.43)">
                <path d="M1749.72,1960.36L1749.72,1969.69L1754.55,1964.19L1758.35,1964.19L1752.82,1970.32L1759.13,1977.56L1755.15,1977.56L1749.72,1970.84L1749.72,1977.56L1746.53,1977.56L1746.53,1960.36L1749.72,1960.36Z" style="fill:white;"/>
            </g>
            <g transform="matrix(0.79668,0,0,0.344784,268.759,1621.43)">
                <path d="M1763.03,1971.65C1763.07,1972.32 1763.23,1972.91 1763.49,1973.42C1763.8,1974.02 1764.23,1974.47 1764.77,1974.79C1765.31,1975.1 1765.92,1975.26 1766.6,1975.26C1767.34,1975.26 1767.96,1975.1 1768.44,1974.79C1768.92,1974.47 1769.28,1974.04 1769.52,1973.51L1772.75,1973.51C1772.51,1974.34 1772.1,1975.08 1771.53,1975.74C1770.96,1976.4 1770.26,1976.92 1769.43,1977.31C1768.61,1977.69 1767.67,1977.88 1766.62,1977.88C1765.3,1977.88 1764.13,1977.59 1763.12,1977.01C1762.11,1976.43 1761.32,1975.62 1760.75,1974.59C1760.17,1973.54 1759.89,1972.34 1759.89,1970.97C1759.89,1969.57 1760.17,1968.33 1760.73,1967.27C1761.3,1966.21 1762.09,1965.38 1763.1,1964.78C1764.11,1964.17 1765.29,1963.87 1766.64,1963.87C1767.96,1963.87 1769.11,1964.16 1770.08,1964.74C1771.04,1965.32 1771.8,1966.1 1772.33,1967.08C1772.86,1968.06 1773.13,1969.16 1773.13,1970.39C1773.13,1970.57 1773.12,1970.76 1773.12,1970.97C1773.12,1971.18 1773.1,1971.41 1773.08,1971.65L1763.03,1971.65ZM1763.08,1969.59L1769.92,1969.59C1769.87,1968.63 1769.54,1967.87 1768.93,1967.31C1768.31,1966.75 1767.55,1966.47 1766.63,1966.47C1765.97,1966.47 1765.37,1966.62 1764.82,1966.92C1764.27,1967.22 1763.84,1967.67 1763.51,1968.26C1763.3,1968.64 1763.16,1969.08 1763.08,1969.59Z" style="fill:white;"/>
            </g>
            <g transform="matrix(0.79668,0,0,0.344784,268.759,1621.43)">
                <path d="M1776.08,1977.56L1776.08,1964.19L1778.92,1964.19L1779.21,1966.68C1779.53,1966.09 1779.93,1965.59 1780.41,1965.17C1780.88,1964.76 1781.44,1964.44 1782.09,1964.21C1782.73,1963.99 1783.44,1963.87 1784.23,1963.87L1784.23,1967.23L1783.12,1967.23C1782.58,1967.23 1782.07,1967.3 1781.6,1967.43C1781.13,1967.56 1780.72,1967.77 1780.37,1968.06C1780.02,1968.36 1779.74,1968.76 1779.55,1969.27C1779.36,1969.78 1779.26,1970.41 1779.26,1971.17L1779.26,1977.56L1776.08,1977.56Z" style="fill:white;"/>
            </g>
            <g transform="matrix(0.79668,0,0,0.344784,268.759,1621.43)">
                <path d="M1673.8,1966.93L1681.38,1959.36L1688.96,1966.93C1690.69,1968.67 1691.66,1971.01 1691.66,1973.46C1691.66,1975.9 1690.69,1978.25 1688.96,1979.98L1681.38,1972.4L1673.8,1979.98C1672.07,1978.25 1671.1,1975.9 1671.1,1973.46C1671.1,1971.01 1672.07,1968.67 1673.8,1966.93Z" style="fill:white;"/>
            </g>
        </g>
    </g>
</svg>
