<?xml version="1.0" encoding="UTF-8" standalone="no"?>
<!DOCTYPE svg PUBLIC "-//W3C//DTD SVG 1.1//EN" "http://www.w3.org/Graphics/SVG/1.1/DTD/svg11.dtd">
<svg width="100%" height="100%" viewBox="0 0 112 49" version="1.1" xmlns="http://www.w3.org/2000/svg" xmlns:xlink="http://www.w3.org/1999/xlink" xml:space="preserve" xmlns:serif="http://www.serif.com/" style="fill-rule:evenodd;clip-rule:evenodd;stroke-linejoin:round;stroke-miterlimit:2;">
    <g transform="matrix(1,0,0,1,-2209.56,-2289.5)">
        <g>
            <g transform="matrix(1.30383,0,0,1.30383,2249.45,2300.09)">
                <path d="M5.85,18.454C5.126,17.935 4.65,17.086 4.65,16.136L4.65,10.5C4.65,9.549 5.126,8.701 5.85,8.182C6.317,7.848 6.887,7.65 7.5,7.65L9,7.65C9.331,7.65 9.6,7.919 9.6,8.25C9.6,8.581 9.331,8.85 9,8.85L7.5,8.85C6.595,8.85 5.85,9.595 5.85,10.5L5.85,16.136C5.85,17.041 6.595,17.786 7.5,17.786L16.5,17.786C17.405,17.786 18.15,17.041 18.15,16.136L18.15,10.5C18.15,9.595 17.405,8.85 16.5,8.85L15,8.85C14.669,8.85 14.4,8.581 14.4,8.25C14.4,7.919 14.669,7.65 15,7.65L16.5,7.65C17.113,7.65 17.683,7.848 18.15,8.182C18.874,8.701 19.35,9.549 19.35,10.5L19.35,16.136C19.35,17.086 18.874,17.935 18.15,18.454C17.683,18.788 17.113,18.986 16.5,18.986L7.5,18.986C6.887,18.986 6.317,18.788 5.85,18.454ZM11.4,12.826L11.4,3.852L9.424,5.828C9.19,6.062 8.81,6.062 8.576,5.828C8.342,5.594 8.342,5.214 8.576,4.979L11.576,1.98C11.69,1.865 11.842,1.804 12,1.804C12.158,1.804 12.31,1.865 12.424,1.98L15.424,4.979C15.658,5.214 15.658,5.594 15.424,5.828C15.19,6.062 14.81,6.062 14.576,5.828L12.6,3.852L12.6,12.826L12.6,14.218C12.6,14.549 12.331,14.818 12,14.818C11.669,14.818 11.4,14.549 11.4,14.218L11.4,12.826Z" style="fill:rgb(237,255,0);"/>
            </g>
            <g transform="matrix(0.8693,0,0,1.00838,856.571,-18.7965)">
                <rect x="1556.41" y="2289.12" width="127.775" height="47.881" style="fill:none;"/>
            </g>
        </g>
    </g>
</svg>
