<?xml version="1.0" encoding="UTF-8" standalone="no"?>
<!DOCTYPE svg PUBLIC "-//W3C//DTD SVG 1.1//EN" "http://www.w3.org/Graphics/SVG/1.1/DTD/svg11.dtd">
<svg width="100%" height="100%" viewBox="0 0 20 31" version="1.1" xmlns="http://www.w3.org/2000/svg" xmlns:xlink="http://www.w3.org/1999/xlink" xml:space="preserve" xmlns:serif="http://www.serif.com/" style="fill-rule:evenodd;clip-rule:evenodd;stroke-linejoin:round;stroke-miterlimit:2;">
    <g transform="matrix(1,0,0,1,-3669.35,-1714.66)">
        <g>
            <g transform="matrix(0.299388,0,0,0.299388,2555.64,1151.59)">
                <g>
                    <path d="M3729.76,1973.02C3727.82,1973.02 3726.14,1972.71 3724.71,1972.09C3723.29,1971.47 3722.17,1970.62 3721.36,1969.53C3720.55,1968.45 3720.08,1967.21 3719.95,1965.82L3725.62,1965.82C3725.74,1966.35 3725.97,1966.83 3726.31,1967.26C3726.65,1967.69 3727.1,1968.04 3727.67,1968.29C3728.24,1968.55 3728.91,1968.67 3729.68,1968.67C3730.43,1968.67 3731.06,1968.57 3731.54,1968.36C3732.03,1968.14 3732.39,1967.86 3732.63,1967.51C3732.87,1967.15 3732.99,1966.78 3732.99,1966.38C3732.99,1965.78 3732.82,1965.32 3732.47,1965C3732.13,1964.69 3731.64,1964.43 3730.98,1964.23C3730.33,1964.03 3729.55,1963.84 3728.63,1963.65C3727.62,1963.44 3726.64,1963.19 3725.67,1962.9C3724.71,1962.61 3723.84,1962.24 3723.08,1961.78C3722.31,1961.33 3721.7,1960.75 3721.25,1960.05C3720.8,1959.34 3720.58,1958.47 3720.58,1957.43C3720.58,1956.18 3720.92,1955.06 3721.6,1954.05C3722.28,1953.05 3723.27,1952.26 3724.56,1951.68C3725.85,1951.1 3727.4,1950.81 3729.2,1950.81C3731.76,1950.81 3733.79,1951.38 3735.29,1952.54C3736.78,1953.68 3737.66,1955.27 3737.93,1957.28L3732.58,1957.28C3732.43,1956.62 3732.06,1956.1 3731.47,1955.73C3730.89,1955.37 3730.12,1955.18 3729.18,1955.18C3728.17,1955.18 3727.41,1955.36 3726.88,1955.73C3726.35,1956.09 3726.08,1956.56 3726.08,1957.13C3726.08,1957.53 3726.25,1957.88 3726.59,1958.19C3726.93,1958.5 3727.42,1958.76 3728.07,1958.98C3728.72,1959.2 3729.51,1959.41 3730.45,1959.61C3732.08,1959.94 3733.52,1960.32 3734.74,1960.74C3735.97,1961.17 3736.94,1961.78 3737.64,1962.59C3738.34,1963.39 3738.69,1964.55 3738.68,1966.06C3738.7,1967.42 3738.35,1968.62 3737.62,1969.67C3736.88,1970.72 3735.85,1971.54 3734.51,1972.14C3733.18,1972.73 3731.6,1973.02 3729.76,1973.02Z" style="fill:rgb(237,255,0);fill-rule:nonzero;"/>
                    <path d="M3748.03,1972.52L3740.26,1951.31L3746.24,1951.31L3751.5,1967.16L3756.77,1951.31L3762.68,1951.31L3754.92,1972.52L3748.03,1972.52Z" style="fill:rgb(237,255,0);fill-rule:nonzero;"/>
                    <path d="M3774.39,1982.29C3772.37,1982.29 3770.6,1982.04 3769.09,1981.55C3767.58,1981.06 3766.41,1980.32 3765.58,1979.32C3764.76,1978.33 3764.35,1977.1 3764.35,1975.62C3764.35,1974.64 3764.6,1973.71 3765.1,1972.84C3765.61,1971.97 3766.35,1971.17 3767.32,1970.46C3768.29,1969.75 3769.5,1969.14 3770.93,1968.62L3773.11,1971.44C3771.81,1971.86 3770.88,1972.38 3770.31,1973.02C3769.74,1973.65 3769.45,1974.33 3769.45,1975.05C3769.45,1975.7 3769.67,1976.25 3770.1,1976.69C3770.54,1977.12 3771.12,1977.45 3771.87,1977.67C3772.61,1977.89 3773.44,1978 3774.36,1978C3775.26,1978 3776.04,1977.89 3776.71,1977.66C3777.38,1977.43 3777.9,1977.1 3778.28,1976.67C3778.65,1976.24 3778.84,1975.73 3778.84,1975.14C3778.84,1974.36 3778.57,1973.74 3778.04,1973.27C3777.51,1972.8 3776.44,1972.51 3774.84,1972.39C3773.4,1972.28 3772.12,1972.12 3771.01,1971.91C3769.9,1971.69 3768.93,1971.44 3768.1,1971.15C3767.26,1970.86 3766.56,1970.53 3765.97,1970.17C3765.39,1969.81 3764.92,1969.44 3764.56,1969.08L3764.56,1968.11L3769.07,1963.26L3773.13,1964.55L3767.83,1969.79L3769.46,1966.99C3769.75,1967.18 3770.05,1967.35 3770.35,1967.5C3770.64,1967.66 3771.02,1967.79 3771.47,1967.92C3771.92,1968.04 3772.51,1968.15 3773.24,1968.26C3773.96,1968.37 3774.88,1968.48 3776.01,1968.58C3777.87,1968.74 3779.39,1969.08 3780.57,1969.6C3781.76,1970.13 3782.63,1970.84 3783.2,1971.74C3783.76,1972.63 3784.04,1973.72 3784.04,1975.01C3784.04,1976.26 3783.7,1977.44 3783.01,1978.55C3782.32,1979.65 3781.27,1980.55 3779.85,1981.25C3778.42,1981.94 3776.61,1982.29 3774.39,1982.29ZM3774.43,1966.26C3772.65,1966.26 3771.12,1965.91 3769.84,1965.22C3768.56,1964.53 3767.58,1963.6 3766.89,1962.44C3766.2,1961.27 3765.86,1959.97 3765.86,1958.53C3765.86,1957.1 3766.21,1955.8 3766.89,1954.64C3767.58,1953.48 3768.57,1952.55 3769.85,1951.86C3771.13,1951.16 3772.65,1950.81 3774.43,1950.81C3776.21,1950.81 3777.74,1951.16 3779.02,1951.86C3780.3,1952.55 3781.27,1953.48 3781.95,1954.64C3782.63,1955.8 3782.97,1957.1 3782.97,1958.53C3782.97,1959.97 3782.63,1961.27 3781.95,1962.44C3781.27,1963.6 3780.3,1964.53 3779.02,1965.22C3777.74,1965.91 3776.21,1966.26 3774.43,1966.26ZM3774.43,1961.92C3775.51,1961.92 3776.39,1961.63 3777.06,1961.06C3777.74,1960.49 3778.07,1959.66 3778.07,1958.56C3778.07,1957.47 3777.74,1956.63 3777.06,1956.07C3776.39,1955.5 3775.51,1955.21 3774.43,1955.21C3773.34,1955.21 3772.45,1955.5 3771.77,1956.07C3771.08,1956.63 3770.73,1957.47 3770.73,1958.56C3770.73,1959.66 3771.08,1960.49 3771.76,1961.06C3772.45,1961.63 3773.34,1961.92 3774.43,1961.92ZM3777.93,1955.32L3777,1951.31L3785.75,1951.31L3785.75,1954.68L3777.93,1955.32Z" style="fill:rgb(237,255,0);fill-rule:nonzero;"/>
                </g>
            </g>
            <g transform="matrix(0.720627,0,0,0.720627,3669.55,1714.12)">
                <path d="M14.25,18.75C15.073,18.75 15.75,18.073 15.75,17.25L15.75,9.75C15.75,8.927 15.073,8.25 14.25,8.25L13.5,8.25C13.086,8.25 12.75,7.914 12.75,7.5C12.75,7.086 13.086,6.75 13.5,6.75L14.25,6.75C15.896,6.75 17.25,8.104 17.25,9.75C18.896,9.75 20.25,11.104 20.25,12.75L20.25,20.25C20.25,21.896 18.896,23.25 17.25,23.25L9.75,23.25C8.104,23.25 6.75,21.896 6.75,20.25C5.104,20.25 3.75,18.896 3.75,17.25L3.75,9.75C3.75,8.104 5.104,6.75 6.75,6.75L7.5,6.75C7.914,6.75 8.25,7.086 8.25,7.5C8.25,7.914 7.914,8.25 7.5,8.25L6.75,8.25C5.927,8.25 5.25,8.927 5.25,9.75L5.25,17.25C5.25,18.073 5.927,18.75 6.75,18.75L14.25,18.75ZM17.25,11.25L17.25,17.25C17.25,18.896 15.896,20.25 14.25,20.25L8.25,20.25C8.25,21.073 8.927,21.75 9.75,21.75L17.25,21.75C18.073,21.75 18.75,21.073 18.75,20.25L18.75,12.75C18.75,11.927 18.073,11.25 17.25,11.25ZM9.97,0.97C10.113,0.827 10.303,0.75 10.5,0.75C10.697,0.75 10.887,0.827 11.03,0.97L14.03,3.97C14.323,4.262 14.323,4.738 14.03,5.03C13.738,5.323 13.262,5.323 12.97,5.03L11.25,3.311L11.25,12.75C11.25,13.164 10.914,13.5 10.5,13.5C10.086,13.5 9.75,13.164 9.75,12.75L9.75,3.311L8.03,5.03C7.738,5.323 7.262,5.323 6.97,5.03C6.677,4.738 6.677,4.262 6.97,3.97L9.97,0.97Z" style="fill:rgb(237,255,0);"/>
            </g>
        </g>
    </g>
</svg>
