<?xml version="1.0" encoding="UTF-8" standalone="no"?>
<!DOCTYPE svg PUBLIC "-//W3C//DTD SVG 1.1//EN" "http://www.w3.org/Graphics/SVG/1.1/DTD/svg11.dtd">
<svg width="100%" height="100%" viewBox="0 0 112 49" version="1.1" xmlns="http://www.w3.org/2000/svg" xmlns:xlink="http://www.w3.org/1999/xlink" xml:space="preserve" xmlns:serif="http://www.serif.com/" style="fill-rule:evenodd;clip-rule:evenodd;stroke-linejoin:round;stroke-miterlimit:2;">
    <g transform="matrix(1,0,0,1,-2197.33,-2386.65)">
        <g transform="matrix(1.25521,0,0,2.90037,-29.694,-4339.03)">
            <g transform="matrix(1,0,0,1,1.91399,0.823653)">
                <g transform="matrix(0.79668,0,0,0.344784,1807.04,2318.91)">
                    <path d="M5.85,18.454C5.126,17.935 4.65,17.086 4.65,16.136L4.65,10.5C4.65,9.549 5.126,8.701 5.85,8.182C6.317,7.848 6.887,7.65 7.5,7.65L9,7.65C9.331,7.65 9.6,7.919 9.6,8.25C9.6,8.581 9.331,8.85 9,8.85L7.5,8.85C6.595,8.85 5.85,9.595 5.85,10.5L5.85,16.136C5.85,17.041 6.595,17.786 7.5,17.786L16.5,17.786C17.405,17.786 18.15,17.041 18.15,16.136L18.15,10.5C18.15,9.595 17.405,8.85 16.5,8.85L15,8.85C14.669,8.85 14.4,8.581 14.4,8.25C14.4,7.919 14.669,7.65 15,7.65L16.5,7.65C17.113,7.65 17.683,7.848 18.15,8.182C18.874,8.701 19.35,9.549 19.35,10.5L19.35,16.136C19.35,17.086 18.874,17.935 18.15,18.454C17.683,18.788 17.113,18.986 16.5,18.986L7.5,18.986C6.887,18.986 6.317,18.788 5.85,18.454ZM11.4,12.826L11.4,3.852L9.424,5.828C9.19,6.062 8.81,6.062 8.576,5.828C8.342,5.594 8.342,5.214 8.576,4.979L11.576,1.98C11.69,1.865 11.842,1.804 12,1.804C12.158,1.804 12.31,1.865 12.424,1.98L15.424,4.979C15.658,5.214 15.658,5.594 15.424,5.828C15.19,6.062 14.81,6.062 14.576,5.828L12.6,3.852L12.6,12.826L12.6,14.218C12.6,14.549 12.331,14.818 12,14.818C11.669,14.818 11.4,14.549 11.4,14.218L11.4,12.826Z" style="fill:rgb(237,255,0);"/>
                </g>
                <g transform="matrix(0.280292,0,0,0.121304,1362.99,2050.24)">
                    <rect x="1512.52" y="2289.77" width="3.835" height="32.869" style="fill:white;fill-rule:nonzero;"/>
                    <path d="M1533,2323.19C1530.86,2323.19 1528.94,2322.7 1527.23,2321.71C1525.53,2320.72 1524.19,2319.32 1523.21,2317.51C1522.23,2315.7 1521.74,2313.58 1521.74,2311.16C1521.74,2308.71 1522.24,2306.58 1523.23,2304.78C1524.23,2302.98 1525.58,2301.58 1527.3,2300.59C1529.02,2299.6 1530.95,2299.11 1533.09,2299.11C1535.27,2299.11 1537.2,2299.6 1538.9,2300.59C1540.6,2301.58 1541.94,2302.98 1542.92,2304.78C1543.9,2306.57 1544.39,2308.7 1544.39,2311.16C1544.39,2313.59 1543.89,2315.7 1542.9,2317.51C1541.9,2319.32 1540.55,2320.72 1538.83,2321.71C1537.12,2322.7 1535.17,2323.19 1533,2323.19ZM1533.02,2319.9C1534.35,2319.9 1535.58,2319.58 1536.7,2318.93C1537.83,2318.28 1538.74,2317.3 1539.43,2315.99C1540.12,2314.68 1540.46,2313.07 1540.46,2311.14C1540.46,2309.19 1540.12,2307.57 1539.45,2306.28C1538.78,2304.99 1537.88,2304.02 1536.76,2303.37C1535.63,2302.72 1534.41,2302.4 1533.1,2302.4C1531.8,2302.4 1530.59,2302.72 1529.45,2303.37C1528.32,2304.02 1527.4,2304.99 1526.71,2306.28C1526.02,2307.58 1525.67,2309.2 1525.67,2311.15C1525.67,2313.08 1526.01,2314.69 1526.7,2315.99C1527.39,2317.3 1528.29,2318.28 1529.4,2318.93C1530.51,2319.58 1531.72,2319.9 1533.02,2319.9Z" style="fill:white;fill-rule:nonzero;"/>
                    <path d="M1557.92,2333.23C1555.85,2333.23 1554.02,2332.97 1552.43,2332.43C1550.83,2331.9 1549.59,2331.09 1548.71,2329.99C1547.82,2328.9 1547.38,2327.54 1547.38,2325.93C1547.38,2325.24 1547.52,2324.5 1547.81,2323.71C1548.1,2322.92 1548.6,2322.15 1549.32,2321.39C1550.03,2320.63 1551.04,2319.94 1552.35,2319.33L1555,2320.89C1553.4,2321.55 1552.36,2322.32 1551.86,2323.18C1551.37,2324.04 1551.12,2324.83 1551.12,2325.56C1551.12,2326.57 1551.41,2327.41 1551.99,2328.08C1552.58,2328.74 1553.38,2329.25 1554.41,2329.58C1555.44,2329.92 1556.61,2330.08 1557.92,2330.08C1559.22,2330.08 1560.35,2329.9 1561.29,2329.52C1562.23,2329.15 1562.97,2328.63 1563.49,2327.97C1564.01,2327.3 1564.27,2326.51 1564.27,2325.61C1564.27,2324.56 1563.87,2323.68 1563.09,2322.96C1562.3,2322.25 1560.8,2321.83 1558.58,2321.71C1556.77,2321.59 1555.26,2321.42 1554.05,2321.2C1552.83,2320.99 1551.83,2320.74 1551.03,2320.45C1550.24,2320.16 1549.58,2319.84 1549.04,2319.47C1548.51,2319.1 1548.03,2318.72 1547.61,2318.33L1547.61,2317.28L1552.06,2312.87L1555.39,2314.06L1550.8,2318.19L1551.39,2316.59C1551.73,2316.84 1552.05,2317.06 1552.35,2317.26C1552.66,2317.46 1553.07,2317.64 1553.59,2317.8C1554.11,2317.95 1554.84,2318.1 1555.76,2318.23C1556.68,2318.36 1557.91,2318.48 1559.45,2318.6C1561.53,2318.75 1563.2,2319.12 1564.46,2319.7C1565.73,2320.28 1566.64,2321.05 1567.21,2322.03C1567.77,2323 1568.06,2324.15 1568.06,2325.47C1568.06,2326.77 1567.7,2328.01 1566.98,2329.19C1566.27,2330.37 1565.16,2331.34 1563.67,2332.1C1562.18,2332.86 1560.27,2333.23 1557.92,2333.23ZM1557.88,2315.43C1555.95,2315.43 1554.32,2315.07 1552.98,2314.35C1551.63,2313.62 1550.61,2312.64 1549.91,2311.41C1549.21,2310.17 1548.86,2308.79 1548.86,2307.27C1548.86,2305.75 1549.21,2304.38 1549.92,2303.16C1550.62,2301.93 1551.64,2300.95 1552.99,2300.22C1554.33,2299.48 1555.96,2299.11 1557.88,2299.11C1559.81,2299.11 1561.44,2299.48 1562.78,2300.22C1564.12,2300.95 1565.14,2301.93 1565.84,2303.16C1566.54,2304.38 1566.89,2305.75 1566.89,2307.27C1566.89,2308.79 1566.54,2310.17 1565.84,2311.41C1565.14,2312.64 1564.12,2313.62 1562.78,2314.35C1561.44,2315.07 1559.81,2315.43 1557.88,2315.43ZM1557.88,2312.28C1559.51,2312.28 1560.81,2311.85 1561.76,2311C1562.72,2310.15 1563.19,2308.91 1563.19,2307.27C1563.19,2305.66 1562.72,2304.43 1561.76,2303.58C1560.81,2302.73 1559.51,2302.3 1557.88,2302.3C1556.26,2302.3 1554.96,2302.73 1553.98,2303.58C1552.99,2304.43 1552.5,2305.66 1552.5,2307.27C1552.5,2308.91 1552.99,2310.15 1553.97,2311C1554.94,2311.85 1556.25,2312.28 1557.88,2312.28ZM1561.62,2302.9L1560.48,2299.66L1569.88,2299.66L1569.88,2302.53L1561.62,2302.9Z" style="fill:white;fill-rule:nonzero;"/>
                    <path d="M1583.68,2323.19C1581.53,2323.19 1579.61,2322.7 1577.91,2321.71C1576.2,2320.72 1574.86,2319.32 1573.88,2317.51C1572.9,2315.7 1572.42,2313.58 1572.42,2311.16C1572.42,2308.71 1572.91,2306.58 1573.91,2304.78C1574.9,2302.98 1576.26,2301.58 1577.98,2300.59C1579.69,2299.6 1581.62,2299.11 1583.77,2299.11C1585.94,2299.11 1587.88,2299.6 1589.58,2300.59C1591.28,2301.58 1592.62,2302.98 1593.59,2304.78C1594.57,2306.57 1595.06,2308.7 1595.06,2311.16C1595.06,2313.59 1594.56,2315.7 1593.57,2317.51C1592.58,2319.32 1591.22,2320.72 1589.51,2321.71C1587.79,2322.7 1585.85,2323.19 1583.68,2323.19ZM1583.69,2319.9C1585.03,2319.9 1586.25,2319.58 1587.38,2318.93C1588.51,2318.28 1589.41,2317.3 1590.1,2315.99C1590.79,2314.68 1591.13,2313.07 1591.13,2311.14C1591.13,2309.19 1590.8,2307.57 1590.12,2306.28C1589.45,2304.99 1588.55,2304.02 1587.43,2303.37C1586.31,2302.72 1585.09,2302.4 1583.77,2302.4C1582.48,2302.4 1581.26,2302.72 1580.13,2303.37C1578.99,2304.02 1578.07,2304.99 1577.38,2306.28C1576.69,2307.58 1576.34,2309.2 1576.34,2311.15C1576.34,2313.08 1576.69,2314.69 1577.38,2315.99C1578.06,2317.3 1578.96,2318.28 1580.08,2318.93C1581.19,2319.58 1582.39,2319.9 1583.69,2319.9Z" style="fill:white;fill-rule:nonzero;"/>
                    <path d="M1600.86,2322.64L1600.86,2299.66L1604.69,2299.66L1604.69,2322.64L1600.86,2322.64ZM1602.78,2294.75C1602.01,2294.75 1601.38,2294.5 1600.88,2294C1600.38,2293.49 1600.13,2292.86 1600.13,2292.1C1600.13,2291.34 1600.38,2290.72 1600.88,2290.25C1601.38,2289.78 1602.01,2289.55 1602.78,2289.55C1603.51,2289.55 1604.13,2289.78 1604.65,2290.25C1605.16,2290.72 1605.42,2291.34 1605.42,2292.1C1605.42,2292.86 1605.16,2293.49 1604.65,2294C1604.13,2294.5 1603.51,2294.75 1602.78,2294.75Z" style="fill:white;fill-rule:nonzero;"/>
                    <path d="M1611.39,2332.69L1611.39,2299.66L1614.86,2299.66L1615.22,2303.4C1615.7,2302.65 1616.32,2301.95 1617.08,2301.3C1617.84,2300.65 1618.75,2300.12 1619.81,2299.72C1620.87,2299.31 1622.1,2299.11 1623.49,2299.11C1625.72,2299.11 1627.66,2299.64 1629.32,2300.69C1630.98,2301.74 1632.27,2303.17 1633.2,2304.98C1634.13,2306.79 1634.59,2308.87 1634.59,2311.2C1634.59,2313.51 1634.13,2315.57 1633.2,2317.38C1632.27,2319.18 1630.97,2320.6 1629.3,2321.64C1627.62,2322.67 1625.67,2323.19 1623.44,2323.19C1621.59,2323.19 1619.95,2322.81 1618.53,2322.05C1617.1,2321.29 1616,2320.22 1615.23,2318.85L1615.23,2332.69L1611.39,2332.69ZM1623.02,2319.86C1624.52,2319.86 1625.84,2319.5 1627,2318.77C1628.16,2318.05 1629.07,2317.04 1629.72,2315.73C1630.38,2314.43 1630.7,2312.9 1630.7,2311.15C1630.7,2309.4 1630.38,2307.87 1629.72,2306.57C1629.07,2305.26 1628.16,2304.25 1627,2303.53C1625.84,2302.8 1624.52,2302.44 1623.02,2302.44C1621.5,2302.44 1620.16,2302.8 1619,2303.53C1617.84,2304.25 1616.94,2305.26 1616.29,2306.57C1615.65,2307.87 1615.33,2309.4 1615.33,2311.15C1615.33,2312.9 1615.65,2314.43 1616.29,2315.73C1616.94,2317.04 1617.84,2318.05 1619,2318.77C1620.16,2319.5 1621.5,2319.86 1623.02,2319.86Z" style="fill:white;fill-rule:nonzero;"/>
                    <path d="M1648.67,2323.19C1646.78,2323.19 1645.12,2322.87 1643.7,2322.24C1642.27,2321.61 1641.14,2320.72 1640.31,2319.57C1639.47,2318.42 1638.96,2317.07 1638.76,2315.52L1642.69,2315.52C1642.85,2316.32 1643.18,2317.06 1643.67,2317.73C1644.15,2318.4 1644.82,2318.94 1645.66,2319.34C1646.5,2319.75 1647.52,2319.95 1648.71,2319.95C1649.79,2319.95 1650.68,2319.79 1651.38,2319.47C1652.07,2319.15 1652.59,2318.72 1652.94,2318.17C1653.29,2317.63 1653.46,2317.03 1653.46,2316.39C1653.46,2315.45 1653.24,2314.74 1652.8,2314.24C1652.36,2313.75 1651.71,2313.36 1650.86,2313.08C1650.02,2312.81 1648.99,2312.56 1647.79,2312.34C1646.77,2312.15 1645.78,2311.91 1644.81,2311.6C1643.84,2311.28 1642.98,2310.88 1642.22,2310.39C1641.46,2309.9 1640.85,2309.28 1640.41,2308.54C1639.96,2307.8 1639.74,2306.9 1639.74,2305.84C1639.74,2304.53 1640.08,2303.37 1640.76,2302.36C1641.43,2301.34 1642.4,2300.55 1643.64,2299.97C1644.89,2299.4 1646.37,2299.11 1648.06,2299.11C1650.51,2299.11 1652.5,2299.7 1654.03,2300.89C1655.56,2302.08 1656.45,2303.79 1656.7,2306.03L1652.91,2306.03C1652.78,2304.88 1652.29,2303.98 1651.44,2303.33C1650.6,2302.68 1649.45,2302.35 1648.02,2302.35C1646.58,2302.35 1645.49,2302.64 1644.74,2303.22C1644,2303.8 1643.62,2304.56 1643.62,2305.5C1643.62,2306.11 1643.83,2306.65 1644.23,2307.12C1644.64,2307.59 1645.25,2307.99 1646.07,2308.31C1646.89,2308.64 1647.89,2308.91 1649.07,2309.14C1650.59,2309.42 1651.97,2309.79 1653.22,2310.24C1654.47,2310.68 1655.48,2311.36 1656.25,2312.25C1657.01,2313.14 1657.39,2314.42 1657.39,2316.07C1657.41,2317.49 1657.06,2318.74 1656.34,2319.81C1655.61,2320.89 1654.6,2321.72 1653.3,2322.31C1652,2322.89 1650.45,2323.19 1648.67,2323.19Z" style="fill:white;fill-rule:nonzero;"/>
                    <path d="M1671.28,2323.19C1669.51,2323.19 1667.97,2322.84 1666.65,2322.13C1665.33,2321.43 1664.31,2320.35 1663.59,2318.9C1662.87,2317.45 1662.51,2315.62 1662.51,2313.41L1662.51,2299.66L1666.35,2299.66L1666.35,2313C1666.35,2315.3 1666.85,2317.03 1667.85,2318.18C1668.86,2319.33 1670.29,2319.9 1672.14,2319.9C1673.42,2319.9 1674.57,2319.59 1675.6,2318.97C1676.62,2318.35 1677.43,2317.45 1678.02,2316.27C1678.61,2315.09 1678.91,2313.64 1678.91,2311.94L1678.91,2299.66L1682.75,2299.66L1682.75,2322.64L1679.28,2322.64L1679.05,2318.64C1678.34,2320.06 1677.3,2321.17 1675.93,2321.98C1674.56,2322.79 1673.01,2323.19 1671.28,2323.19Z" style="fill:white;fill-rule:nonzero;"/>
                    <path d="M1689.09,2322.64L1689.09,2299.66L1692.56,2299.66L1692.81,2302.94C1693.54,2301.73 1694.52,2300.79 1695.75,2300.12C1696.97,2299.45 1698.32,2299.11 1699.81,2299.11C1700.99,2299.11 1702.06,2299.27 1703.02,2299.59C1703.98,2299.91 1704.83,2300.39 1705.57,2301.05C1706.3,2301.7 1706.89,2302.53 1707.34,2303.53C1708.13,2302.12 1709.22,2301.03 1710.61,2300.26C1712,2299.49 1713.47,2299.11 1715.03,2299.11C1716.82,2299.11 1718.38,2299.46 1719.69,2300.17C1721.02,2300.88 1722.03,2301.96 1722.75,2303.41C1723.47,2304.87 1723.83,2306.7 1723.83,2308.9L1723.83,2322.64L1720.04,2322.64L1720.04,2309.31C1720.04,2307.01 1719.57,2305.29 1718.63,2304.13C1717.68,2302.97 1716.35,2302.4 1714.62,2302.4C1713.43,2302.4 1712.37,2302.71 1711.43,2303.33C1710.48,2303.96 1709.74,2304.86 1709.19,2306.04C1708.65,2307.22 1708.38,2308.68 1708.38,2310.41L1708.38,2322.64L1704.54,2322.64L1704.54,2309.31C1704.54,2307.01 1704.07,2305.29 1703.13,2304.13C1702.18,2302.97 1700.85,2302.4 1699.13,2302.4C1697.98,2302.4 1696.93,2302.71 1695.98,2303.33C1695.04,2303.96 1694.3,2304.86 1693.75,2306.04C1693.2,2307.22 1692.93,2308.68 1692.93,2310.41L1692.93,2322.64L1689.09,2322.64Z" style="fill:white;fill-rule:nonzero;"/>
                </g>
            </g>
            <g transform="matrix(0.692554,0,0,0.347672,696.33,1523.04)">
                <rect x="1556.41" y="2289.12" width="127.775" height="47.881" style="fill:none;"/>
            </g>
        </g>
    </g>
</svg>
