<?xml version="1.0" encoding="UTF-8" standalone="no"?>
<!DOCTYPE svg PUBLIC "-//W3C//DTD SVG 1.1//EN" "http://www.w3.org/Graphics/SVG/1.1/DTD/svg11.dtd">
<svg width="100%" height="100%" viewBox="0 0 205 122" version="1.1" xmlns="http://www.w3.org/2000/svg" xmlns:xlink="http://www.w3.org/1999/xlink" xml:space="preserve" xmlns:serif="http://www.serif.com/" style="fill-rule:evenodd;clip-rule:evenodd;stroke-linecap:round;stroke-linejoin:round;">
    <g transform="matrix(1,0,0,1,-2229.18,-2472.16)">
        <g>
            <g transform="matrix(1.92529,0,0,1.92529,-2200.69,-2759.81)">
                <g>
                    <g transform="matrix(0.804104,0,0,0.804104,515.124,466.412)">
                        <g transform="matrix(0.425109,0,0,0.425109,2219.22,2868.41)">
                            <path d="M19.5,14.25L19.5,11.625C19.5,9.774 17.976,8.25 16.125,8.25L14.625,8.25C14.008,8.25 13.5,7.742 13.5,7.125L13.5,5.625C13.5,3.774 11.976,2.25 10.125,2.25L8.25,2.25M15,14.25L12,11.25M12,11.25L9,14.25M12,11.25L12,17.25M10.5,2.25L5.625,2.25C5.004,2.25 4.5,2.754 4.5,3.375L4.5,20.625C4.5,21.246 5.004,21.75 5.625,21.75L18.375,21.75C18.996,21.75 19.5,21.246 19.5,20.625L19.5,11.25C19.5,6.313 15.437,2.25 10.5,2.25Z" style="fill:none;fill-rule:nonzero;stroke:rgb(237,255,0);stroke-width:1.5px;"/>
                        </g>
                        <g transform="matrix(0.465292,0,0,0.465292,1214.17,1595.48)">
                            <g transform="matrix(16.9744,0,0,16.9744,2187.44,2752.76)">
                                <path d="M0.17,-0L0.022,-0.504L0.121,-0.504L0.231,-0.084L0.212,-0.085L0.334,-0.504L0.446,-0.504L0.568,-0.085L0.549,-0.084L0.658,-0.504L0.759,-0.504L0.611,-0L0.508,-0L0.38,-0.437L0.4,-0.437L0.272,-0L0.17,-0Z" style="fill:white;fill-rule:nonzero;"/>
                            </g>
                            <g transform="matrix(16.9744,0,0,16.9744,2200.36,2752.76)">
                                <path d="M0.298,0.012C0.251,0.012 0.208,0.001 0.17,-0.021C0.133,-0.043 0.103,-0.074 0.081,-0.113C0.06,-0.153 0.049,-0.199 0.049,-0.251C0.049,-0.305 0.06,-0.351 0.082,-0.391C0.104,-0.43 0.134,-0.461 0.172,-0.483C0.21,-0.505 0.252,-0.516 0.3,-0.516C0.348,-0.516 0.39,-0.505 0.428,-0.483C0.466,-0.461 0.495,-0.43 0.517,-0.391C0.539,-0.351 0.549,-0.305 0.549,-0.252C0.549,-0.199 0.538,-0.153 0.516,-0.113C0.495,-0.073 0.465,-0.043 0.427,-0.021C0.389,0.001 0.346,0.012 0.298,0.012ZM0.298,-0.074C0.325,-0.074 0.35,-0.081 0.372,-0.094C0.395,-0.107 0.413,-0.127 0.427,-0.153C0.44,-0.18 0.447,-0.213 0.447,-0.252C0.447,-0.291 0.44,-0.324 0.427,-0.351C0.414,-0.377 0.396,-0.397 0.373,-0.41C0.351,-0.423 0.326,-0.43 0.3,-0.43C0.274,-0.43 0.249,-0.423 0.226,-0.41C0.204,-0.397 0.185,-0.377 0.172,-0.35C0.158,-0.324 0.151,-0.291 0.151,-0.252C0.151,-0.213 0.158,-0.18 0.172,-0.153C0.185,-0.127 0.203,-0.107 0.226,-0.094C0.248,-0.081 0.272,-0.074 0.298,-0.074Z" style="fill:white;fill-rule:nonzero;"/>
                            </g>
                            <g transform="matrix(16.9744,0,0,16.9744,2210.52,2752.76)">
                                <path d="M0.068,-0L0.068,-0.504L0.158,-0.504L0.167,-0.409C0.178,-0.431 0.193,-0.45 0.211,-0.466C0.229,-0.482 0.25,-0.494 0.275,-0.503C0.299,-0.511 0.327,-0.516 0.358,-0.516L0.358,-0.41L0.322,-0.41C0.301,-0.41 0.281,-0.408 0.263,-0.403C0.244,-0.397 0.228,-0.389 0.213,-0.377C0.199,-0.365 0.188,-0.349 0.18,-0.328C0.172,-0.308 0.168,-0.282 0.168,-0.251L0.168,-0L0.068,-0Z" style="fill:white;fill-rule:nonzero;"/>
                            </g>
                            <g transform="matrix(16.9744,0,0,16.9744,2216.69,2752.76)">
                                <path d="M0.292,0.012C0.244,0.012 0.202,0.001 0.165,-0.022C0.129,-0.045 0.1,-0.077 0.08,-0.117C0.059,-0.156 0.049,-0.202 0.049,-0.252C0.049,-0.303 0.059,-0.348 0.08,-0.388C0.1,-0.428 0.129,-0.459 0.166,-0.481C0.203,-0.504 0.245,-0.516 0.293,-0.516C0.333,-0.516 0.367,-0.508 0.397,-0.492C0.427,-0.476 0.451,-0.455 0.467,-0.426L0.467,-0.72L0.567,-0.72L0.567,-0L0.478,-0L0.468,-0.078C0.457,-0.063 0.444,-0.048 0.428,-0.034C0.412,-0.02 0.393,-0.009 0.37,-0.001C0.348,0.008 0.322,0.012 0.292,0.012ZM0.308,-0.075C0.34,-0.075 0.367,-0.082 0.391,-0.097C0.415,-0.112 0.433,-0.133 0.447,-0.159C0.46,-0.186 0.466,-0.217 0.466,-0.252C0.466,-0.287 0.46,-0.318 0.447,-0.345C0.433,-0.371 0.415,-0.392 0.391,-0.406C0.367,-0.421 0.34,-0.429 0.308,-0.429C0.278,-0.429 0.251,-0.421 0.227,-0.406C0.203,-0.392 0.185,-0.371 0.171,-0.345C0.158,-0.318 0.151,-0.287 0.151,-0.252C0.151,-0.217 0.158,-0.186 0.171,-0.159C0.185,-0.133 0.203,-0.112 0.227,-0.097C0.251,-0.082 0.278,-0.075 0.308,-0.075Z" style="fill:white;fill-rule:nonzero;"/>
                            </g>
                            <g transform="matrix(16.9744,0,0,16.9744,2227.48,2752.76)">
                                <path d="M0.068,-0L0.068,-0.504L0.158,-0.504L0.165,-0.433C0.181,-0.459 0.202,-0.479 0.229,-0.494C0.256,-0.508 0.286,-0.516 0.319,-0.516C0.344,-0.516 0.367,-0.512 0.388,-0.505C0.409,-0.498 0.427,-0.488 0.443,-0.474C0.459,-0.46 0.472,-0.443 0.482,-0.422C0.5,-0.452 0.524,-0.475 0.554,-0.491C0.584,-0.507 0.617,-0.516 0.651,-0.516C0.692,-0.516 0.727,-0.507 0.756,-0.491C0.785,-0.475 0.807,-0.451 0.823,-0.419C0.838,-0.386 0.846,-0.346 0.846,-0.298L0.846,-0L0.747,-0L0.747,-0.288C0.747,-0.335 0.738,-0.37 0.718,-0.394C0.699,-0.418 0.672,-0.43 0.635,-0.43C0.611,-0.43 0.589,-0.424 0.569,-0.411C0.55,-0.399 0.535,-0.38 0.524,-0.356C0.513,-0.332 0.507,-0.303 0.507,-0.268L0.507,-0L0.407,-0L0.407,-0.288C0.407,-0.335 0.398,-0.37 0.379,-0.394C0.36,-0.418 0.332,-0.43 0.295,-0.43C0.271,-0.43 0.25,-0.424 0.231,-0.411C0.211,-0.399 0.196,-0.38 0.185,-0.356C0.174,-0.332 0.168,-0.303 0.168,-0.268L0.168,-0L0.068,-0Z" style="fill:white;fill-rule:nonzero;"/>
                            </g>
                            <g transform="matrix(16.9744,0,0,16.9744,2242.86,2752.76)">
                                <path d="M0.235,0.012C0.194,0.012 0.159,0.005 0.132,-0.009C0.105,-0.023 0.085,-0.042 0.071,-0.066C0.058,-0.089 0.051,-0.115 0.051,-0.142C0.051,-0.175 0.06,-0.204 0.077,-0.227C0.094,-0.251 0.119,-0.269 0.151,-0.282C0.183,-0.294 0.221,-0.301 0.267,-0.301L0.397,-0.301C0.397,-0.33 0.393,-0.354 0.384,-0.374C0.376,-0.393 0.363,-0.408 0.346,-0.418C0.328,-0.427 0.307,-0.432 0.281,-0.432C0.251,-0.432 0.226,-0.425 0.204,-0.411C0.182,-0.396 0.169,-0.375 0.164,-0.347L0.064,-0.347C0.068,-0.383 0.08,-0.413 0.1,-0.438C0.121,-0.463 0.147,-0.482 0.179,-0.495C0.211,-0.509 0.245,-0.516 0.281,-0.516C0.328,-0.516 0.368,-0.507 0.4,-0.491C0.432,-0.474 0.456,-0.45 0.472,-0.42C0.489,-0.39 0.497,-0.354 0.497,-0.312L0.497,-0L0.41,-0L0.402,-0.085C0.395,-0.072 0.386,-0.059 0.376,-0.047C0.366,-0.035 0.354,-0.025 0.34,-0.016C0.327,-0.007 0.311,-0.001 0.294,0.004C0.276,0.009 0.256,0.012 0.235,0.012ZM0.254,-0.069C0.275,-0.069 0.295,-0.074 0.312,-0.082C0.329,-0.091 0.344,-0.103 0.356,-0.118C0.369,-0.133 0.378,-0.15 0.384,-0.169C0.391,-0.187 0.395,-0.207 0.395,-0.227L0.395,-0.23L0.276,-0.23C0.248,-0.23 0.224,-0.227 0.207,-0.22C0.189,-0.213 0.176,-0.203 0.168,-0.191C0.16,-0.179 0.156,-0.165 0.156,-0.149C0.156,-0.133 0.16,-0.118 0.168,-0.107C0.175,-0.095 0.186,-0.085 0.201,-0.079C0.216,-0.073 0.233,-0.069 0.254,-0.069Z" style="fill:white;fill-rule:nonzero;"/>
                            </g>
                            <g transform="matrix(16.9744,0,0,16.9744,2252.32,2752.76)">
                                <path d="M0.068,-0L0.068,-0.504L0.158,-0.504L0.167,-0.409C0.178,-0.431 0.193,-0.45 0.211,-0.466C0.229,-0.482 0.25,-0.494 0.275,-0.503C0.299,-0.511 0.327,-0.516 0.358,-0.516L0.358,-0.41L0.322,-0.41C0.301,-0.41 0.281,-0.408 0.263,-0.403C0.244,-0.397 0.228,-0.389 0.213,-0.377C0.199,-0.365 0.188,-0.349 0.18,-0.328C0.172,-0.308 0.168,-0.282 0.168,-0.251L0.168,-0L0.068,-0Z" style="fill:white;fill-rule:nonzero;"/>
                            </g>
                            <g transform="matrix(16.9744,0,0,16.9744,2258.81,2752.76)">
                                <path d="M0.385,-0L0.153,-0.276L0.363,-0.504L0.484,-0.504L0.234,-0.237L0.234,-0.312L0.511,-0L0.385,-0ZM0.068,-0L0.068,-0.72L0.168,-0.72L0.168,-0L0.068,-0Z" style="fill:white;fill-rule:nonzero;"/>
                            </g>
                            <g transform="matrix(16.9744,0,0,16.9744,2267.76,2752.76)">
                                <path d="M0.108,0.005C0.089,0.005 0.073,-0.001 0.061,-0.013C0.048,-0.026 0.042,-0.041 0.042,-0.058C0.042,-0.076 0.048,-0.092 0.061,-0.104C0.073,-0.116 0.089,-0.122 0.108,-0.122C0.127,-0.122 0.143,-0.116 0.155,-0.104C0.167,-0.092 0.173,-0.076 0.173,-0.058C0.173,-0.041 0.167,-0.026 0.155,-0.013C0.143,-0.001 0.127,0.005 0.108,0.005Z" style="fill:white;fill-rule:nonzero;"/>
                            </g>
                            <g transform="matrix(16.9744,0,0,16.9744,2271.42,2752.76)">
                                <path d="M0.263,0.012C0.221,0.012 0.183,0.005 0.151,-0.009C0.119,-0.023 0.094,-0.043 0.075,-0.068C0.057,-0.094 0.045,-0.123 0.041,-0.157L0.143,-0.157C0.146,-0.141 0.153,-0.126 0.162,-0.113C0.172,-0.1 0.186,-0.089 0.203,-0.081C0.219,-0.073 0.24,-0.069 0.263,-0.069C0.285,-0.069 0.303,-0.072 0.317,-0.079C0.331,-0.085 0.342,-0.094 0.349,-0.104C0.356,-0.115 0.359,-0.127 0.359,-0.14C0.359,-0.158 0.355,-0.172 0.346,-0.182C0.337,-0.192 0.323,-0.2 0.305,-0.205C0.288,-0.211 0.267,-0.216 0.242,-0.221C0.219,-0.225 0.197,-0.231 0.175,-0.238C0.153,-0.245 0.134,-0.253 0.117,-0.264C0.099,-0.275 0.086,-0.288 0.076,-0.305C0.066,-0.321 0.061,-0.341 0.061,-0.365C0.061,-0.394 0.068,-0.42 0.084,-0.443C0.099,-0.465 0.121,-0.483 0.149,-0.496C0.177,-0.509 0.211,-0.516 0.25,-0.516C0.306,-0.516 0.351,-0.502 0.385,-0.476C0.419,-0.449 0.439,-0.412 0.445,-0.363L0.348,-0.363C0.345,-0.386 0.335,-0.403 0.318,-0.415C0.301,-0.428 0.278,-0.434 0.249,-0.434C0.22,-0.434 0.198,-0.429 0.183,-0.417C0.168,-0.406 0.16,-0.391 0.16,-0.372C0.16,-0.36 0.164,-0.349 0.173,-0.34C0.182,-0.331 0.195,-0.323 0.212,-0.316C0.229,-0.31 0.25,-0.304 0.274,-0.299C0.31,-0.292 0.341,-0.284 0.369,-0.274C0.397,-0.264 0.419,-0.25 0.436,-0.23C0.453,-0.211 0.461,-0.183 0.461,-0.147C0.461,-0.115 0.453,-0.088 0.437,-0.064C0.421,-0.04 0.398,-0.021 0.368,-0.008C0.339,0.005 0.304,0.012 0.263,0.012Z" style="fill:white;fill-rule:nonzero;"/>
                            </g>
                            <g transform="matrix(16.9744,0,0,16.9744,2279.64,2752.76)">
                                <path d="M0.211,-0L0.022,-0.504L0.127,-0.504L0.27,-0.096L0.414,-0.504L0.517,-0.504L0.329,-0L0.211,-0Z" style="fill:white;fill-rule:nonzero;"/>
                            </g>
                            <g transform="matrix(16.9744,0,0,16.9744,2288.43,2752.76)">
                                <path d="M0.273,0.232C0.227,0.232 0.186,0.226 0.151,0.215C0.116,0.203 0.088,0.185 0.069,0.161C0.049,0.137 0.04,0.108 0.04,0.073C0.04,0.055 0.044,0.037 0.052,0.018C0.06,0 0.073,-0.017 0.091,-0.034C0.109,-0.051 0.133,-0.066 0.164,-0.079L0.22,-0.034C0.186,-0.021 0.163,-0.006 0.152,0.012C0.14,0.029 0.134,0.046 0.134,0.063C0.134,0.083 0.14,0.099 0.152,0.113C0.164,0.126 0.181,0.136 0.202,0.143C0.223,0.149 0.246,0.153 0.273,0.153C0.299,0.153 0.322,0.149 0.341,0.142C0.36,0.134 0.375,0.124 0.386,0.111C0.396,0.098 0.402,0.082 0.402,0.064C0.402,0.043 0.394,0.025 0.378,0.01C0.362,-0.004 0.332,-0.012 0.286,-0.015C0.248,-0.018 0.216,-0.021 0.19,-0.026C0.163,-0.031 0.141,-0.037 0.123,-0.043C0.105,-0.05 0.089,-0.057 0.077,-0.065C0.065,-0.073 0.054,-0.082 0.045,-0.09L0.045,-0.113L0.145,-0.216L0.226,-0.188L0.117,-0.087L0.138,-0.132C0.145,-0.127 0.152,-0.122 0.159,-0.118C0.166,-0.114 0.175,-0.11 0.186,-0.107C0.197,-0.104 0.213,-0.101 0.232,-0.098C0.251,-0.095 0.277,-0.093 0.308,-0.09C0.353,-0.087 0.39,-0.079 0.417,-0.066C0.445,-0.053 0.466,-0.036 0.478,-0.015C0.491,0.006 0.497,0.032 0.497,0.061C0.497,0.09 0.489,0.117 0.474,0.143C0.458,0.169 0.433,0.191 0.4,0.207C0.367,0.224 0.325,0.232 0.273,0.232ZM0.273,-0.155C0.231,-0.155 0.195,-0.163 0.165,-0.179C0.135,-0.195 0.112,-0.217 0.097,-0.244C0.081,-0.271 0.073,-0.302 0.073,-0.335C0.073,-0.369 0.081,-0.399 0.097,-0.426C0.113,-0.453 0.135,-0.475 0.165,-0.491C0.195,-0.507 0.231,-0.516 0.273,-0.516C0.315,-0.516 0.351,-0.507 0.381,-0.491C0.41,-0.475 0.433,-0.453 0.448,-0.426C0.464,-0.399 0.472,-0.369 0.472,-0.335C0.472,-0.302 0.464,-0.271 0.448,-0.244C0.433,-0.217 0.41,-0.195 0.381,-0.179C0.351,-0.163 0.315,-0.155 0.273,-0.155ZM0.273,-0.235C0.305,-0.235 0.331,-0.243 0.351,-0.26C0.37,-0.277 0.38,-0.302 0.38,-0.335C0.38,-0.367 0.37,-0.392 0.351,-0.409C0.331,-0.426 0.305,-0.435 0.273,-0.435C0.24,-0.435 0.214,-0.426 0.194,-0.409C0.174,-0.392 0.164,-0.367 0.164,-0.335C0.164,-0.302 0.174,-0.277 0.194,-0.26C0.214,-0.243 0.24,-0.235 0.273,-0.235ZM0.355,-0.425L0.331,-0.504L0.538,-0.504L0.538,-0.435L0.355,-0.425Z" style="fill:white;fill-rule:nonzero;"/>
                            </g>
                            <g transform="matrix(16.9744,0,0,16.9744,2298.1,2752.76)">
                            </g>
                        </g>
                    </g>
                    <g transform="matrix(0.804104,0,0,0.804104,573.202,420.285)">
                        <g transform="matrix(0.425109,0,0,0.425109,2219.22,2909.87)">
                            <path d="M19.5,14.25L19.5,11.625C19.5,9.774 17.976,8.25 16.125,8.25L14.625,8.25C14.008,8.25 13.5,7.742 13.5,7.125L13.5,5.625C13.5,3.774 11.976,2.25 10.125,2.25L8.25,2.25M15,14.25L12,11.25M12,11.25L9,14.25M12,11.25L12,17.25M10.5,2.25L5.625,2.25C5.004,2.25 4.5,2.754 4.5,3.375L4.5,20.625C4.5,21.246 5.004,21.75 5.625,21.75L18.375,21.75C18.996,21.75 19.5,21.246 19.5,20.625L19.5,11.25C19.5,6.313 15.437,2.25 10.5,2.25Z" style="fill:none;fill-rule:nonzero;stroke:rgb(237,255,0);stroke-width:1.5px;"/>
                        </g>
                        <g transform="matrix(0.465292,0,0,0.465292,1204.49,1636.94)">
                            <g transform="matrix(16.9744,0,0,16.9744,2208.25,2752.76)">
                                <path d="M0.211,-0L0.022,-0.504L0.127,-0.504L0.27,-0.096L0.414,-0.504L0.517,-0.504L0.329,-0L0.211,-0Z" style="fill:white;fill-rule:nonzero;"/>
                            </g>
                            <g transform="matrix(16.9744,0,0,16.9744,2216.97,2752.76)">
                                <path d="M0.296,0.012C0.248,0.012 0.205,0.001 0.168,-0.021C0.131,-0.043 0.102,-0.073 0.081,-0.113C0.06,-0.152 0.049,-0.198 0.049,-0.25C0.049,-0.303 0.059,-0.35 0.08,-0.389C0.101,-0.429 0.13,-0.46 0.168,-0.482C0.205,-0.504 0.249,-0.516 0.298,-0.516C0.347,-0.516 0.39,-0.505 0.425,-0.483C0.461,-0.461 0.488,-0.432 0.507,-0.395C0.526,-0.359 0.536,-0.319 0.536,-0.275C0.536,-0.268 0.535,-0.261 0.535,-0.254C0.535,-0.246 0.535,-0.238 0.534,-0.228L0.122,-0.228L0.122,-0.299L0.436,-0.299C0.434,-0.341 0.42,-0.373 0.394,-0.397C0.368,-0.421 0.336,-0.433 0.297,-0.433C0.27,-0.433 0.245,-0.426 0.222,-0.414C0.2,-0.402 0.181,-0.384 0.168,-0.36C0.154,-0.337 0.147,-0.307 0.147,-0.271L0.147,-0.243C0.147,-0.205 0.154,-0.174 0.167,-0.149C0.181,-0.123 0.199,-0.104 0.222,-0.091C0.245,-0.078 0.269,-0.071 0.296,-0.071C0.328,-0.071 0.355,-0.078 0.375,-0.092C0.396,-0.106 0.411,-0.125 0.421,-0.149L0.521,-0.149C0.513,-0.119 0.498,-0.091 0.477,-0.067C0.457,-0.043 0.431,-0.023 0.401,-0.009C0.371,0.005 0.336,0.012 0.296,0.012Z" style="fill:white;fill-rule:nonzero;"/>
                            </g>
                            <g transform="matrix(16.9744,0,0,16.9744,2226.79,2752.76)">
                                <path d="M0.068,-0L0.068,-0.504L0.158,-0.504L0.167,-0.409C0.178,-0.431 0.193,-0.45 0.211,-0.466C0.229,-0.482 0.25,-0.494 0.275,-0.503C0.299,-0.511 0.327,-0.516 0.358,-0.516L0.358,-0.41L0.322,-0.41C0.301,-0.41 0.281,-0.408 0.263,-0.403C0.244,-0.397 0.228,-0.389 0.213,-0.377C0.199,-0.365 0.188,-0.349 0.18,-0.328C0.172,-0.308 0.168,-0.282 0.168,-0.251L0.168,-0L0.068,-0Z" style="fill:white;fill-rule:nonzero;"/>
                            </g>
                            <g transform="matrix(16.9744,0,0,16.9744,2233.28,2752.76)">
                                <path d="M0.276,-0C0.244,-0 0.216,-0.005 0.193,-0.015C0.17,-0.025 0.152,-0.041 0.139,-0.065C0.126,-0.088 0.12,-0.12 0.12,-0.16L0.12,-0.419L0.033,-0.419L0.033,-0.504L0.12,-0.504L0.132,-0.63L0.22,-0.63L0.22,-0.504L0.363,-0.504L0.363,-0.419L0.22,-0.419L0.22,-0.159C0.22,-0.131 0.226,-0.111 0.238,-0.101C0.25,-0.091 0.27,-0.085 0.3,-0.085L0.358,-0.085L0.358,-0L0.276,-0Z" style="fill:white;fill-rule:nonzero;"/>
                            </g>
                            <g transform="matrix(16.9744,0,0,16.9744,2240.15,2752.76)">
                                <path d="M0.076,-0L0.076,-0.504L0.175,-0.504L0.175,-0L0.076,-0ZM0.126,-0.599C0.106,-0.599 0.091,-0.605 0.078,-0.617C0.066,-0.629 0.06,-0.644 0.06,-0.663C0.06,-0.681 0.066,-0.696 0.078,-0.708C0.091,-0.719 0.106,-0.725 0.126,-0.725C0.144,-0.725 0.16,-0.719 0.173,-0.708C0.185,-0.696 0.192,-0.681 0.192,-0.663C0.192,-0.644 0.185,-0.629 0.173,-0.617C0.16,-0.605 0.144,-0.599 0.126,-0.599Z" style="fill:white;fill-rule:nonzero;"/>
                            </g>
                            <g transform="matrix(16.9744,0,0,16.9744,2244.39,2752.76)">
                                <path d="M0.301,0.012C0.253,0.012 0.209,0.001 0.171,-0.021C0.133,-0.043 0.103,-0.074 0.082,-0.114C0.06,-0.153 0.049,-0.199 0.049,-0.251C0.049,-0.304 0.06,-0.35 0.082,-0.389C0.103,-0.429 0.133,-0.46 0.171,-0.482C0.209,-0.504 0.253,-0.516 0.301,-0.516C0.363,-0.516 0.414,-0.5 0.455,-0.468C0.496,-0.436 0.522,-0.393 0.534,-0.338L0.43,-0.338C0.423,-0.367 0.408,-0.39 0.384,-0.406C0.36,-0.422 0.332,-0.43 0.3,-0.43C0.273,-0.43 0.248,-0.423 0.226,-0.41C0.203,-0.396 0.185,-0.376 0.172,-0.35C0.158,-0.323 0.151,-0.291 0.151,-0.252C0.151,-0.223 0.155,-0.197 0.163,-0.175C0.171,-0.153 0.182,-0.134 0.195,-0.119C0.209,-0.104 0.225,-0.092 0.243,-0.084C0.261,-0.077 0.28,-0.073 0.3,-0.073C0.322,-0.073 0.342,-0.076 0.359,-0.084C0.377,-0.091 0.392,-0.101 0.404,-0.115C0.417,-0.129 0.425,-0.146 0.43,-0.165L0.534,-0.165C0.522,-0.112 0.496,-0.069 0.455,-0.037C0.413,-0.004 0.362,0.012 0.301,0.012Z" style="fill:white;fill-rule:nonzero;"/>
                            </g>
                            <g transform="matrix(16.9744,0,0,16.9744,2254.28,2752.76)">
                                <path d="M0.235,0.012C0.194,0.012 0.159,0.005 0.132,-0.009C0.105,-0.023 0.085,-0.042 0.071,-0.066C0.058,-0.089 0.051,-0.115 0.051,-0.142C0.051,-0.175 0.06,-0.204 0.077,-0.227C0.094,-0.251 0.119,-0.269 0.151,-0.282C0.183,-0.294 0.221,-0.301 0.267,-0.301L0.397,-0.301C0.397,-0.33 0.393,-0.354 0.384,-0.374C0.376,-0.393 0.363,-0.408 0.346,-0.418C0.328,-0.427 0.307,-0.432 0.281,-0.432C0.251,-0.432 0.226,-0.425 0.204,-0.411C0.182,-0.396 0.169,-0.375 0.164,-0.347L0.064,-0.347C0.068,-0.383 0.08,-0.413 0.1,-0.438C0.121,-0.463 0.147,-0.482 0.179,-0.495C0.211,-0.509 0.245,-0.516 0.281,-0.516C0.328,-0.516 0.368,-0.507 0.4,-0.491C0.432,-0.474 0.456,-0.45 0.472,-0.42C0.489,-0.39 0.497,-0.354 0.497,-0.312L0.497,-0L0.41,-0L0.402,-0.085C0.395,-0.072 0.386,-0.059 0.376,-0.047C0.366,-0.035 0.354,-0.025 0.34,-0.016C0.327,-0.007 0.311,-0.001 0.294,0.004C0.276,0.009 0.256,0.012 0.235,0.012ZM0.254,-0.069C0.275,-0.069 0.295,-0.074 0.312,-0.082C0.329,-0.091 0.344,-0.103 0.356,-0.118C0.369,-0.133 0.378,-0.15 0.384,-0.169C0.391,-0.187 0.395,-0.207 0.395,-0.227L0.395,-0.23L0.276,-0.23C0.248,-0.23 0.224,-0.227 0.207,-0.22C0.189,-0.213 0.176,-0.203 0.168,-0.191C0.16,-0.179 0.156,-0.165 0.156,-0.149C0.156,-0.133 0.16,-0.118 0.168,-0.107C0.175,-0.095 0.186,-0.085 0.201,-0.079C0.216,-0.073 0.233,-0.069 0.254,-0.069Z" style="fill:white;fill-rule:nonzero;"/>
                            </g>
                            <g transform="matrix(16.9744,0,0,16.9744,2263.74,2752.76)">
                                <rect x="0.068" y="-0.72" width="0.1" height="0.72" style="fill:white;fill-rule:nonzero;"/>
                            </g>
                            <g transform="matrix(16.9744,0,0,16.9744,2267.76,2752.76)">
                                <path d="M0.108,0.005C0.089,0.005 0.073,-0.001 0.061,-0.013C0.048,-0.026 0.042,-0.041 0.042,-0.058C0.042,-0.076 0.048,-0.092 0.061,-0.104C0.073,-0.116 0.089,-0.122 0.108,-0.122C0.127,-0.122 0.143,-0.116 0.155,-0.104C0.167,-0.092 0.173,-0.076 0.173,-0.058C0.173,-0.041 0.167,-0.026 0.155,-0.013C0.143,-0.001 0.127,0.005 0.108,0.005Z" style="fill:white;fill-rule:nonzero;"/>
                            </g>
                            <g transform="matrix(16.9744,0,0,16.9744,2271.42,2752.76)">
                                <path d="M0.263,0.012C0.221,0.012 0.183,0.005 0.151,-0.009C0.119,-0.023 0.094,-0.043 0.075,-0.068C0.057,-0.094 0.045,-0.123 0.041,-0.157L0.143,-0.157C0.146,-0.141 0.153,-0.126 0.162,-0.113C0.172,-0.1 0.186,-0.089 0.203,-0.081C0.219,-0.073 0.24,-0.069 0.263,-0.069C0.285,-0.069 0.303,-0.072 0.317,-0.079C0.331,-0.085 0.342,-0.094 0.349,-0.104C0.356,-0.115 0.359,-0.127 0.359,-0.14C0.359,-0.158 0.355,-0.172 0.346,-0.182C0.337,-0.192 0.323,-0.2 0.305,-0.205C0.288,-0.211 0.267,-0.216 0.242,-0.221C0.219,-0.225 0.197,-0.231 0.175,-0.238C0.153,-0.245 0.134,-0.253 0.117,-0.264C0.099,-0.275 0.086,-0.288 0.076,-0.305C0.066,-0.321 0.061,-0.341 0.061,-0.365C0.061,-0.394 0.068,-0.42 0.084,-0.443C0.099,-0.465 0.121,-0.483 0.149,-0.496C0.177,-0.509 0.211,-0.516 0.25,-0.516C0.306,-0.516 0.351,-0.502 0.385,-0.476C0.419,-0.449 0.439,-0.412 0.445,-0.363L0.348,-0.363C0.345,-0.386 0.335,-0.403 0.318,-0.415C0.301,-0.428 0.278,-0.434 0.249,-0.434C0.22,-0.434 0.198,-0.429 0.183,-0.417C0.168,-0.406 0.16,-0.391 0.16,-0.372C0.16,-0.36 0.164,-0.349 0.173,-0.34C0.182,-0.331 0.195,-0.323 0.212,-0.316C0.229,-0.31 0.25,-0.304 0.274,-0.299C0.31,-0.292 0.341,-0.284 0.369,-0.274C0.397,-0.264 0.419,-0.25 0.436,-0.23C0.453,-0.211 0.461,-0.183 0.461,-0.147C0.461,-0.115 0.453,-0.088 0.437,-0.064C0.421,-0.04 0.398,-0.021 0.368,-0.008C0.339,0.005 0.304,0.012 0.263,0.012Z" style="fill:white;fill-rule:nonzero;"/>
                            </g>
                            <g transform="matrix(16.9744,0,0,16.9744,2279.64,2752.76)">
                                <path d="M0.211,-0L0.022,-0.504L0.127,-0.504L0.27,-0.096L0.414,-0.504L0.517,-0.504L0.329,-0L0.211,-0Z" style="fill:white;fill-rule:nonzero;"/>
                            </g>
                            <g transform="matrix(16.9744,0,0,16.9744,2288.43,2752.76)">
                                <path d="M0.273,0.232C0.227,0.232 0.186,0.226 0.151,0.215C0.116,0.203 0.088,0.185 0.069,0.161C0.049,0.137 0.04,0.108 0.04,0.073C0.04,0.055 0.044,0.037 0.052,0.018C0.06,0 0.073,-0.017 0.091,-0.034C0.109,-0.051 0.133,-0.066 0.164,-0.079L0.22,-0.034C0.186,-0.021 0.163,-0.006 0.152,0.012C0.14,0.029 0.134,0.046 0.134,0.063C0.134,0.083 0.14,0.099 0.152,0.113C0.164,0.126 0.181,0.136 0.202,0.143C0.223,0.149 0.246,0.153 0.273,0.153C0.299,0.153 0.322,0.149 0.341,0.142C0.36,0.134 0.375,0.124 0.386,0.111C0.396,0.098 0.402,0.082 0.402,0.064C0.402,0.043 0.394,0.025 0.378,0.01C0.362,-0.004 0.332,-0.012 0.286,-0.015C0.248,-0.018 0.216,-0.021 0.19,-0.026C0.163,-0.031 0.141,-0.037 0.123,-0.043C0.105,-0.05 0.089,-0.057 0.077,-0.065C0.065,-0.073 0.054,-0.082 0.045,-0.09L0.045,-0.113L0.145,-0.216L0.226,-0.188L0.117,-0.087L0.138,-0.132C0.145,-0.127 0.152,-0.122 0.159,-0.118C0.166,-0.114 0.175,-0.11 0.186,-0.107C0.197,-0.104 0.213,-0.101 0.232,-0.098C0.251,-0.095 0.277,-0.093 0.308,-0.09C0.353,-0.087 0.39,-0.079 0.417,-0.066C0.445,-0.053 0.466,-0.036 0.478,-0.015C0.491,0.006 0.497,0.032 0.497,0.061C0.497,0.09 0.489,0.117 0.474,0.143C0.458,0.169 0.433,0.191 0.4,0.207C0.367,0.224 0.325,0.232 0.273,0.232ZM0.273,-0.155C0.231,-0.155 0.195,-0.163 0.165,-0.179C0.135,-0.195 0.112,-0.217 0.097,-0.244C0.081,-0.271 0.073,-0.302 0.073,-0.335C0.073,-0.369 0.081,-0.399 0.097,-0.426C0.113,-0.453 0.135,-0.475 0.165,-0.491C0.195,-0.507 0.231,-0.516 0.273,-0.516C0.315,-0.516 0.351,-0.507 0.381,-0.491C0.41,-0.475 0.433,-0.453 0.448,-0.426C0.464,-0.399 0.472,-0.369 0.472,-0.335C0.472,-0.302 0.464,-0.271 0.448,-0.244C0.433,-0.217 0.41,-0.195 0.381,-0.179C0.351,-0.163 0.315,-0.155 0.273,-0.155ZM0.273,-0.235C0.305,-0.235 0.331,-0.243 0.351,-0.26C0.37,-0.277 0.38,-0.302 0.38,-0.335C0.38,-0.367 0.37,-0.392 0.351,-0.409C0.331,-0.426 0.305,-0.435 0.273,-0.435C0.24,-0.435 0.214,-0.426 0.194,-0.409C0.174,-0.392 0.164,-0.367 0.164,-0.335C0.164,-0.302 0.174,-0.277 0.194,-0.26C0.214,-0.243 0.24,-0.235 0.273,-0.235ZM0.355,-0.425L0.331,-0.504L0.538,-0.504L0.538,-0.435L0.355,-0.425Z" style="fill:white;fill-rule:nonzero;"/>
                            </g>
                            <g transform="matrix(16.9744,0,0,16.9744,2298.1,2752.76)">
                            </g>
                        </g>
                    </g>
                    <g transform="matrix(0.804104,0,0,0.804104,519.292,437.462)">
                        <g transform="matrix(0.425109,0,0,0.425109,2219.22,2888.51)">
                            <path d="M19.5,14.25L19.5,11.625C19.5,9.774 17.976,8.25 16.125,8.25L14.625,8.25C14.008,8.25 13.5,7.742 13.5,7.125L13.5,5.625C13.5,3.774 11.976,2.25 10.125,2.25L8.25,2.25M15,14.25L12,11.25M12,11.25L9,14.25M12,11.25L12,17.25M10.5,2.25L5.625,2.25C5.004,2.25 4.5,2.754 4.5,3.375L4.5,20.625C4.5,21.246 5.004,21.75 5.625,21.75L18.375,21.75C18.996,21.75 19.5,21.246 19.5,20.625L19.5,11.25C19.5,6.313 15.437,2.25 10.5,2.25Z" style="fill:none;fill-rule:nonzero;stroke:rgb(237,255,0);stroke-width:1.5px;"/>
                        </g>
                        <g transform="matrix(0.465292,0,0,0.465292,1210.67,1615.58)">
                            <g transform="matrix(16.9744,0,0,16.9744,2194.16,2752.76)">
                                <rect x="0.068" y="-0.72" width="0.1" height="0.72" style="fill:white;fill-rule:nonzero;"/>
                            </g>
                            <g transform="matrix(16.9744,0,0,16.9744,2198.18,2752.76)">
                                <path d="M0.298,0.012C0.251,0.012 0.208,0.001 0.17,-0.021C0.133,-0.043 0.103,-0.074 0.081,-0.113C0.06,-0.153 0.049,-0.199 0.049,-0.251C0.049,-0.305 0.06,-0.351 0.082,-0.391C0.104,-0.43 0.134,-0.461 0.172,-0.483C0.21,-0.505 0.252,-0.516 0.3,-0.516C0.348,-0.516 0.39,-0.505 0.428,-0.483C0.466,-0.461 0.495,-0.43 0.517,-0.391C0.539,-0.351 0.549,-0.305 0.549,-0.252C0.549,-0.199 0.538,-0.153 0.516,-0.113C0.495,-0.073 0.465,-0.043 0.427,-0.021C0.389,0.001 0.346,0.012 0.298,0.012ZM0.298,-0.074C0.325,-0.074 0.35,-0.081 0.372,-0.094C0.395,-0.107 0.413,-0.127 0.427,-0.153C0.44,-0.18 0.447,-0.213 0.447,-0.252C0.447,-0.291 0.44,-0.324 0.427,-0.351C0.414,-0.377 0.396,-0.397 0.373,-0.41C0.351,-0.423 0.326,-0.43 0.3,-0.43C0.274,-0.43 0.249,-0.423 0.226,-0.41C0.204,-0.397 0.185,-0.377 0.172,-0.35C0.158,-0.324 0.151,-0.291 0.151,-0.252C0.151,-0.213 0.158,-0.18 0.172,-0.153C0.185,-0.127 0.203,-0.107 0.226,-0.094C0.248,-0.081 0.272,-0.074 0.298,-0.074Z" style="fill:white;fill-rule:nonzero;"/>
                            </g>
                            <g transform="matrix(16.9744,0,0,16.9744,2207.98,2752.76)">
                                <path d="M0.273,0.232C0.227,0.232 0.186,0.226 0.151,0.215C0.116,0.203 0.088,0.185 0.069,0.161C0.049,0.137 0.04,0.108 0.04,0.073C0.04,0.055 0.044,0.037 0.052,0.018C0.06,0 0.073,-0.017 0.091,-0.034C0.109,-0.051 0.133,-0.066 0.164,-0.079L0.22,-0.034C0.186,-0.021 0.163,-0.006 0.152,0.012C0.14,0.029 0.134,0.046 0.134,0.063C0.134,0.083 0.14,0.099 0.152,0.113C0.164,0.126 0.181,0.136 0.202,0.143C0.223,0.149 0.246,0.153 0.273,0.153C0.299,0.153 0.322,0.149 0.341,0.142C0.36,0.134 0.375,0.124 0.386,0.111C0.396,0.098 0.402,0.082 0.402,0.064C0.402,0.043 0.394,0.025 0.378,0.01C0.362,-0.004 0.332,-0.012 0.286,-0.015C0.248,-0.018 0.216,-0.021 0.19,-0.026C0.163,-0.031 0.141,-0.037 0.123,-0.043C0.105,-0.05 0.089,-0.057 0.077,-0.065C0.065,-0.073 0.054,-0.082 0.045,-0.09L0.045,-0.113L0.145,-0.216L0.226,-0.188L0.117,-0.087L0.138,-0.132C0.145,-0.127 0.152,-0.122 0.159,-0.118C0.166,-0.114 0.175,-0.11 0.186,-0.107C0.197,-0.104 0.213,-0.101 0.232,-0.098C0.251,-0.095 0.277,-0.093 0.308,-0.09C0.353,-0.087 0.39,-0.079 0.417,-0.066C0.445,-0.053 0.466,-0.036 0.478,-0.015C0.491,0.006 0.497,0.032 0.497,0.061C0.497,0.09 0.489,0.117 0.474,0.143C0.458,0.169 0.433,0.191 0.4,0.207C0.367,0.224 0.325,0.232 0.273,0.232ZM0.273,-0.155C0.231,-0.155 0.195,-0.163 0.165,-0.179C0.135,-0.195 0.112,-0.217 0.097,-0.244C0.081,-0.271 0.073,-0.302 0.073,-0.335C0.073,-0.369 0.081,-0.399 0.097,-0.426C0.113,-0.453 0.135,-0.475 0.165,-0.491C0.195,-0.507 0.231,-0.516 0.273,-0.516C0.315,-0.516 0.351,-0.507 0.381,-0.491C0.41,-0.475 0.433,-0.453 0.448,-0.426C0.464,-0.399 0.472,-0.369 0.472,-0.335C0.472,-0.302 0.464,-0.271 0.448,-0.244C0.433,-0.217 0.41,-0.195 0.381,-0.179C0.351,-0.163 0.315,-0.155 0.273,-0.155ZM0.273,-0.235C0.305,-0.235 0.331,-0.243 0.351,-0.26C0.37,-0.277 0.38,-0.302 0.38,-0.335C0.38,-0.367 0.37,-0.392 0.351,-0.409C0.331,-0.426 0.305,-0.435 0.273,-0.435C0.24,-0.435 0.214,-0.426 0.194,-0.409C0.174,-0.392 0.164,-0.367 0.164,-0.335C0.164,-0.302 0.174,-0.277 0.194,-0.26C0.214,-0.243 0.24,-0.235 0.273,-0.235ZM0.355,-0.425L0.331,-0.504L0.538,-0.504L0.538,-0.435L0.355,-0.425Z" style="fill:white;fill-rule:nonzero;"/>
                            </g>
                            <g transform="matrix(16.9744,0,0,16.9744,2217.32,2752.76)">
                                <path d="M0.298,0.012C0.251,0.012 0.208,0.001 0.17,-0.021C0.133,-0.043 0.103,-0.074 0.081,-0.113C0.06,-0.153 0.049,-0.199 0.049,-0.251C0.049,-0.305 0.06,-0.351 0.082,-0.391C0.104,-0.43 0.134,-0.461 0.172,-0.483C0.21,-0.505 0.252,-0.516 0.3,-0.516C0.348,-0.516 0.39,-0.505 0.428,-0.483C0.466,-0.461 0.495,-0.43 0.517,-0.391C0.539,-0.351 0.549,-0.305 0.549,-0.252C0.549,-0.199 0.538,-0.153 0.516,-0.113C0.495,-0.073 0.465,-0.043 0.427,-0.021C0.389,0.001 0.346,0.012 0.298,0.012ZM0.298,-0.074C0.325,-0.074 0.35,-0.081 0.372,-0.094C0.395,-0.107 0.413,-0.127 0.427,-0.153C0.44,-0.18 0.447,-0.213 0.447,-0.252C0.447,-0.291 0.44,-0.324 0.427,-0.351C0.414,-0.377 0.396,-0.397 0.373,-0.41C0.351,-0.423 0.326,-0.43 0.3,-0.43C0.274,-0.43 0.249,-0.423 0.226,-0.41C0.204,-0.397 0.185,-0.377 0.172,-0.35C0.158,-0.324 0.151,-0.291 0.151,-0.252C0.151,-0.213 0.158,-0.18 0.172,-0.153C0.185,-0.127 0.203,-0.107 0.226,-0.094C0.248,-0.081 0.272,-0.074 0.298,-0.074Z" style="fill:white;fill-rule:nonzero;"/>
                            </g>
                            <g transform="matrix(16.9744,0,0,16.9744,2227.48,2752.76)">
                                <path d="M0.068,-0L0.068,-0.504L0.158,-0.504L0.165,-0.433C0.181,-0.459 0.202,-0.479 0.229,-0.494C0.256,-0.508 0.286,-0.516 0.319,-0.516C0.344,-0.516 0.367,-0.512 0.388,-0.505C0.409,-0.498 0.427,-0.488 0.443,-0.474C0.459,-0.46 0.472,-0.443 0.482,-0.422C0.5,-0.452 0.524,-0.475 0.554,-0.491C0.584,-0.507 0.617,-0.516 0.651,-0.516C0.692,-0.516 0.727,-0.507 0.756,-0.491C0.785,-0.475 0.807,-0.451 0.823,-0.419C0.838,-0.386 0.846,-0.346 0.846,-0.298L0.846,-0L0.747,-0L0.747,-0.288C0.747,-0.335 0.738,-0.37 0.718,-0.394C0.699,-0.418 0.672,-0.43 0.635,-0.43C0.611,-0.43 0.589,-0.424 0.569,-0.411C0.55,-0.399 0.535,-0.38 0.524,-0.356C0.513,-0.332 0.507,-0.303 0.507,-0.268L0.507,-0L0.407,-0L0.407,-0.288C0.407,-0.335 0.398,-0.37 0.379,-0.394C0.36,-0.418 0.332,-0.43 0.295,-0.43C0.271,-0.43 0.25,-0.424 0.231,-0.411C0.211,-0.399 0.196,-0.38 0.185,-0.356C0.174,-0.332 0.168,-0.303 0.168,-0.268L0.168,-0L0.068,-0Z" style="fill:white;fill-rule:nonzero;"/>
                            </g>
                            <g transform="matrix(16.9744,0,0,16.9744,2242.86,2752.76)">
                                <path d="M0.235,0.012C0.194,0.012 0.159,0.005 0.132,-0.009C0.105,-0.023 0.085,-0.042 0.071,-0.066C0.058,-0.089 0.051,-0.115 0.051,-0.142C0.051,-0.175 0.06,-0.204 0.077,-0.227C0.094,-0.251 0.119,-0.269 0.151,-0.282C0.183,-0.294 0.221,-0.301 0.267,-0.301L0.397,-0.301C0.397,-0.33 0.393,-0.354 0.384,-0.374C0.376,-0.393 0.363,-0.408 0.346,-0.418C0.328,-0.427 0.307,-0.432 0.281,-0.432C0.251,-0.432 0.226,-0.425 0.204,-0.411C0.182,-0.396 0.169,-0.375 0.164,-0.347L0.064,-0.347C0.068,-0.383 0.08,-0.413 0.1,-0.438C0.121,-0.463 0.147,-0.482 0.179,-0.495C0.211,-0.509 0.245,-0.516 0.281,-0.516C0.328,-0.516 0.368,-0.507 0.4,-0.491C0.432,-0.474 0.456,-0.45 0.472,-0.42C0.489,-0.39 0.497,-0.354 0.497,-0.312L0.497,-0L0.41,-0L0.402,-0.085C0.395,-0.072 0.386,-0.059 0.376,-0.047C0.366,-0.035 0.354,-0.025 0.34,-0.016C0.327,-0.007 0.311,-0.001 0.294,0.004C0.276,0.009 0.256,0.012 0.235,0.012ZM0.254,-0.069C0.275,-0.069 0.295,-0.074 0.312,-0.082C0.329,-0.091 0.344,-0.103 0.356,-0.118C0.369,-0.133 0.378,-0.15 0.384,-0.169C0.391,-0.187 0.395,-0.207 0.395,-0.227L0.395,-0.23L0.276,-0.23C0.248,-0.23 0.224,-0.227 0.207,-0.22C0.189,-0.213 0.176,-0.203 0.168,-0.191C0.16,-0.179 0.156,-0.165 0.156,-0.149C0.156,-0.133 0.16,-0.118 0.168,-0.107C0.175,-0.095 0.186,-0.085 0.201,-0.079C0.216,-0.073 0.233,-0.069 0.254,-0.069Z" style="fill:white;fill-rule:nonzero;"/>
                            </g>
                            <g transform="matrix(16.9744,0,0,16.9744,2252.32,2752.76)">
                                <path d="M0.068,-0L0.068,-0.504L0.158,-0.504L0.167,-0.409C0.178,-0.431 0.193,-0.45 0.211,-0.466C0.229,-0.482 0.25,-0.494 0.275,-0.503C0.299,-0.511 0.327,-0.516 0.358,-0.516L0.358,-0.41L0.322,-0.41C0.301,-0.41 0.281,-0.408 0.263,-0.403C0.244,-0.397 0.228,-0.389 0.213,-0.377C0.199,-0.365 0.188,-0.349 0.18,-0.328C0.172,-0.308 0.168,-0.282 0.168,-0.251L0.168,-0L0.068,-0Z" style="fill:white;fill-rule:nonzero;"/>
                            </g>
                            <g transform="matrix(16.9744,0,0,16.9744,2258.81,2752.76)">
                                <path d="M0.385,-0L0.153,-0.276L0.363,-0.504L0.484,-0.504L0.234,-0.237L0.234,-0.312L0.511,-0L0.385,-0ZM0.068,-0L0.068,-0.72L0.168,-0.72L0.168,-0L0.068,-0Z" style="fill:white;fill-rule:nonzero;"/>
                            </g>
                            <g transform="matrix(16.9744,0,0,16.9744,2267.76,2752.76)">
                                <path d="M0.108,0.005C0.089,0.005 0.073,-0.001 0.061,-0.013C0.048,-0.026 0.042,-0.041 0.042,-0.058C0.042,-0.076 0.048,-0.092 0.061,-0.104C0.073,-0.116 0.089,-0.122 0.108,-0.122C0.127,-0.122 0.143,-0.116 0.155,-0.104C0.167,-0.092 0.173,-0.076 0.173,-0.058C0.173,-0.041 0.167,-0.026 0.155,-0.013C0.143,-0.001 0.127,0.005 0.108,0.005Z" style="fill:white;fill-rule:nonzero;"/>
                            </g>
                            <g transform="matrix(16.9744,0,0,16.9744,2271.42,2752.76)">
                                <path d="M0.263,0.012C0.221,0.012 0.183,0.005 0.151,-0.009C0.119,-0.023 0.094,-0.043 0.075,-0.068C0.057,-0.094 0.045,-0.123 0.041,-0.157L0.143,-0.157C0.146,-0.141 0.153,-0.126 0.162,-0.113C0.172,-0.1 0.186,-0.089 0.203,-0.081C0.219,-0.073 0.24,-0.069 0.263,-0.069C0.285,-0.069 0.303,-0.072 0.317,-0.079C0.331,-0.085 0.342,-0.094 0.349,-0.104C0.356,-0.115 0.359,-0.127 0.359,-0.14C0.359,-0.158 0.355,-0.172 0.346,-0.182C0.337,-0.192 0.323,-0.2 0.305,-0.205C0.288,-0.211 0.267,-0.216 0.242,-0.221C0.219,-0.225 0.197,-0.231 0.175,-0.238C0.153,-0.245 0.134,-0.253 0.117,-0.264C0.099,-0.275 0.086,-0.288 0.076,-0.305C0.066,-0.321 0.061,-0.341 0.061,-0.365C0.061,-0.394 0.068,-0.42 0.084,-0.443C0.099,-0.465 0.121,-0.483 0.149,-0.496C0.177,-0.509 0.211,-0.516 0.25,-0.516C0.306,-0.516 0.351,-0.502 0.385,-0.476C0.419,-0.449 0.439,-0.412 0.445,-0.363L0.348,-0.363C0.345,-0.386 0.335,-0.403 0.318,-0.415C0.301,-0.428 0.278,-0.434 0.249,-0.434C0.22,-0.434 0.198,-0.429 0.183,-0.417C0.168,-0.406 0.16,-0.391 0.16,-0.372C0.16,-0.36 0.164,-0.349 0.173,-0.34C0.182,-0.331 0.195,-0.323 0.212,-0.316C0.229,-0.31 0.25,-0.304 0.274,-0.299C0.31,-0.292 0.341,-0.284 0.369,-0.274C0.397,-0.264 0.419,-0.25 0.436,-0.23C0.453,-0.211 0.461,-0.183 0.461,-0.147C0.461,-0.115 0.453,-0.088 0.437,-0.064C0.421,-0.04 0.398,-0.021 0.368,-0.008C0.339,0.005 0.304,0.012 0.263,0.012Z" style="fill:white;fill-rule:nonzero;"/>
                            </g>
                            <g transform="matrix(16.9744,0,0,16.9744,2279.64,2752.76)">
                                <path d="M0.211,-0L0.022,-0.504L0.127,-0.504L0.27,-0.096L0.414,-0.504L0.517,-0.504L0.329,-0L0.211,-0Z" style="fill:white;fill-rule:nonzero;"/>
                            </g>
                            <g transform="matrix(16.9744,0,0,16.9744,2288.43,2752.76)">
                                <path d="M0.273,0.232C0.227,0.232 0.186,0.226 0.151,0.215C0.116,0.203 0.088,0.185 0.069,0.161C0.049,0.137 0.04,0.108 0.04,0.073C0.04,0.055 0.044,0.037 0.052,0.018C0.06,0 0.073,-0.017 0.091,-0.034C0.109,-0.051 0.133,-0.066 0.164,-0.079L0.22,-0.034C0.186,-0.021 0.163,-0.006 0.152,0.012C0.14,0.029 0.134,0.046 0.134,0.063C0.134,0.083 0.14,0.099 0.152,0.113C0.164,0.126 0.181,0.136 0.202,0.143C0.223,0.149 0.246,0.153 0.273,0.153C0.299,0.153 0.322,0.149 0.341,0.142C0.36,0.134 0.375,0.124 0.386,0.111C0.396,0.098 0.402,0.082 0.402,0.064C0.402,0.043 0.394,0.025 0.378,0.01C0.362,-0.004 0.332,-0.012 0.286,-0.015C0.248,-0.018 0.216,-0.021 0.19,-0.026C0.163,-0.031 0.141,-0.037 0.123,-0.043C0.105,-0.05 0.089,-0.057 0.077,-0.065C0.065,-0.073 0.054,-0.082 0.045,-0.09L0.045,-0.113L0.145,-0.216L0.226,-0.188L0.117,-0.087L0.138,-0.132C0.145,-0.127 0.152,-0.122 0.159,-0.118C0.166,-0.114 0.175,-0.11 0.186,-0.107C0.197,-0.104 0.213,-0.101 0.232,-0.098C0.251,-0.095 0.277,-0.093 0.308,-0.09C0.353,-0.087 0.39,-0.079 0.417,-0.066C0.445,-0.053 0.466,-0.036 0.478,-0.015C0.491,0.006 0.497,0.032 0.497,0.061C0.497,0.09 0.489,0.117 0.474,0.143C0.458,0.169 0.433,0.191 0.4,0.207C0.367,0.224 0.325,0.232 0.273,0.232ZM0.273,-0.155C0.231,-0.155 0.195,-0.163 0.165,-0.179C0.135,-0.195 0.112,-0.217 0.097,-0.244C0.081,-0.271 0.073,-0.302 0.073,-0.335C0.073,-0.369 0.081,-0.399 0.097,-0.426C0.113,-0.453 0.135,-0.475 0.165,-0.491C0.195,-0.507 0.231,-0.516 0.273,-0.516C0.315,-0.516 0.351,-0.507 0.381,-0.491C0.41,-0.475 0.433,-0.453 0.448,-0.426C0.464,-0.399 0.472,-0.369 0.472,-0.335C0.472,-0.302 0.464,-0.271 0.448,-0.244C0.433,-0.217 0.41,-0.195 0.381,-0.179C0.351,-0.163 0.315,-0.155 0.273,-0.155ZM0.273,-0.235C0.305,-0.235 0.331,-0.243 0.351,-0.26C0.37,-0.277 0.38,-0.302 0.38,-0.335C0.38,-0.367 0.37,-0.392 0.351,-0.409C0.331,-0.426 0.305,-0.435 0.273,-0.435C0.24,-0.435 0.214,-0.426 0.194,-0.409C0.174,-0.392 0.164,-0.367 0.164,-0.335C0.164,-0.302 0.174,-0.277 0.194,-0.26C0.214,-0.243 0.24,-0.235 0.273,-0.235ZM0.355,-0.425L0.331,-0.504L0.538,-0.504L0.538,-0.435L0.355,-0.425Z" style="fill:white;fill-rule:nonzero;"/>
                            </g>
                            <g transform="matrix(16.9744,0,0,16.9744,2298.1,2752.76)">
                            </g>
                        </g>
                    </g>
                    <g transform="matrix(0.804104,0,0,0.804104,571.733,413.862)">
                        <g transform="matrix(0.425109,0,0,0.425109,2219.22,2933.76)">
                            <path d="M19.5,14.25L19.5,11.625C19.5,9.774 17.976,8.25 16.125,8.25L14.625,8.25C14.008,8.25 13.5,7.742 13.5,7.125L13.5,5.625C13.5,3.774 11.976,2.25 10.125,2.25L8.25,2.25M15,14.25L12,11.25M12,11.25L9,14.25M12,11.25L12,17.25M10.5,2.25L5.625,2.25C5.004,2.25 4.5,2.754 4.5,3.375L4.5,20.625C4.5,21.246 5.004,21.75 5.625,21.75L18.375,21.75C18.996,21.75 19.5,21.246 19.5,20.625L19.5,11.25C19.5,6.313 15.437,2.25 10.5,2.25Z" style="fill:none;fill-rule:nonzero;stroke:rgb(237,255,0);stroke-width:1.5px;"/>
                        </g>
                        <g transform="matrix(0.465292,0,0,0.465292,1213.32,1660.83)">
                            <g transform="matrix(16.9744,0,0,16.9744,2188.47,2752.76)">
                                <path d="M0.068,-0L0.068,-0.72L0.168,-0.72L0.168,-0.422C0.185,-0.451 0.208,-0.474 0.238,-0.491C0.267,-0.507 0.3,-0.516 0.336,-0.516C0.376,-0.516 0.41,-0.507 0.439,-0.491C0.467,-0.475 0.489,-0.451 0.505,-0.419C0.52,-0.386 0.528,-0.345 0.528,-0.297L0.528,-0L0.429,-0L0.429,-0.287C0.429,-0.334 0.419,-0.37 0.399,-0.394C0.379,-0.418 0.349,-0.43 0.31,-0.43C0.284,-0.43 0.26,-0.424 0.238,-0.411C0.216,-0.398 0.199,-0.38 0.187,-0.356C0.175,-0.332 0.168,-0.302 0.168,-0.267L0.168,-0L0.068,-0Z" style="fill:white;fill-rule:nonzero;"/>
                            </g>
                            <g transform="matrix(16.9744,0,0,16.9744,2198.45,2752.76)">
                                <path d="M0.298,0.012C0.251,0.012 0.208,0.001 0.17,-0.021C0.133,-0.043 0.103,-0.074 0.081,-0.113C0.06,-0.153 0.049,-0.199 0.049,-0.251C0.049,-0.305 0.06,-0.351 0.082,-0.391C0.104,-0.43 0.134,-0.461 0.172,-0.483C0.21,-0.505 0.252,-0.516 0.3,-0.516C0.348,-0.516 0.39,-0.505 0.428,-0.483C0.466,-0.461 0.495,-0.43 0.517,-0.391C0.539,-0.351 0.549,-0.305 0.549,-0.252C0.549,-0.199 0.538,-0.153 0.516,-0.113C0.495,-0.073 0.465,-0.043 0.427,-0.021C0.389,0.001 0.346,0.012 0.298,0.012ZM0.298,-0.074C0.325,-0.074 0.35,-0.081 0.372,-0.094C0.395,-0.107 0.413,-0.127 0.427,-0.153C0.44,-0.18 0.447,-0.213 0.447,-0.252C0.447,-0.291 0.44,-0.324 0.427,-0.351C0.414,-0.377 0.396,-0.397 0.373,-0.41C0.351,-0.423 0.326,-0.43 0.3,-0.43C0.274,-0.43 0.249,-0.423 0.226,-0.41C0.204,-0.397 0.185,-0.377 0.172,-0.35C0.158,-0.324 0.151,-0.291 0.151,-0.252C0.151,-0.213 0.158,-0.18 0.172,-0.153C0.185,-0.127 0.203,-0.107 0.226,-0.094C0.248,-0.081 0.272,-0.074 0.298,-0.074Z" style="fill:white;fill-rule:nonzero;"/>
                            </g>
                            <g transform="matrix(16.9744,0,0,16.9744,2208.61,2752.76)">
                                <path d="M0.068,-0L0.068,-0.504L0.158,-0.504L0.167,-0.409C0.178,-0.431 0.193,-0.45 0.211,-0.466C0.229,-0.482 0.25,-0.494 0.275,-0.503C0.299,-0.511 0.327,-0.516 0.358,-0.516L0.358,-0.41L0.322,-0.41C0.301,-0.41 0.281,-0.408 0.263,-0.403C0.244,-0.397 0.228,-0.389 0.213,-0.377C0.199,-0.365 0.188,-0.349 0.18,-0.328C0.172,-0.308 0.168,-0.282 0.168,-0.251L0.168,-0L0.068,-0Z" style="fill:white;fill-rule:nonzero;"/>
                            </g>
                            <g transform="matrix(16.9744,0,0,16.9744,2215.1,2752.76)">
                                <path d="M0.076,-0L0.076,-0.504L0.175,-0.504L0.175,-0L0.076,-0ZM0.126,-0.599C0.106,-0.599 0.091,-0.605 0.078,-0.617C0.066,-0.629 0.06,-0.644 0.06,-0.663C0.06,-0.681 0.066,-0.696 0.078,-0.708C0.091,-0.719 0.106,-0.725 0.126,-0.725C0.144,-0.725 0.16,-0.719 0.173,-0.708C0.185,-0.696 0.192,-0.681 0.192,-0.663C0.192,-0.644 0.185,-0.629 0.173,-0.617C0.16,-0.605 0.144,-0.599 0.126,-0.599Z" style="fill:white;fill-rule:nonzero;"/>
                            </g>
                            <g transform="matrix(16.9744,0,0,16.9744,2219.34,2752.76)">
                                <path d="M0.035,-0L0.035,-0.081L0.306,-0.42L0.039,-0.42L0.039,-0.504L0.42,-0.504L0.42,-0.422L0.148,-0.083L0.425,-0.083L0.425,-0L0.035,-0Z" style="fill:white;fill-rule:nonzero;"/>
                            </g>
                            <g transform="matrix(16.9744,0,0,16.9744,2227.29,2752.76)">
                                <path d="M0.298,0.012C0.251,0.012 0.208,0.001 0.17,-0.021C0.133,-0.043 0.103,-0.074 0.081,-0.113C0.06,-0.153 0.049,-0.199 0.049,-0.251C0.049,-0.305 0.06,-0.351 0.082,-0.391C0.104,-0.43 0.134,-0.461 0.172,-0.483C0.21,-0.505 0.252,-0.516 0.3,-0.516C0.348,-0.516 0.39,-0.505 0.428,-0.483C0.466,-0.461 0.495,-0.43 0.517,-0.391C0.539,-0.351 0.549,-0.305 0.549,-0.252C0.549,-0.199 0.538,-0.153 0.516,-0.113C0.495,-0.073 0.465,-0.043 0.427,-0.021C0.389,0.001 0.346,0.012 0.298,0.012ZM0.298,-0.074C0.325,-0.074 0.35,-0.081 0.372,-0.094C0.395,-0.107 0.413,-0.127 0.427,-0.153C0.44,-0.18 0.447,-0.213 0.447,-0.252C0.447,-0.291 0.44,-0.324 0.427,-0.351C0.414,-0.377 0.396,-0.397 0.373,-0.41C0.351,-0.423 0.326,-0.43 0.3,-0.43C0.274,-0.43 0.249,-0.423 0.226,-0.41C0.204,-0.397 0.185,-0.377 0.172,-0.35C0.158,-0.324 0.151,-0.291 0.151,-0.252C0.151,-0.213 0.158,-0.18 0.172,-0.153C0.185,-0.127 0.203,-0.107 0.226,-0.094C0.248,-0.081 0.272,-0.074 0.298,-0.074Z" style="fill:white;fill-rule:nonzero;"/>
                            </g>
                            <g transform="matrix(16.9744,0,0,16.9744,2237.45,2752.76)">
                                <path d="M0.068,-0L0.068,-0.504L0.158,-0.504L0.164,-0.418C0.18,-0.448 0.202,-0.472 0.232,-0.489C0.261,-0.507 0.295,-0.516 0.333,-0.516C0.373,-0.516 0.408,-0.507 0.436,-0.492C0.465,-0.476 0.487,-0.451 0.503,-0.419C0.519,-0.387 0.527,-0.347 0.527,-0.298L0.527,-0L0.427,-0L0.427,-0.288C0.427,-0.335 0.416,-0.37 0.396,-0.394C0.375,-0.418 0.345,-0.43 0.306,-0.43C0.28,-0.43 0.257,-0.424 0.236,-0.412C0.215,-0.399 0.199,-0.381 0.187,-0.357C0.174,-0.333 0.168,-0.304 0.168,-0.269L0.168,-0L0.068,-0Z" style="fill:white;fill-rule:nonzero;"/>
                            </g>
                            <g transform="matrix(16.9744,0,0,16.9744,2247.42,2752.76)">
                                <path d="M0.276,-0C0.244,-0 0.216,-0.005 0.193,-0.015C0.17,-0.025 0.152,-0.041 0.139,-0.065C0.126,-0.088 0.12,-0.12 0.12,-0.16L0.12,-0.419L0.033,-0.419L0.033,-0.504L0.12,-0.504L0.132,-0.63L0.22,-0.63L0.22,-0.504L0.363,-0.504L0.363,-0.419L0.22,-0.419L0.22,-0.159C0.22,-0.131 0.226,-0.111 0.238,-0.101C0.25,-0.091 0.27,-0.085 0.3,-0.085L0.358,-0.085L0.358,-0L0.276,-0Z" style="fill:white;fill-rule:nonzero;"/>
                            </g>
                            <g transform="matrix(16.9744,0,0,16.9744,2254.28,2752.76)">
                                <path d="M0.235,0.012C0.194,0.012 0.159,0.005 0.132,-0.009C0.105,-0.023 0.085,-0.042 0.071,-0.066C0.058,-0.089 0.051,-0.115 0.051,-0.142C0.051,-0.175 0.06,-0.204 0.077,-0.227C0.094,-0.251 0.119,-0.269 0.151,-0.282C0.183,-0.294 0.221,-0.301 0.267,-0.301L0.397,-0.301C0.397,-0.33 0.393,-0.354 0.384,-0.374C0.376,-0.393 0.363,-0.408 0.346,-0.418C0.328,-0.427 0.307,-0.432 0.281,-0.432C0.251,-0.432 0.226,-0.425 0.204,-0.411C0.182,-0.396 0.169,-0.375 0.164,-0.347L0.064,-0.347C0.068,-0.383 0.08,-0.413 0.1,-0.438C0.121,-0.463 0.147,-0.482 0.179,-0.495C0.211,-0.509 0.245,-0.516 0.281,-0.516C0.328,-0.516 0.368,-0.507 0.4,-0.491C0.432,-0.474 0.456,-0.45 0.472,-0.42C0.489,-0.39 0.497,-0.354 0.497,-0.312L0.497,-0L0.41,-0L0.402,-0.085C0.395,-0.072 0.386,-0.059 0.376,-0.047C0.366,-0.035 0.354,-0.025 0.34,-0.016C0.327,-0.007 0.311,-0.001 0.294,0.004C0.276,0.009 0.256,0.012 0.235,0.012ZM0.254,-0.069C0.275,-0.069 0.295,-0.074 0.312,-0.082C0.329,-0.091 0.344,-0.103 0.356,-0.118C0.369,-0.133 0.378,-0.15 0.384,-0.169C0.391,-0.187 0.395,-0.207 0.395,-0.227L0.395,-0.23L0.276,-0.23C0.248,-0.23 0.224,-0.227 0.207,-0.22C0.189,-0.213 0.176,-0.203 0.168,-0.191C0.16,-0.179 0.156,-0.165 0.156,-0.149C0.156,-0.133 0.16,-0.118 0.168,-0.107C0.175,-0.095 0.186,-0.085 0.201,-0.079C0.216,-0.073 0.233,-0.069 0.254,-0.069Z" style="fill:white;fill-rule:nonzero;"/>
                            </g>
                            <g transform="matrix(16.9744,0,0,16.9744,2263.74,2752.76)">
                                <rect x="0.068" y="-0.72" width="0.1" height="0.72" style="fill:white;fill-rule:nonzero;"/>
                            </g>
                            <g transform="matrix(16.9744,0,0,16.9744,2267.76,2752.76)">
                                <path d="M0.108,0.005C0.089,0.005 0.073,-0.001 0.061,-0.013C0.048,-0.026 0.042,-0.041 0.042,-0.058C0.042,-0.076 0.048,-0.092 0.061,-0.104C0.073,-0.116 0.089,-0.122 0.108,-0.122C0.127,-0.122 0.143,-0.116 0.155,-0.104C0.167,-0.092 0.173,-0.076 0.173,-0.058C0.173,-0.041 0.167,-0.026 0.155,-0.013C0.143,-0.001 0.127,0.005 0.108,0.005Z" style="fill:white;fill-rule:nonzero;"/>
                            </g>
                            <g transform="matrix(16.9744,0,0,16.9744,2271.42,2752.76)">
                                <path d="M0.263,0.012C0.221,0.012 0.183,0.005 0.151,-0.009C0.119,-0.023 0.094,-0.043 0.075,-0.068C0.057,-0.094 0.045,-0.123 0.041,-0.157L0.143,-0.157C0.146,-0.141 0.153,-0.126 0.162,-0.113C0.172,-0.1 0.186,-0.089 0.203,-0.081C0.219,-0.073 0.24,-0.069 0.263,-0.069C0.285,-0.069 0.303,-0.072 0.317,-0.079C0.331,-0.085 0.342,-0.094 0.349,-0.104C0.356,-0.115 0.359,-0.127 0.359,-0.14C0.359,-0.158 0.355,-0.172 0.346,-0.182C0.337,-0.192 0.323,-0.2 0.305,-0.205C0.288,-0.211 0.267,-0.216 0.242,-0.221C0.219,-0.225 0.197,-0.231 0.175,-0.238C0.153,-0.245 0.134,-0.253 0.117,-0.264C0.099,-0.275 0.086,-0.288 0.076,-0.305C0.066,-0.321 0.061,-0.341 0.061,-0.365C0.061,-0.394 0.068,-0.42 0.084,-0.443C0.099,-0.465 0.121,-0.483 0.149,-0.496C0.177,-0.509 0.211,-0.516 0.25,-0.516C0.306,-0.516 0.351,-0.502 0.385,-0.476C0.419,-0.449 0.439,-0.412 0.445,-0.363L0.348,-0.363C0.345,-0.386 0.335,-0.403 0.318,-0.415C0.301,-0.428 0.278,-0.434 0.249,-0.434C0.22,-0.434 0.198,-0.429 0.183,-0.417C0.168,-0.406 0.16,-0.391 0.16,-0.372C0.16,-0.36 0.164,-0.349 0.173,-0.34C0.182,-0.331 0.195,-0.323 0.212,-0.316C0.229,-0.31 0.25,-0.304 0.274,-0.299C0.31,-0.292 0.341,-0.284 0.369,-0.274C0.397,-0.264 0.419,-0.25 0.436,-0.23C0.453,-0.211 0.461,-0.183 0.461,-0.147C0.461,-0.115 0.453,-0.088 0.437,-0.064C0.421,-0.04 0.398,-0.021 0.368,-0.008C0.339,0.005 0.304,0.012 0.263,0.012Z" style="fill:white;fill-rule:nonzero;"/>
                            </g>
                            <g transform="matrix(16.9744,0,0,16.9744,2279.64,2752.76)">
                                <path d="M0.211,-0L0.022,-0.504L0.127,-0.504L0.27,-0.096L0.414,-0.504L0.517,-0.504L0.329,-0L0.211,-0Z" style="fill:white;fill-rule:nonzero;"/>
                            </g>
                            <g transform="matrix(16.9744,0,0,16.9744,2288.43,2752.76)">
                                <path d="M0.273,0.232C0.227,0.232 0.186,0.226 0.151,0.215C0.116,0.203 0.088,0.185 0.069,0.161C0.049,0.137 0.04,0.108 0.04,0.073C0.04,0.055 0.044,0.037 0.052,0.018C0.06,0 0.073,-0.017 0.091,-0.034C0.109,-0.051 0.133,-0.066 0.164,-0.079L0.22,-0.034C0.186,-0.021 0.163,-0.006 0.152,0.012C0.14,0.029 0.134,0.046 0.134,0.063C0.134,0.083 0.14,0.099 0.152,0.113C0.164,0.126 0.181,0.136 0.202,0.143C0.223,0.149 0.246,0.153 0.273,0.153C0.299,0.153 0.322,0.149 0.341,0.142C0.36,0.134 0.375,0.124 0.386,0.111C0.396,0.098 0.402,0.082 0.402,0.064C0.402,0.043 0.394,0.025 0.378,0.01C0.362,-0.004 0.332,-0.012 0.286,-0.015C0.248,-0.018 0.216,-0.021 0.19,-0.026C0.163,-0.031 0.141,-0.037 0.123,-0.043C0.105,-0.05 0.089,-0.057 0.077,-0.065C0.065,-0.073 0.054,-0.082 0.045,-0.09L0.045,-0.113L0.145,-0.216L0.226,-0.188L0.117,-0.087L0.138,-0.132C0.145,-0.127 0.152,-0.122 0.159,-0.118C0.166,-0.114 0.175,-0.11 0.186,-0.107C0.197,-0.104 0.213,-0.101 0.232,-0.098C0.251,-0.095 0.277,-0.093 0.308,-0.09C0.353,-0.087 0.39,-0.079 0.417,-0.066C0.445,-0.053 0.466,-0.036 0.478,-0.015C0.491,0.006 0.497,0.032 0.497,0.061C0.497,0.09 0.489,0.117 0.474,0.143C0.458,0.169 0.433,0.191 0.4,0.207C0.367,0.224 0.325,0.232 0.273,0.232ZM0.273,-0.155C0.231,-0.155 0.195,-0.163 0.165,-0.179C0.135,-0.195 0.112,-0.217 0.097,-0.244C0.081,-0.271 0.073,-0.302 0.073,-0.335C0.073,-0.369 0.081,-0.399 0.097,-0.426C0.113,-0.453 0.135,-0.475 0.165,-0.491C0.195,-0.507 0.231,-0.516 0.273,-0.516C0.315,-0.516 0.351,-0.507 0.381,-0.491C0.41,-0.475 0.433,-0.453 0.448,-0.426C0.464,-0.399 0.472,-0.369 0.472,-0.335C0.472,-0.302 0.464,-0.271 0.448,-0.244C0.433,-0.217 0.41,-0.195 0.381,-0.179C0.351,-0.163 0.315,-0.155 0.273,-0.155ZM0.273,-0.235C0.305,-0.235 0.331,-0.243 0.351,-0.26C0.37,-0.277 0.38,-0.302 0.38,-0.335C0.38,-0.367 0.37,-0.392 0.351,-0.409C0.331,-0.426 0.305,-0.435 0.273,-0.435C0.24,-0.435 0.214,-0.426 0.194,-0.409C0.174,-0.392 0.164,-0.367 0.164,-0.335C0.164,-0.302 0.174,-0.277 0.194,-0.26C0.214,-0.243 0.24,-0.235 0.273,-0.235ZM0.355,-0.425L0.331,-0.504L0.538,-0.504L0.538,-0.435L0.355,-0.425Z" style="fill:white;fill-rule:nonzero;"/>
                            </g>
                            <g transform="matrix(16.9744,0,0,16.9744,2298.1,2752.76)">
                            </g>
                        </g>
                    </g>
                    <g transform="matrix(0.540847,0,0,0.540847,1145.74,1259.95)">
                        <g transform="matrix(16.9744,0,0,16.9744,2183.34,2752.76)">
                            <path d="M0.046,-0L0.046,-0.078L0.387,-0.615L0.05,-0.615L0.05,-0.7L0.503,-0.7L0.503,-0.622L0.161,-0.085L0.506,-0.085L0.506,-0L0.046,-0Z" style="fill:white;fill-rule:nonzero;"/>
                        </g>
                        <g transform="matrix(16.9744,0,0,16.9744,2192.72,2752.76)">
                            <rect x="0.073" y="-0.7" width="0.1" height="0.7" style="fill:white;fill-rule:nonzero;"/>
                        </g>
                        <g transform="matrix(16.9744,0,0,16.9744,2196.89,2752.76)">
                            <path d="M0.073,-0L0.073,-0.7L0.312,-0.7C0.368,-0.7 0.414,-0.691 0.45,-0.672C0.486,-0.654 0.512,-0.629 0.53,-0.597C0.547,-0.566 0.556,-0.53 0.556,-0.49C0.556,-0.452 0.547,-0.417 0.53,-0.385C0.513,-0.354 0.487,-0.328 0.451,-0.309C0.415,-0.29 0.369,-0.281 0.312,-0.281L0.173,-0.281L0.173,-0L0.073,-0ZM0.173,-0.364L0.308,-0.364C0.36,-0.364 0.398,-0.375 0.42,-0.398C0.442,-0.421 0.454,-0.452 0.454,-0.49C0.454,-0.53 0.442,-0.562 0.42,-0.584C0.398,-0.606 0.36,-0.618 0.308,-0.618L0.173,-0.618L0.173,-0.364Z" style="fill:white;fill-rule:nonzero;"/>
                        </g>
                        <g transform="matrix(16.9744,0,0,16.9744,2206.92,2752.76)">
                        </g>
                        <g transform="matrix(16.9744,0,0,16.9744,2211.27,2752.76)">
                            <path d="M0.38,0.012C0.312,0.012 0.252,-0.003 0.203,-0.034C0.153,-0.064 0.114,-0.106 0.087,-0.161C0.06,-0.215 0.047,-0.278 0.047,-0.35C0.047,-0.422 0.06,-0.485 0.087,-0.539C0.114,-0.593 0.153,-0.636 0.203,-0.666C0.252,-0.697 0.312,-0.712 0.38,-0.712C0.462,-0.712 0.528,-0.692 0.579,-0.653C0.631,-0.614 0.663,-0.558 0.677,-0.487L0.567,-0.487C0.557,-0.528 0.536,-0.561 0.505,-0.586C0.474,-0.611 0.433,-0.623 0.38,-0.623C0.333,-0.623 0.292,-0.612 0.257,-0.59C0.223,-0.568 0.196,-0.537 0.177,-0.496C0.158,-0.455 0.149,-0.406 0.149,-0.35C0.149,-0.293 0.158,-0.244 0.177,-0.203C0.196,-0.163 0.223,-0.131 0.257,-0.11C0.292,-0.088 0.333,-0.077 0.38,-0.077C0.433,-0.077 0.474,-0.089 0.505,-0.112C0.536,-0.136 0.557,-0.168 0.567,-0.209L0.677,-0.209C0.663,-0.14 0.631,-0.086 0.579,-0.047C0.528,-0.008 0.462,0.012 0.38,0.012Z" style="fill:white;fill-rule:nonzero;"/>
                        </g>
                        <g transform="matrix(16.9744,0,0,16.9744,2223.56,2752.76)">
                            <path d="M0.298,0.012C0.251,0.012 0.208,0.001 0.17,-0.021C0.133,-0.043 0.103,-0.074 0.081,-0.113C0.06,-0.153 0.049,-0.199 0.049,-0.251C0.049,-0.305 0.06,-0.351 0.082,-0.391C0.104,-0.43 0.134,-0.461 0.172,-0.483C0.21,-0.505 0.252,-0.516 0.3,-0.516C0.348,-0.516 0.39,-0.505 0.428,-0.483C0.466,-0.461 0.495,-0.43 0.517,-0.391C0.539,-0.351 0.549,-0.305 0.549,-0.252C0.549,-0.199 0.538,-0.153 0.516,-0.113C0.495,-0.073 0.465,-0.043 0.427,-0.021C0.389,0.001 0.346,0.012 0.298,0.012ZM0.298,-0.074C0.325,-0.074 0.35,-0.081 0.372,-0.094C0.395,-0.107 0.413,-0.127 0.427,-0.153C0.44,-0.18 0.447,-0.213 0.447,-0.252C0.447,-0.291 0.44,-0.324 0.427,-0.351C0.414,-0.377 0.396,-0.397 0.373,-0.41C0.351,-0.423 0.326,-0.43 0.3,-0.43C0.274,-0.43 0.249,-0.423 0.226,-0.41C0.204,-0.397 0.185,-0.377 0.172,-0.35C0.158,-0.324 0.151,-0.291 0.151,-0.252C0.151,-0.213 0.158,-0.18 0.172,-0.153C0.185,-0.127 0.203,-0.107 0.226,-0.094C0.248,-0.081 0.272,-0.074 0.298,-0.074Z" style="fill:white;fill-rule:nonzero;"/>
                        </g>
                        <g transform="matrix(16.9744,0,0,16.9744,2233.72,2752.76)">
                            <path d="M0.068,-0L0.068,-0.504L0.158,-0.504L0.164,-0.418C0.18,-0.448 0.202,-0.472 0.232,-0.489C0.261,-0.507 0.295,-0.516 0.333,-0.516C0.373,-0.516 0.408,-0.507 0.436,-0.492C0.465,-0.476 0.487,-0.451 0.503,-0.419C0.519,-0.387 0.527,-0.347 0.527,-0.298L0.527,-0L0.427,-0L0.427,-0.288C0.427,-0.335 0.416,-0.37 0.396,-0.394C0.375,-0.418 0.345,-0.43 0.306,-0.43C0.28,-0.43 0.257,-0.424 0.236,-0.412C0.215,-0.399 0.199,-0.381 0.187,-0.357C0.174,-0.333 0.168,-0.304 0.168,-0.269L0.168,-0L0.068,-0Z" style="fill:white;fill-rule:nonzero;"/>
                        </g>
                        <g transform="matrix(16.9744,0,0,16.9744,2243.68,2752.76)">
                            <path d="M0.276,-0C0.244,-0 0.216,-0.005 0.193,-0.015C0.17,-0.025 0.152,-0.041 0.139,-0.065C0.126,-0.088 0.12,-0.12 0.12,-0.16L0.12,-0.419L0.033,-0.419L0.033,-0.504L0.12,-0.504L0.132,-0.63L0.22,-0.63L0.22,-0.504L0.363,-0.504L0.363,-0.419L0.22,-0.419L0.22,-0.159C0.22,-0.131 0.226,-0.111 0.238,-0.101C0.25,-0.091 0.27,-0.085 0.3,-0.085L0.358,-0.085L0.358,-0L0.276,-0Z" style="fill:white;fill-rule:nonzero;"/>
                        </g>
                        <g transform="matrix(16.9744,0,0,16.9744,2250.55,2752.76)">
                            <path d="M0.235,0.012C0.194,0.012 0.159,0.005 0.132,-0.009C0.105,-0.023 0.085,-0.042 0.071,-0.066C0.058,-0.089 0.051,-0.115 0.051,-0.142C0.051,-0.175 0.06,-0.204 0.077,-0.227C0.094,-0.251 0.119,-0.269 0.151,-0.282C0.183,-0.294 0.221,-0.301 0.267,-0.301L0.397,-0.301C0.397,-0.33 0.393,-0.354 0.384,-0.374C0.376,-0.393 0.363,-0.408 0.346,-0.418C0.328,-0.427 0.307,-0.432 0.281,-0.432C0.251,-0.432 0.226,-0.425 0.204,-0.411C0.182,-0.396 0.169,-0.375 0.164,-0.347L0.064,-0.347C0.068,-0.383 0.08,-0.413 0.1,-0.438C0.121,-0.463 0.147,-0.482 0.179,-0.495C0.211,-0.509 0.245,-0.516 0.281,-0.516C0.328,-0.516 0.368,-0.507 0.4,-0.491C0.432,-0.474 0.456,-0.45 0.472,-0.42C0.489,-0.39 0.497,-0.354 0.497,-0.312L0.497,-0L0.41,-0L0.402,-0.085C0.395,-0.072 0.386,-0.059 0.376,-0.047C0.366,-0.035 0.354,-0.025 0.34,-0.016C0.327,-0.007 0.311,-0.001 0.294,0.004C0.276,0.009 0.256,0.012 0.235,0.012ZM0.254,-0.069C0.275,-0.069 0.295,-0.074 0.312,-0.082C0.329,-0.091 0.344,-0.103 0.356,-0.118C0.369,-0.133 0.378,-0.15 0.384,-0.169C0.391,-0.187 0.395,-0.207 0.395,-0.227L0.395,-0.23L0.276,-0.23C0.248,-0.23 0.224,-0.227 0.207,-0.22C0.189,-0.213 0.176,-0.203 0.168,-0.191C0.16,-0.179 0.156,-0.165 0.156,-0.149C0.156,-0.133 0.16,-0.118 0.168,-0.107C0.175,-0.095 0.186,-0.085 0.201,-0.079C0.216,-0.073 0.233,-0.069 0.254,-0.069Z" style="fill:white;fill-rule:nonzero;"/>
                        </g>
                        <g transform="matrix(16.9744,0,0,16.9744,2260.01,2752.76)">
                            <path d="M0.076,-0L0.076,-0.504L0.175,-0.504L0.175,-0L0.076,-0ZM0.126,-0.599C0.106,-0.599 0.091,-0.605 0.078,-0.617C0.066,-0.629 0.06,-0.644 0.06,-0.663C0.06,-0.681 0.066,-0.696 0.078,-0.708C0.091,-0.719 0.106,-0.725 0.126,-0.725C0.144,-0.725 0.16,-0.719 0.173,-0.708C0.185,-0.696 0.192,-0.681 0.192,-0.663C0.192,-0.644 0.185,-0.629 0.173,-0.617C0.16,-0.605 0.144,-0.599 0.126,-0.599Z" style="fill:white;fill-rule:nonzero;"/>
                        </g>
                        <g transform="matrix(16.9744,0,0,16.9744,2264.25,2752.76)">
                            <path d="M0.068,-0L0.068,-0.504L0.158,-0.504L0.164,-0.418C0.18,-0.448 0.202,-0.472 0.232,-0.489C0.261,-0.507 0.295,-0.516 0.333,-0.516C0.373,-0.516 0.408,-0.507 0.436,-0.492C0.465,-0.476 0.487,-0.451 0.503,-0.419C0.519,-0.387 0.527,-0.347 0.527,-0.298L0.527,-0L0.427,-0L0.427,-0.288C0.427,-0.335 0.416,-0.37 0.396,-0.394C0.375,-0.418 0.345,-0.43 0.306,-0.43C0.28,-0.43 0.257,-0.424 0.236,-0.412C0.215,-0.399 0.199,-0.381 0.187,-0.357C0.174,-0.333 0.168,-0.304 0.168,-0.269L0.168,-0L0.068,-0Z" style="fill:white;fill-rule:nonzero;"/>
                        </g>
                        <g transform="matrix(16.9744,0,0,16.9744,2274.22,2752.76)">
                            <path d="M0.076,-0L0.076,-0.504L0.175,-0.504L0.175,-0L0.076,-0ZM0.126,-0.599C0.106,-0.599 0.091,-0.605 0.078,-0.617C0.066,-0.629 0.06,-0.644 0.06,-0.663C0.06,-0.681 0.066,-0.696 0.078,-0.708C0.091,-0.719 0.106,-0.725 0.126,-0.725C0.144,-0.725 0.16,-0.719 0.173,-0.708C0.185,-0.696 0.192,-0.681 0.192,-0.663C0.192,-0.644 0.185,-0.629 0.173,-0.617C0.16,-0.605 0.144,-0.599 0.126,-0.599Z" style="fill:white;fill-rule:nonzero;"/>
                        </g>
                        <g transform="matrix(16.9744,0,0,16.9744,2278.47,2752.76)">
                            <path d="M0.068,-0L0.068,-0.504L0.158,-0.504L0.164,-0.418C0.18,-0.448 0.202,-0.472 0.232,-0.489C0.261,-0.507 0.295,-0.516 0.333,-0.516C0.373,-0.516 0.408,-0.507 0.436,-0.492C0.465,-0.476 0.487,-0.451 0.503,-0.419C0.519,-0.387 0.527,-0.347 0.527,-0.298L0.527,-0L0.427,-0L0.427,-0.288C0.427,-0.335 0.416,-0.37 0.396,-0.394C0.375,-0.418 0.345,-0.43 0.306,-0.43C0.28,-0.43 0.257,-0.424 0.236,-0.412C0.215,-0.399 0.199,-0.381 0.187,-0.357C0.174,-0.333 0.168,-0.304 0.168,-0.269L0.168,-0L0.068,-0Z" style="fill:white;fill-rule:nonzero;"/>
                        </g>
                        <g transform="matrix(16.9744,0,0,16.9744,2288.43,2752.76)">
                            <path d="M0.273,0.232C0.227,0.232 0.186,0.226 0.151,0.215C0.116,0.203 0.088,0.185 0.069,0.161C0.049,0.137 0.04,0.108 0.04,0.073C0.04,0.055 0.044,0.037 0.052,0.018C0.06,0 0.073,-0.017 0.091,-0.034C0.109,-0.051 0.133,-0.066 0.164,-0.079L0.22,-0.034C0.186,-0.021 0.163,-0.006 0.152,0.012C0.14,0.029 0.134,0.046 0.134,0.063C0.134,0.083 0.14,0.099 0.152,0.113C0.164,0.126 0.181,0.136 0.202,0.143C0.223,0.149 0.246,0.153 0.273,0.153C0.299,0.153 0.322,0.149 0.341,0.142C0.36,0.134 0.375,0.124 0.386,0.111C0.396,0.098 0.402,0.082 0.402,0.064C0.402,0.043 0.394,0.025 0.378,0.01C0.362,-0.004 0.332,-0.012 0.286,-0.015C0.248,-0.018 0.216,-0.021 0.19,-0.026C0.163,-0.031 0.141,-0.037 0.123,-0.043C0.105,-0.05 0.089,-0.057 0.077,-0.065C0.065,-0.073 0.054,-0.082 0.045,-0.09L0.045,-0.113L0.145,-0.216L0.226,-0.188L0.117,-0.087L0.138,-0.132C0.145,-0.127 0.152,-0.122 0.159,-0.118C0.166,-0.114 0.175,-0.11 0.186,-0.107C0.197,-0.104 0.213,-0.101 0.232,-0.098C0.251,-0.095 0.277,-0.093 0.308,-0.09C0.353,-0.087 0.39,-0.079 0.417,-0.066C0.445,-0.053 0.466,-0.036 0.478,-0.015C0.491,0.006 0.497,0.032 0.497,0.061C0.497,0.09 0.489,0.117 0.474,0.143C0.458,0.169 0.433,0.191 0.4,0.207C0.367,0.224 0.325,0.232 0.273,0.232ZM0.273,-0.155C0.231,-0.155 0.195,-0.163 0.165,-0.179C0.135,-0.195 0.112,-0.217 0.097,-0.244C0.081,-0.271 0.073,-0.302 0.073,-0.335C0.073,-0.369 0.081,-0.399 0.097,-0.426C0.113,-0.453 0.135,-0.475 0.165,-0.491C0.195,-0.507 0.231,-0.516 0.273,-0.516C0.315,-0.516 0.351,-0.507 0.381,-0.491C0.41,-0.475 0.433,-0.453 0.448,-0.426C0.464,-0.399 0.472,-0.369 0.472,-0.335C0.472,-0.302 0.464,-0.271 0.448,-0.244C0.433,-0.217 0.41,-0.195 0.381,-0.179C0.351,-0.163 0.315,-0.155 0.273,-0.155ZM0.273,-0.235C0.305,-0.235 0.331,-0.243 0.351,-0.26C0.37,-0.277 0.38,-0.302 0.38,-0.335C0.38,-0.367 0.37,-0.392 0.351,-0.409C0.331,-0.426 0.305,-0.435 0.273,-0.435C0.24,-0.435 0.214,-0.426 0.194,-0.409C0.174,-0.392 0.164,-0.367 0.164,-0.335C0.164,-0.302 0.174,-0.277 0.194,-0.26C0.214,-0.243 0.24,-0.235 0.273,-0.235ZM0.355,-0.425L0.331,-0.504L0.538,-0.504L0.538,-0.435L0.355,-0.425Z" style="fill:white;fill-rule:nonzero;"/>
                        </g>
                        <g transform="matrix(16.9744,0,0,16.9744,2298.1,2752.76)">
                        </g>
                    </g>
                    <g transform="matrix(1,0,0,1,2345.69,2714.5)">
                        <path d="M20.25,7.5L19.625,18.132C19.555,19.315 18.563,20.25 17.378,20.25L6.622,20.25C5.437,20.25 4.445,19.315 4.375,18.132L3.75,7.5M10,11.25L14,11.25M3.375,7.5L20.625,7.5C21.246,7.5 21.75,6.996 21.75,6.375L21.75,4.875C21.75,4.254 21.246,3.75 20.625,3.75L3.375,3.75C2.754,3.75 2.25,4.254 2.25,4.875L2.25,6.375C2.25,6.996 2.754,7.5 3.375,7.5Z" style="fill:none;fill-rule:nonzero;stroke:rgb(237,255,0);stroke-width:1.5px;"/>
                    </g>
                </g>
            </g>
            <g transform="matrix(1.92529,0,0,1.92529,-2200.69,-2759.81)">
                <g transform="matrix(0.540847,0,0,0.540847,1145.74,1259.95)">
                    <g transform="matrix(16.9744,0,0,16.9744,2183.34,2752.76)">
                        <path d="M0.046,-0L0.046,-0.078L0.387,-0.615L0.05,-0.615L0.05,-0.7L0.503,-0.7L0.503,-0.622L0.161,-0.085L0.506,-0.085L0.506,-0L0.046,-0Z" style="fill:white;fill-rule:nonzero;"/>
                    </g>
                    <g transform="matrix(16.9744,0,0,16.9744,2192.72,2752.76)">
                        <rect x="0.073" y="-0.7" width="0.1" height="0.7" style="fill:white;fill-rule:nonzero;"/>
                    </g>
                    <g transform="matrix(16.9744,0,0,16.9744,2196.89,2752.76)">
                        <path d="M0.073,-0L0.073,-0.7L0.312,-0.7C0.368,-0.7 0.414,-0.691 0.45,-0.672C0.486,-0.654 0.512,-0.629 0.53,-0.597C0.547,-0.566 0.556,-0.53 0.556,-0.49C0.556,-0.452 0.547,-0.417 0.53,-0.385C0.513,-0.354 0.487,-0.328 0.451,-0.309C0.415,-0.29 0.369,-0.281 0.312,-0.281L0.173,-0.281L0.173,-0L0.073,-0ZM0.173,-0.364L0.308,-0.364C0.36,-0.364 0.398,-0.375 0.42,-0.398C0.442,-0.421 0.454,-0.452 0.454,-0.49C0.454,-0.53 0.442,-0.562 0.42,-0.584C0.398,-0.606 0.36,-0.618 0.308,-0.618L0.173,-0.618L0.173,-0.364Z" style="fill:white;fill-rule:nonzero;"/>
                    </g>
                    <g transform="matrix(16.9744,0,0,16.9744,2206.92,2752.76)">
                    </g>
                    <g transform="matrix(16.9744,0,0,16.9744,2211.27,2752.76)">
                        <path d="M0.38,0.012C0.312,0.012 0.252,-0.003 0.203,-0.034C0.153,-0.064 0.114,-0.106 0.087,-0.161C0.06,-0.215 0.047,-0.278 0.047,-0.35C0.047,-0.422 0.06,-0.485 0.087,-0.539C0.114,-0.593 0.153,-0.636 0.203,-0.666C0.252,-0.697 0.312,-0.712 0.38,-0.712C0.462,-0.712 0.528,-0.692 0.579,-0.653C0.631,-0.614 0.663,-0.558 0.677,-0.487L0.567,-0.487C0.557,-0.528 0.536,-0.561 0.505,-0.586C0.474,-0.611 0.433,-0.623 0.38,-0.623C0.333,-0.623 0.292,-0.612 0.257,-0.59C0.223,-0.568 0.196,-0.537 0.177,-0.496C0.158,-0.455 0.149,-0.406 0.149,-0.35C0.149,-0.293 0.158,-0.244 0.177,-0.203C0.196,-0.163 0.223,-0.131 0.257,-0.11C0.292,-0.088 0.333,-0.077 0.38,-0.077C0.433,-0.077 0.474,-0.089 0.505,-0.112C0.536,-0.136 0.557,-0.168 0.567,-0.209L0.677,-0.209C0.663,-0.14 0.631,-0.086 0.579,-0.047C0.528,-0.008 0.462,0.012 0.38,0.012Z" style="fill:white;fill-rule:nonzero;"/>
                    </g>
                    <g transform="matrix(16.9744,0,0,16.9744,2223.56,2752.76)">
                        <path d="M0.298,0.012C0.251,0.012 0.208,0.001 0.17,-0.021C0.133,-0.043 0.103,-0.074 0.081,-0.113C0.06,-0.153 0.049,-0.199 0.049,-0.251C0.049,-0.305 0.06,-0.351 0.082,-0.391C0.104,-0.43 0.134,-0.461 0.172,-0.483C0.21,-0.505 0.252,-0.516 0.3,-0.516C0.348,-0.516 0.39,-0.505 0.428,-0.483C0.466,-0.461 0.495,-0.43 0.517,-0.391C0.539,-0.351 0.549,-0.305 0.549,-0.252C0.549,-0.199 0.538,-0.153 0.516,-0.113C0.495,-0.073 0.465,-0.043 0.427,-0.021C0.389,0.001 0.346,0.012 0.298,0.012ZM0.298,-0.074C0.325,-0.074 0.35,-0.081 0.372,-0.094C0.395,-0.107 0.413,-0.127 0.427,-0.153C0.44,-0.18 0.447,-0.213 0.447,-0.252C0.447,-0.291 0.44,-0.324 0.427,-0.351C0.414,-0.377 0.396,-0.397 0.373,-0.41C0.351,-0.423 0.326,-0.43 0.3,-0.43C0.274,-0.43 0.249,-0.423 0.226,-0.41C0.204,-0.397 0.185,-0.377 0.172,-0.35C0.158,-0.324 0.151,-0.291 0.151,-0.252C0.151,-0.213 0.158,-0.18 0.172,-0.153C0.185,-0.127 0.203,-0.107 0.226,-0.094C0.248,-0.081 0.272,-0.074 0.298,-0.074Z" style="fill:white;fill-rule:nonzero;"/>
                    </g>
                    <g transform="matrix(16.9744,0,0,16.9744,2233.72,2752.76)">
                        <path d="M0.068,-0L0.068,-0.504L0.158,-0.504L0.164,-0.418C0.18,-0.448 0.202,-0.472 0.232,-0.489C0.261,-0.507 0.295,-0.516 0.333,-0.516C0.373,-0.516 0.408,-0.507 0.436,-0.492C0.465,-0.476 0.487,-0.451 0.503,-0.419C0.519,-0.387 0.527,-0.347 0.527,-0.298L0.527,-0L0.427,-0L0.427,-0.288C0.427,-0.335 0.416,-0.37 0.396,-0.394C0.375,-0.418 0.345,-0.43 0.306,-0.43C0.28,-0.43 0.257,-0.424 0.236,-0.412C0.215,-0.399 0.199,-0.381 0.187,-0.357C0.174,-0.333 0.168,-0.304 0.168,-0.269L0.168,-0L0.068,-0Z" style="fill:white;fill-rule:nonzero;"/>
                    </g>
                    <g transform="matrix(16.9744,0,0,16.9744,2243.68,2752.76)">
                        <path d="M0.276,-0C0.244,-0 0.216,-0.005 0.193,-0.015C0.17,-0.025 0.152,-0.041 0.139,-0.065C0.126,-0.088 0.12,-0.12 0.12,-0.16L0.12,-0.419L0.033,-0.419L0.033,-0.504L0.12,-0.504L0.132,-0.63L0.22,-0.63L0.22,-0.504L0.363,-0.504L0.363,-0.419L0.22,-0.419L0.22,-0.159C0.22,-0.131 0.226,-0.111 0.238,-0.101C0.25,-0.091 0.27,-0.085 0.3,-0.085L0.358,-0.085L0.358,-0L0.276,-0Z" style="fill:white;fill-rule:nonzero;"/>
                    </g>
                    <g transform="matrix(16.9744,0,0,16.9744,2250.55,2752.76)">
                        <path d="M0.235,0.012C0.194,0.012 0.159,0.005 0.132,-0.009C0.105,-0.023 0.085,-0.042 0.071,-0.066C0.058,-0.089 0.051,-0.115 0.051,-0.142C0.051,-0.175 0.06,-0.204 0.077,-0.227C0.094,-0.251 0.119,-0.269 0.151,-0.282C0.183,-0.294 0.221,-0.301 0.267,-0.301L0.397,-0.301C0.397,-0.33 0.393,-0.354 0.384,-0.374C0.376,-0.393 0.363,-0.408 0.346,-0.418C0.328,-0.427 0.307,-0.432 0.281,-0.432C0.251,-0.432 0.226,-0.425 0.204,-0.411C0.182,-0.396 0.169,-0.375 0.164,-0.347L0.064,-0.347C0.068,-0.383 0.08,-0.413 0.1,-0.438C0.121,-0.463 0.147,-0.482 0.179,-0.495C0.211,-0.509 0.245,-0.516 0.281,-0.516C0.328,-0.516 0.368,-0.507 0.4,-0.491C0.432,-0.474 0.456,-0.45 0.472,-0.42C0.489,-0.39 0.497,-0.354 0.497,-0.312L0.497,-0L0.41,-0L0.402,-0.085C0.395,-0.072 0.386,-0.059 0.376,-0.047C0.366,-0.035 0.354,-0.025 0.34,-0.016C0.327,-0.007 0.311,-0.001 0.294,0.004C0.276,0.009 0.256,0.012 0.235,0.012ZM0.254,-0.069C0.275,-0.069 0.295,-0.074 0.312,-0.082C0.329,-0.091 0.344,-0.103 0.356,-0.118C0.369,-0.133 0.378,-0.15 0.384,-0.169C0.391,-0.187 0.395,-0.207 0.395,-0.227L0.395,-0.23L0.276,-0.23C0.248,-0.23 0.224,-0.227 0.207,-0.22C0.189,-0.213 0.176,-0.203 0.168,-0.191C0.16,-0.179 0.156,-0.165 0.156,-0.149C0.156,-0.133 0.16,-0.118 0.168,-0.107C0.175,-0.095 0.186,-0.085 0.201,-0.079C0.216,-0.073 0.233,-0.069 0.254,-0.069Z" style="fill:white;fill-rule:nonzero;"/>
                    </g>
                    <g transform="matrix(16.9744,0,0,16.9744,2260.01,2752.76)">
                        <path d="M0.076,-0L0.076,-0.504L0.175,-0.504L0.175,-0L0.076,-0ZM0.126,-0.599C0.106,-0.599 0.091,-0.605 0.078,-0.617C0.066,-0.629 0.06,-0.644 0.06,-0.663C0.06,-0.681 0.066,-0.696 0.078,-0.708C0.091,-0.719 0.106,-0.725 0.126,-0.725C0.144,-0.725 0.16,-0.719 0.173,-0.708C0.185,-0.696 0.192,-0.681 0.192,-0.663C0.192,-0.644 0.185,-0.629 0.173,-0.617C0.16,-0.605 0.144,-0.599 0.126,-0.599Z" style="fill:white;fill-rule:nonzero;"/>
                    </g>
                    <g transform="matrix(16.9744,0,0,16.9744,2264.25,2752.76)">
                        <path d="M0.068,-0L0.068,-0.504L0.158,-0.504L0.164,-0.418C0.18,-0.448 0.202,-0.472 0.232,-0.489C0.261,-0.507 0.295,-0.516 0.333,-0.516C0.373,-0.516 0.408,-0.507 0.436,-0.492C0.465,-0.476 0.487,-0.451 0.503,-0.419C0.519,-0.387 0.527,-0.347 0.527,-0.298L0.527,-0L0.427,-0L0.427,-0.288C0.427,-0.335 0.416,-0.37 0.396,-0.394C0.375,-0.418 0.345,-0.43 0.306,-0.43C0.28,-0.43 0.257,-0.424 0.236,-0.412C0.215,-0.399 0.199,-0.381 0.187,-0.357C0.174,-0.333 0.168,-0.304 0.168,-0.269L0.168,-0L0.068,-0Z" style="fill:white;fill-rule:nonzero;"/>
                    </g>
                    <g transform="matrix(16.9744,0,0,16.9744,2274.22,2752.76)">
                        <path d="M0.076,-0L0.076,-0.504L0.175,-0.504L0.175,-0L0.076,-0ZM0.126,-0.599C0.106,-0.599 0.091,-0.605 0.078,-0.617C0.066,-0.629 0.06,-0.644 0.06,-0.663C0.06,-0.681 0.066,-0.696 0.078,-0.708C0.091,-0.719 0.106,-0.725 0.126,-0.725C0.144,-0.725 0.16,-0.719 0.173,-0.708C0.185,-0.696 0.192,-0.681 0.192,-0.663C0.192,-0.644 0.185,-0.629 0.173,-0.617C0.16,-0.605 0.144,-0.599 0.126,-0.599Z" style="fill:white;fill-rule:nonzero;"/>
                    </g>
                    <g transform="matrix(16.9744,0,0,16.9744,2278.47,2752.76)">
                        <path d="M0.068,-0L0.068,-0.504L0.158,-0.504L0.164,-0.418C0.18,-0.448 0.202,-0.472 0.232,-0.489C0.261,-0.507 0.295,-0.516 0.333,-0.516C0.373,-0.516 0.408,-0.507 0.436,-0.492C0.465,-0.476 0.487,-0.451 0.503,-0.419C0.519,-0.387 0.527,-0.347 0.527,-0.298L0.527,-0L0.427,-0L0.427,-0.288C0.427,-0.335 0.416,-0.37 0.396,-0.394C0.375,-0.418 0.345,-0.43 0.306,-0.43C0.28,-0.43 0.257,-0.424 0.236,-0.412C0.215,-0.399 0.199,-0.381 0.187,-0.357C0.174,-0.333 0.168,-0.304 0.168,-0.269L0.168,-0L0.068,-0Z" style="fill:white;fill-rule:nonzero;"/>
                    </g>
                    <g transform="matrix(16.9744,0,0,16.9744,2288.43,2752.76)">
                        <path d="M0.273,0.232C0.227,0.232 0.186,0.226 0.151,0.215C0.116,0.203 0.088,0.185 0.069,0.161C0.049,0.137 0.04,0.108 0.04,0.073C0.04,0.055 0.044,0.037 0.052,0.018C0.06,0 0.073,-0.017 0.091,-0.034C0.109,-0.051 0.133,-0.066 0.164,-0.079L0.22,-0.034C0.186,-0.021 0.163,-0.006 0.152,0.012C0.14,0.029 0.134,0.046 0.134,0.063C0.134,0.083 0.14,0.099 0.152,0.113C0.164,0.126 0.181,0.136 0.202,0.143C0.223,0.149 0.246,0.153 0.273,0.153C0.299,0.153 0.322,0.149 0.341,0.142C0.36,0.134 0.375,0.124 0.386,0.111C0.396,0.098 0.402,0.082 0.402,0.064C0.402,0.043 0.394,0.025 0.378,0.01C0.362,-0.004 0.332,-0.012 0.286,-0.015C0.248,-0.018 0.216,-0.021 0.19,-0.026C0.163,-0.031 0.141,-0.037 0.123,-0.043C0.105,-0.05 0.089,-0.057 0.077,-0.065C0.065,-0.073 0.054,-0.082 0.045,-0.09L0.045,-0.113L0.145,-0.216L0.226,-0.188L0.117,-0.087L0.138,-0.132C0.145,-0.127 0.152,-0.122 0.159,-0.118C0.166,-0.114 0.175,-0.11 0.186,-0.107C0.197,-0.104 0.213,-0.101 0.232,-0.098C0.251,-0.095 0.277,-0.093 0.308,-0.09C0.353,-0.087 0.39,-0.079 0.417,-0.066C0.445,-0.053 0.466,-0.036 0.478,-0.015C0.491,0.006 0.497,0.032 0.497,0.061C0.497,0.09 0.489,0.117 0.474,0.143C0.458,0.169 0.433,0.191 0.4,0.207C0.367,0.224 0.325,0.232 0.273,0.232ZM0.273,-0.155C0.231,-0.155 0.195,-0.163 0.165,-0.179C0.135,-0.195 0.112,-0.217 0.097,-0.244C0.081,-0.271 0.073,-0.302 0.073,-0.335C0.073,-0.369 0.081,-0.399 0.097,-0.426C0.113,-0.453 0.135,-0.475 0.165,-0.491C0.195,-0.507 0.231,-0.516 0.273,-0.516C0.315,-0.516 0.351,-0.507 0.381,-0.491C0.41,-0.475 0.433,-0.453 0.448,-0.426C0.464,-0.399 0.472,-0.369 0.472,-0.335C0.472,-0.302 0.464,-0.271 0.448,-0.244C0.433,-0.217 0.41,-0.195 0.381,-0.179C0.351,-0.163 0.315,-0.155 0.273,-0.155ZM0.273,-0.235C0.305,-0.235 0.331,-0.243 0.351,-0.26C0.37,-0.277 0.38,-0.302 0.38,-0.335C0.38,-0.367 0.37,-0.392 0.351,-0.409C0.331,-0.426 0.305,-0.435 0.273,-0.435C0.24,-0.435 0.214,-0.426 0.194,-0.409C0.174,-0.392 0.164,-0.367 0.164,-0.335C0.164,-0.302 0.174,-0.277 0.194,-0.26C0.214,-0.243 0.24,-0.235 0.273,-0.235ZM0.355,-0.425L0.331,-0.504L0.538,-0.504L0.538,-0.435L0.355,-0.425Z" style="fill:white;fill-rule:nonzero;"/>
                    </g>
                    <g transform="matrix(16.9744,0,0,16.9744,2298.1,2752.76)">
                    </g>
                </g>
                <g transform="matrix(1,0,0,1,2345.69,2714.5)">
                    <path d="M20.25,7.5L19.625,18.132C19.555,19.315 18.563,20.25 17.378,20.25L6.622,20.25C5.437,20.25 4.445,19.315 4.375,18.132L3.75,7.5M10,11.25L14,11.25M3.375,7.5L20.625,7.5C21.246,7.5 21.75,6.996 21.75,6.375L21.75,4.875C21.75,4.254 21.246,3.75 20.625,3.75L3.375,3.75C2.754,3.75 2.25,4.254 2.25,4.875L2.25,6.375C2.25,6.996 2.754,7.5 3.375,7.5Z" style="fill:none;fill-rule:nonzero;stroke:rgb(237,255,0);stroke-width:1.5px;"/>
                </g>
            </g>
        </g>
    </g>
</svg>
