<?xml version="1.0" encoding="UTF-8" standalone="no"?>
<!DOCTYPE svg PUBLIC "-//W3C//DTD SVG 1.1//EN" "http://www.w3.org/Graphics/SVG/1.1/DTD/svg11.dtd">
<svg width="100%" height="100%" viewBox="0 0 17 28" version="1.1" xmlns="http://www.w3.org/2000/svg" xmlns:xlink="http://www.w3.org/1999/xlink" xml:space="preserve" xmlns:serif="http://www.serif.com/" style="fill-rule:evenodd;clip-rule:evenodd;stroke-linejoin:round;stroke-miterlimit:2;">
    <g transform="matrix(1,0,0,1,-4065.33,-1715.87)">
        <g>
            <g transform="matrix(0.299388,0,0,0.299388,2948.84,1149.56)">
                <g>
                    <path d="M3729.24,1972.52L3729.24,1967.96L3739.92,1956.01L3729.38,1956.01L3729.38,1951.31L3746.46,1951.31L3746.46,1955.87L3735.66,1967.82L3746.67,1967.82L3746.67,1972.52L3729.24,1972.52Z" style="fill:rgb(237,255,1);fill-rule:nonzero;"/>
                    <path d="M3751.42,1972.52L3751.42,1951.31L3757.1,1951.31L3757.1,1972.52L3751.42,1972.52ZM3754.27,1948.39C3753.24,1948.39 3752.4,1948.09 3751.75,1947.48C3751.09,1946.86 3750.77,1946.1 3750.77,1945.18C3750.77,1944.25 3751.09,1943.49 3751.75,1942.89C3752.4,1942.29 3753.24,1941.99 3754.27,1941.99C3755.31,1941.99 3756.15,1942.29 3756.81,1942.89C3757.47,1943.49 3757.8,1944.25 3757.8,1945.18C3757.8,1946.1 3757.47,1946.86 3756.81,1947.48C3756.15,1948.09 3755.31,1948.39 3754.27,1948.39Z" style="fill:rgb(237,255,1);fill-rule:nonzero;"/>
                    <path d="M3762.79,1981.78L3762.79,1951.31L3767.85,1951.31L3768.47,1954.22C3768.92,1953.61 3769.45,1953.04 3770.07,1952.52C3770.68,1952 3771.43,1951.58 3772.29,1951.27C3773.16,1950.96 3774.17,1950.81 3775.31,1950.81C3777.29,1950.81 3779.04,1951.29 3780.56,1952.26C3782.08,1953.23 3783.28,1954.56 3784.16,1956.23C3785.04,1957.9 3785.48,1959.81 3785.48,1961.97C3785.48,1964.08 3785.03,1965.98 3784.14,1967.65C3783.24,1969.32 3782.04,1970.64 3780.52,1971.59C3779,1972.55 3777.27,1973.02 3775.34,1973.02C3773.77,1973.02 3772.42,1972.74 3771.27,1972.17C3770.13,1971.6 3769.2,1970.8 3768.48,1969.76L3768.48,1981.78L3762.79,1981.78ZM3774.01,1968.07C3775.11,1968.07 3776.09,1967.81 3776.95,1967.3C3777.81,1966.78 3778.48,1966.06 3778.96,1965.14C3779.45,1964.21 3779.69,1963.15 3779.69,1961.94C3779.69,1960.73 3779.45,1959.66 3778.96,1958.73C3778.48,1957.8 3777.81,1957.07 3776.95,1956.55C3776.09,1956.02 3775.11,1955.76 3774.01,1955.76C3772.89,1955.76 3771.91,1956.02 3771.05,1956.55C3770.19,1957.07 3769.53,1957.8 3769.04,1958.72C3768.56,1959.64 3768.32,1960.71 3768.32,1961.92C3768.32,1963.13 3768.56,1964.2 3769.04,1965.12C3769.53,1966.05 3770.19,1966.78 3771.05,1967.29C3771.91,1967.81 3772.89,1968.07 3774.01,1968.07Z" style="fill:rgb(237,255,1);fill-rule:nonzero;"/>
                </g>
            </g>
            <g transform="matrix(0.669699,0,0,0.669699,4065.38,1713.87)">
                <path d="M20.959,8.22L20.374,18.176C20.281,19.753 18.958,21.001 17.378,21L6.622,21C5.042,21.001 3.719,19.753 3.626,18.176L3.041,8.22C2.165,8.063 1.5,7.296 1.5,6.375L1.5,4.875C1.5,3.84 2.34,3 3.375,3L20.625,3C21.66,3 22.5,3.84 22.5,4.875L22.5,6.375C22.5,7.296 21.835,8.063 20.959,8.22ZM3.706,6.751C3.736,6.75 3.765,6.75 3.795,6.751L20.205,6.751C20.235,6.75 20.264,6.75 20.294,6.751L20.625,6.75C20.832,6.75 21,6.582 21,6.375L21,4.875C21,4.668 20.832,4.5 20.625,4.5L3.375,4.5C3.168,4.5 3,4.668 3,4.875L3,6.375C3,6.582 3.168,6.75 3.375,6.75L3.706,6.751ZM19.455,8.25L4.545,8.25L5.124,18.088C5.17,18.877 5.832,19.5 6.622,19.5L17.378,19.5C18.168,19.5 18.83,18.877 18.876,18.088L19.455,8.25ZM11.25,15.439L11.25,10.5C11.25,10.086 11.586,9.75 12,9.75C12.414,9.75 12.75,10.086 12.75,10.5L12.75,15.439L14.47,13.72C14.762,13.427 15.238,13.427 15.53,13.72C15.823,14.012 15.823,14.488 15.53,14.78L12.53,17.78C12.387,17.923 12.197,18 12,18C11.803,18 11.613,17.923 11.47,17.78L8.47,14.78C8.177,14.488 8.177,14.012 8.47,13.72C8.762,13.427 9.238,13.427 9.53,13.72L11.25,15.439Z" style="fill:rgb(237,255,0);"/>
            </g>
        </g>
    </g>
</svg>
